<svg width="70" height="70" viewBox="0 0 70 70" fill="none" xmlns="http://www.w3.org/2000/svg">
<path fill-rule="evenodd" clip-rule="evenodd" d="M29.0031 9.47919H40.9964C46.3572 9.47919 50.6039 9.47919 53.926 9.92544C57.3443 10.3863 60.1122 11.3546 62.2968 13.5363C64.4785 15.7209 65.4468 18.4888 65.9076 21.9071C66.1701 23.87 66.2781 26.1538 66.3218 28.7992C66.3599 29.0209 66.3639 29.2471 66.3335 29.47C66.3539 31.1209 66.3539 32.9059 66.3539 34.8367V35.1634C66.3539 40.5242 66.3539 44.7709 65.9076 48.0929C65.4468 51.5113 64.4785 54.2792 62.2968 56.4638C60.1122 58.6454 57.3443 59.6138 53.926 60.0746C50.601 60.5209 46.3572 60.5209 40.9964 60.5209H29.0031C23.6422 60.5209 19.3956 60.5209 16.0735 60.0746C12.6551 59.6138 9.88722 58.6454 7.70264 56.4638C5.52097 54.2792 4.55264 51.5113 4.09181 48.0929C3.64556 44.7679 3.64556 40.5242 3.64556 35.1634V34.8367C3.64556 32.9059 3.64556 31.1209 3.66597 29.47C3.6347 29.2473 3.63765 29.021 3.67472 28.7992C3.72139 26.1538 3.82931 23.87 4.09181 21.9071C4.55264 18.4888 5.52097 15.7209 7.70264 13.5363C9.88722 11.3546 12.6551 10.3863 16.0735 9.92544C19.3985 9.47919 23.6422 9.47919 29.0031 9.47919ZM8.02639 31.3542C8.02056 32.4859 8.02056 33.6992 8.02056 35C8.02056 40.5621 8.02639 44.5142 8.42889 47.5125C8.82264 50.4438 9.56347 52.1354 10.7972 53.3692C12.031 54.6029 13.7226 55.3438 16.6568 55.7375C19.6551 56.14 23.6043 56.1459 29.1664 56.1459H40.8331C46.3951 56.1459 50.3472 56.14 53.3456 55.7375C56.2768 55.3438 57.9685 54.6029 59.2022 53.3692C60.436 52.1354 61.1768 50.4438 61.5706 47.5096C61.9731 44.5113 61.9789 40.5621 61.9789 35C61.9789 33.6992 61.9789 32.4859 61.9731 31.3542H8.02639ZM61.9031 26.9792H8.09639C8.15472 25.2671 8.25389 23.7884 8.42889 22.4875C8.82264 19.5563 9.56347 17.8646 10.7972 16.6309C12.031 15.3971 13.7226 14.6563 16.6568 14.2625C19.6551 13.86 23.6043 13.8542 29.1664 13.8542H40.8331C46.3951 13.8542 50.3472 13.86 53.3456 14.2625C56.2768 14.6563 57.9685 15.3971 59.2022 16.6309C60.436 17.8646 61.1768 19.5563 61.5706 22.4904C61.7456 23.7884 61.8447 25.2671 61.9031 26.9792ZM46.5351 35.7292H46.7976C48.0606 35.7292 49.2185 35.7292 50.1576 35.8546C51.196 35.9946 52.2897 36.3213 53.191 37.2254C54.0951 38.1267 54.4218 39.2204 54.5618 40.2588C54.6872 41.2009 54.6872 42.3588 54.6872 43.6188V43.8813C54.6872 45.1442 54.6872 46.3021 54.5618 47.2413C54.4218 48.2796 54.0951 49.3734 53.191 50.2746C52.2897 51.1788 51.196 51.5054 50.1576 51.6454C49.2156 51.7709 48.0576 51.7709 46.7976 51.7709H46.5351C45.2722 51.7709 44.1143 51.7709 43.1751 51.6454C42.1368 51.5054 41.0431 51.1788 40.1418 50.2746C39.2376 49.3734 38.911 48.2796 38.771 47.2413C38.6456 46.2992 38.6456 45.1413 38.6456 43.8813V43.6188C38.6456 42.3559 38.6456 41.1979 38.771 40.2588C38.911 39.2204 39.2376 38.1267 40.1418 37.2254C41.0431 36.3213 42.1368 35.9946 43.1751 35.8546C44.1172 35.7292 45.2751 35.7292 46.5351 35.7292ZM43.2393 40.3142L43.2335 40.3171L43.2306 40.3259C43.1675 40.4919 43.1263 40.6654 43.1081 40.8421C43.0264 41.4546 43.0206 42.3121 43.0206 43.75C43.0206 45.1879 43.0264 46.0454 43.1081 46.6579C43.1263 46.8346 43.1675 47.0081 43.2306 47.1742L43.2335 47.1829L43.2422 47.1859C43.4083 47.2489 43.5818 47.2901 43.7585 47.3084C44.371 47.39 45.2285 47.3959 46.6664 47.3959C48.1043 47.3959 48.9618 47.39 49.5743 47.3084C49.751 47.2901 49.9245 47.2489 50.0906 47.1859L50.0993 47.1829L50.1022 47.1742C50.1653 47.0081 50.2065 46.8346 50.2247 46.6579C50.3064 46.0454 50.3122 45.1879 50.3122 43.75C50.3122 42.3121 50.3064 41.4546 50.2247 40.8421C50.2065 40.6654 50.1653 40.4919 50.1022 40.3259L50.0993 40.3171L50.0906 40.3142C49.9245 40.2511 49.751 40.21 49.5743 40.1917C48.9618 40.11 48.1043 40.1042 46.6664 40.1042C45.2285 40.1042 44.371 40.11 43.7585 40.1917C43.5818 40.21 43.4083 40.2511 43.2422 40.3142M15.3122 39.375C15.3122 38.7949 15.5427 38.2385 15.9529 37.8282C16.3632 37.418 16.9196 37.1875 17.4997 37.1875H23.3331C23.9132 37.1875 24.4696 37.418 24.8799 37.8282C25.2901 38.2385 25.5206 38.7949 25.5206 39.375C25.5206 39.9552 25.2901 40.5116 24.8799 40.9218C24.4696 41.3321 23.9132 41.5625 23.3331 41.5625H17.4997C16.9196 41.5625 16.3632 41.3321 15.9529 40.9218C15.5427 40.5116 15.3122 39.9552 15.3122 39.375ZM15.3122 48.125C15.3122 47.5449 15.5427 46.9885 15.9529 46.5782C16.3632 46.168 16.9196 45.9375 17.4997 45.9375H29.1664C29.7465 45.9375 30.3029 46.168 30.7132 46.5782C31.1234 46.9885 31.3539 47.5449 31.3539 48.125C31.3539 48.7052 31.1234 49.2616 30.7132 49.6718C30.3029 50.0821 29.7465 50.3125 29.1664 50.3125H17.4997C16.9196 50.3125 16.3632 50.0821 15.9529 49.6718C15.5427 49.2616 15.3122 48.7052 15.3122 48.125Z" fill="#FD7717"/>
</svg>
