<svg width="70" height="70" viewBox="0 0 70 70" fill="none" xmlns="http://www.w3.org/2000/svg">
<path d="M49 9.625C49 8.92881 49.2766 8.26113 49.7689 7.76884C50.2612 7.27656 50.9289 7 51.625 7H60.375C61.0712 7 61.7389 7.27656 62.2312 7.76884C62.7235 8.26113 63 8.92881 63 9.625V18.375C63 19.0712 62.7235 19.7389 62.2312 20.2312C61.7389 20.7234 61.0712 21 60.375 21C59.6789 21 59.0112 20.7234 58.5189 20.2312C58.0266 19.7389 57.75 19.0712 57.75 18.375V15.96L42.105 31.605C41.6129 32.0966 40.9457 32.3727 40.25 32.3727C39.5544 32.3727 38.8872 32.0966 38.3951 31.605L29.75 22.96L14.9801 37.73C14.7397 37.9879 14.4499 38.1948 14.1279 38.3382C13.8059 38.4817 13.4583 38.5589 13.1059 38.5651C12.7534 38.5713 12.4033 38.5065 12.0765 38.3744C11.7496 38.2424 11.4527 38.0459 11.2034 37.7966C10.9541 37.5474 10.7576 37.2505 10.6256 36.9236C10.4936 36.5967 10.4288 36.2466 10.435 35.8942C10.4412 35.5417 10.5183 35.1941 10.6618 34.8721C10.8053 34.5501 11.0121 34.2603 11.27 34.02L27.895 17.395C28.3872 16.9034 29.0544 16.6273 29.75 16.6273C30.4457 16.6273 31.1129 16.9034 31.605 17.395L40.25 26.04L54.04 12.25H51.625C50.9289 12.25 50.2612 11.9734 49.7689 11.4812C49.2766 10.9889 49 10.3212 49 9.625ZM13.125 49C13.8212 49 14.4889 49.2766 14.9812 49.7688C15.4735 50.2611 15.75 50.9288 15.75 51.625V60.375C15.75 61.0712 15.4735 61.7389 14.9812 62.2312C14.4889 62.7234 13.8212 63 13.125 63C12.4289 63 11.7612 62.7234 11.2689 62.2312C10.7766 61.7389 10.5 61.0712 10.5 60.375V51.625C10.5 50.9288 10.7766 50.2611 11.2689 49.7688C11.7612 49.2766 12.4289 49 13.125 49ZM29.75 41.125C29.75 40.4288 29.4735 39.7611 28.9812 39.2688C28.4889 38.7766 27.8212 38.5 27.125 38.5C26.4289 38.5 25.7612 38.7766 25.2689 39.2688C24.7766 39.7611 24.5 40.4288 24.5 41.125V60.375C24.5 61.0712 24.7766 61.7389 25.2689 62.2312C25.7612 62.7234 26.4289 63 27.125 63C27.8212 63 28.4889 62.7234 28.9812 62.2312C29.4735 61.7389 29.75 61.0712 29.75 60.375V41.125ZM41.125 45.5C41.8212 45.5 42.4889 45.7766 42.9812 46.2688C43.4735 46.7611 43.75 47.4288 43.75 48.125V60.375C43.75 61.0712 43.4735 61.7389 42.9812 62.2312C42.4889 62.7234 41.8212 63 41.125 63C40.4289 63 39.7612 62.7234 39.2689 62.2312C38.7766 61.7389 38.5 61.0712 38.5 60.375V48.125C38.5 47.4288 38.7766 46.7611 39.2689 46.2688C39.7612 45.7766 40.4289 45.5 41.125 45.5ZM57.75 34.125C57.75 33.4288 57.4735 32.7611 56.9812 32.2688C56.4889 31.7766 55.8212 31.5 55.125 31.5C54.4289 31.5 53.7612 31.7766 53.2689 32.2688C52.7766 32.7611 52.5 33.4288 52.5 34.125V60.375C52.5 61.0712 52.7766 61.7389 53.2689 62.2312C53.7612 62.7234 54.4289 63 55.125 63C55.8212 63 56.4889 62.7234 56.9812 62.2312C57.4735 61.7389 57.75 61.0712 57.75 60.375V34.125Z" fill="#FD7717"/>
</svg>
