<svg width="30" height="30" viewBox="0 0 30 30" fill="none" xmlns="http://www.w3.org/2000/svg">
<path d="M6.90486 1.53936C6.81685 1.54142 6.72963 1.55642 6.64599 1.58389C6.3164 1.69276 6.05039 1.99686 5.90771 2.50387C5.76503 3.01089 5.77558 3.69157 6.00545 4.38151C6.23531 5.07145 6.63556 5.62358 7.05427 5.94514C7.47304 6.26671 7.86873 6.35214 8.19838 6.24327C8.52802 6.1344 8.79386 5.83042 8.93648 5.32335C9.07916 4.81634 9.06867 4.13559 8.83875 3.44565C8.60888 2.75565 8.20869 2.2037 7.78992 1.88214C7.47586 1.64096 7.1748 1.53257 6.90486 1.53936ZM17.6822 2.26434C17.4794 2.27354 17.301 2.36682 17.1988 2.57747L16.3999 4.02737L14.8335 5.92048C14.8335 5.92048 11.6793 5.3622 10.6124 5.51835C10.391 5.55042 10.1699 5.58493 9.94927 5.62188C9.73752 6.36345 9.25734 7.00423 8.53177 7.24387C7.85718 7.46671 7.14463 7.28501 6.55359 6.88188C6.28611 7.0876 6.03873 7.32608 5.81783 7.60434C4.72365 8.46333 4.27183 9.05436 3.35103 9.65044C3.53168 8.7795 3.97699 7.91155 4.46584 7.19659C4.54611 7.07923 5.13937 6.57813 5.22099 6.46968C5.65927 5.608 4.72505 4.05468 3.84545 5.54038C3.76195 5.65634 3.41502 6.64645 3.32882 6.77647C2.47488 8.4679 1.94156 9.57825 2.42214 11.2486C2.58363 11.8099 4.23328 10.9612 5.65828 9.95026C7.2092 12.1382 9.13664 12.7982 10.2504 13.6462C8.8872 18.532 10.852 22.2749 11.9658 25.8174L10.2579 27.9318C9.73828 28.5545 13.112 28.7001 13.3289 27.9757L13.7807 25.9929C12.0913 20.6897 13.5966 16.7535 14.8131 13.8217C18.0479 10.3622 21.5648 8.99923 24.7096 6.27538L27.364 5.71083C27.9996 4.54387 27.9637 3.96778 26.5522 3.91218L23.92 4.94313C20.6044 6.80682 15.3647 8.06899 12.9925 10.6847C12.9399 9.86178 11.9729 7.91325 11.7677 7.26069C12.9029 7.41145 14.4436 7.50813 15.321 7.10354C16.2588 6.67112 17.2915 4.71315 17.2915 4.71315L18.4436 3.86055C19.4435 3.27122 18.4067 2.23177 17.6822 2.26446L17.6822 2.26434Z" fill="#FFC931"/>
</svg>
