<svg width="30" height="30" viewBox="0 0 30 30" fill="none" xmlns="http://www.w3.org/2000/svg">
<path d="M5.01709 2.05127L8.09977 4.36355C8.83201 4.09352 9.60635 3.95554 10.3868 3.95604C10.4843 3.95604 10.5813 3.95867 10.6778 3.96289L5.01709 2.05127ZM1.4376 3.53281L4.6449 7.15684C5.08301 6.48371 5.62365 5.89057 6.24369 5.40371L1.4376 3.53281ZM10.3868 4.89354C7.06512 4.89354 4.3534 7.75824 4.3534 11.3383C4.3534 14.9183 7.06512 17.7831 10.3868 17.7831C13.7085 17.7831 16.4201 14.9183 16.4201 11.3383C16.4201 7.75824 13.7084 4.89354 10.3868 4.89354ZM1.57781 8.33357L3.41602 11.3519L3.4159 11.3383C3.4159 10.4251 3.57398 9.5491 3.86232 8.73957L1.57781 8.33357ZM20.0002 9.90623L19.2892 10.6854C19.7873 11.1398 20.2453 11.5314 20.6661 11.8834C20.8193 11.5524 21.0352 11.2631 21.3072 11.0397C20.9035 10.7038 20.4699 10.3349 20.0002 9.90623ZM22.6281 11.6219C22.5427 11.6206 22.4575 11.6307 22.3747 11.6518C21.717 11.8217 21.2573 12.7149 21.5239 13.7475C21.7905 14.78 22.6252 15.3391 23.2829 15.1693C23.9406 14.9995 24.4003 14.1062 24.1337 13.0736C23.9004 12.1701 23.2321 11.6292 22.6281 11.6219ZM1.38059 12.1023L4.38504 15.0895C4.00383 14.4065 3.73026 13.6688 3.57398 12.9024L1.38059 12.1023ZM17.5944 13.8344L17.6084 14.8889C18.4607 14.8774 19.8719 15.2216 21.027 15.6052C21.2856 15.6911 21.5425 15.782 21.7977 15.8776C21.282 15.5428 20.8601 15.0093 20.6176 14.3705C19.5939 14.0662 18.4959 13.8222 17.5944 13.8344ZM1.05469 15.5455V16.5614C2.19751 17.0392 3.34165 17.5138 4.48711 17.9853C7.77539 19.3399 12.0657 21.0915 16.3254 22.8252C20.5306 24.5366 24.7373 26.2444 28.9453 27.9488V26.9374C24.8551 25.2805 20.7663 23.6204 16.6787 21.957C12.4198 20.2236 8.13 18.4721 4.84418 17.1184C3.3191 16.4901 2.04299 15.9606 1.05469 15.5456V15.5455ZM24.4045 15.7357C24.1639 15.9471 23.8766 16.1053 23.5465 16.1905C23.2512 16.2671 22.9427 16.2776 22.6429 16.2213C23.7501 17.0478 23.3559 19.6843 22.8182 20.3637C22.3423 20.9649 21.5666 21.1566 21.1366 21.2126C21.1429 21.2179 21.1222 21.2174 21.0564 21.22C21.0822 21.219 21.1092 21.2162 21.1366 21.2126C21.1271 21.2046 21.0534 21.1832 20.9716 21.1146C20.8363 21.0013 20.6568 20.8142 20.4758 20.5963C20.1137 20.1603 19.7353 19.5929 19.528 19.1976L19.1592 18.4942L18.654 19.1069C18.3553 19.4691 18.0643 19.6634 17.3981 20.0276L17.9041 20.9531C18.3287 20.7209 18.6605 20.5136 18.9513 20.2788C19.1671 20.6157 19.4053 20.958 19.6644 21.2701C19.872 21.52 20.0808 21.7443 20.2944 21.9232C20.5079 22.1021 20.7011 22.2897 21.0983 22.2738C22.371 22.2232 23.4743 21.2088 24.3869 20.5422C24.6492 20.3506 25.2084 20.1983 25.7958 20.1828C26.2259 20.1714 26.6703 20.2291 27.0182 20.3238C26.952 21.1687 26.7063 22.6242 26.1381 23.4526L25.604 24.2316L26.5474 24.2775C27.4586 24.3218 27.9534 24.197 28.852 23.8116L28.4364 22.8423C27.9805 23.0377 27.7233 23.1412 27.4637 23.1924C27.9711 22.0041 28.0892 20.6616 28.1019 19.97L28.1083 19.6235L27.7927 19.4802C27.2157 19.2183 26.4924 19.1093 25.768 19.1284C25.4533 19.1367 25.1389 19.1676 24.8382 19.2328C24.9594 18.6816 24.9711 18.1326 24.905 17.6027C24.8245 16.956 24.6359 16.3345 24.4045 15.7357Z" fill="#FFC931"/>
</svg>
