<svg width="30" height="25" viewBox="0 0 30 25" fill="none" xmlns="http://www.w3.org/2000/svg">
<path d="M5.30882 8.05636H5.24507C4.42507 8.05636 3.75757 8.74004 3.75757 9.57141V16.1701C3.75757 17.0053 4.42507 17.6852 5.24507 17.6852H5.31007C6.12882 17.6852 6.79757 17.004 6.79757 16.1701V9.57141C6.79592 9.16989 6.6385 8.78531 6.35963 8.50151C6.08075 8.21771 5.70304 8.0577 5.30882 8.05636ZM7.50882 18.7164C7.50882 19.4829 8.12382 20.1067 8.87632 20.1067H10.3388V23.6715C10.3388 24.508 11.0076 25.1878 11.8263 25.1878H11.8888C12.7101 25.1878 13.3788 24.5067 13.3788 23.6702V20.1067H15.4213V23.6715C15.4213 24.508 16.0938 25.1878 16.9113 25.1878H16.9738C17.7951 25.1878 18.4626 24.5067 18.4626 23.6702V20.1067H19.9251C20.6763 20.1067 21.2913 19.4829 21.2913 18.7164V8.29953H7.50882V18.7164ZM17.8326 1.9809L18.9938 0.156477C19.0125 0.128906 19.0256 0.0978021 19.0323 0.0650009C19.039 0.0321997 19.0391 -0.00163408 19.0328 -0.0345032C19.0264 -0.0673723 19.0136 -0.0986105 18.9952 -0.126374C18.9768 -0.154137 18.9531 -0.177863 18.9256 -0.196151C18.898 -0.214439 18.8672 -0.226918 18.8348 -0.232851C18.8024 -0.238785 18.7692 -0.238053 18.7371 -0.230698C18.705 -0.223344 18.6747 -0.209516 18.6479 -0.190031C18.6212 -0.170546 18.5985 -0.145799 18.5813 -0.11725L17.3776 1.77083C16.4329 1.37968 15.4223 1.17989 14.4026 1.18263C13.382 1.17969 12.3706 1.37949 11.4251 1.77083L10.2238 -0.11725C10.2062 -0.145317 10.1833 -0.169529 10.1564 -0.188474C10.1295 -0.207419 10.0991 -0.220716 10.0671 -0.22759C10.0351 -0.234464 10.0021 -0.234777 9.97 -0.228511C9.93788 -0.222245 9.90731 -0.209524 9.88007 -0.191093C9.85286 -0.17316 9.82939 -0.149932 9.81101 -0.122741C9.79263 -0.0955497 9.7797 -0.0649308 9.77297 -0.0326398C9.76623 -0.000348896 9.76582 0.0329787 9.77176 0.0654316C9.7777 0.0978845 9.78987 0.128824 9.80757 0.156477L10.9701 1.9809C8.87507 3.02743 7.46257 4.99699 7.46257 7.25682C7.46257 7.39687 7.47007 7.5331 7.48257 7.66805H21.3201C21.331 7.53125 21.3368 7.39407 21.3376 7.25682C21.3376 4.99699 19.9263 3.02743 17.8326 1.9809ZM11.1938 5.24907C11.0174 5.24941 10.8482 5.17837 10.7232 5.05159C10.5983 4.92481 10.5279 4.75266 10.5276 4.57303C10.5272 4.39339 10.597 4.22098 10.7215 4.09372C10.8459 3.96646 11.0149 3.89478 11.1913 3.89444C11.3677 3.8941 11.537 3.96514 11.6619 4.09192C11.7869 4.2187 11.8572 4.39085 11.8576 4.57048C11.8579 4.75012 11.7882 4.92253 11.6637 5.04979C11.5392 5.17705 11.3702 5.24873 11.1938 5.24907ZM17.6088 5.24907C17.5215 5.24932 17.435 5.23205 17.3542 5.19824C17.2734 5.16444 17.2 5.11476 17.138 5.05204C17.013 4.92538 16.9424 4.7533 16.9419 4.57366C16.9414 4.39403 17.011 4.22155 17.1354 4.09417C17.2598 3.96679 17.4287 3.89495 17.6051 3.89444C17.7814 3.89393 17.9508 3.96481 18.0758 4.09147C18.2009 4.21813 18.2714 4.39021 18.2719 4.56984C18.2724 4.74948 18.2029 4.92196 18.0785 5.04934C17.9541 5.17672 17.7852 5.24856 17.6088 5.24907ZM23.5563 8.05636H23.4938C22.6751 8.05636 22.0051 8.74004 22.0051 9.57141V16.1701C22.0051 17.0053 22.6763 17.6852 23.4938 17.6852H23.5563C24.3776 17.6852 25.0451 17.004 25.0451 16.1701V9.57141C25.0451 8.73877 24.3763 8.05636 23.5563 8.05636Z" fill="#FFC931"/>
</svg>
