<svg width="41" height="23" viewBox="0 0 41 23" fill="none" xmlns="http://www.w3.org/2000/svg">
<path d="M2.46161 20.8187H5.4773V7.23066H2.46161V20.8187ZM3.96323 5.44893C4.90769 5.44893 5.64716 4.67936 5.64716 3.71836C5.64716 2.74341 4.90769 1.97461 3.96323 1.97461C3.03121 1.97461 2.29248 2.74341 2.29248 3.71836C2.29248 4.67936 3.03121 5.44893 3.96323 5.44893ZM15.5164 2.01336C10.4185 2.01336 7.22127 5.69228 7.22127 11.5761C7.22127 17.4599 10.4185 21.1264 15.5164 21.1264C20.6034 21.1264 23.8006 17.4607 23.8006 11.5761C23.8006 5.69228 20.6034 2.01258 15.5172 2.01258M15.5172 4.83203C18.6302 4.83203 20.6158 7.44766 20.6158 11.5745C20.6158 15.6898 18.6302 18.3054 15.5179 18.3054C12.3931 18.3054 10.4193 15.6906 10.4193 11.5753C10.4193 7.44766 12.3931 4.83281 15.5179 4.83281M25.0731 15.6146C25.2064 19.0246 27.8465 21.1272 31.8674 21.1272C36.0933 21.1272 38.7576 18.9223 38.7576 15.41C38.7576 12.6533 37.2567 11.1026 33.708 10.2439L31.6975 9.75638C29.5538 9.21853 28.6701 8.50089 28.6701 7.26941C28.6701 5.73181 30.0026 4.70571 31.9757 4.70571C33.9745 4.70571 35.3429 5.74421 35.4878 7.47478H38.4677C38.3944 4.21901 35.851 2.01413 32.0006 2.01413C28.1979 2.01413 25.497 4.23141 25.497 7.51353C25.497 10.154 27.0228 11.7946 30.2442 12.5766L32.5087 13.1408C34.7125 13.6918 35.6086 14.4614 35.6086 15.7944C35.6086 17.3328 34.1436 18.4348 32.0365 18.4348C29.9052 18.4348 28.2953 17.3196 28.1005 15.6154L25.0731 15.6146Z" fill="#FFC931"/>
</svg>
