<svg width="30" height="33" viewBox="0 0 30 33" fill="none" xmlns="http://www.w3.org/2000/svg">
<path d="M27.6163 21.5423C26.9263 23.07 26.5963 23.7531 25.7102 25.1031C24.4721 26.9885 22.724 29.3412 20.5629 29.3573C18.6406 29.3735 18.1444 28.1031 15.5356 28.1238C12.9267 28.1365 12.3833 29.3804 10.4586 29.3608C8.29749 29.3412 6.64287 27.2215 5.40364 25.3396C1.93864 20.0608 1.57287 13.8738 3.71441 10.5819C5.22941 8.24769 7.6271 6.87692 9.87826 6.87692C12.1709 6.87692 13.6121 8.13692 15.5079 8.13692C17.3471 8.13692 18.4675 6.87346 21.119 6.87346C23.1244 6.87346 25.2452 7.96615 26.7602 9.85154C21.8033 12.5677 22.6086 19.6477 27.6163 21.5423ZM19.1067 4.76654C20.0713 3.52846 20.8029 1.78154 20.5375 0C18.9636 0.107308 17.1233 1.11231 16.0479 2.41385C15.074 3.59885 14.2663 5.35962 14.5813 7.06269C16.2983 7.11808 18.0752 6.09462 19.1067 4.76654Z" fill="#FFC931"/>
</svg>
