<svg width="30" height="30" viewBox="0 0 30 30" fill="none" xmlns="http://www.w3.org/2000/svg">
<path d="M21.3926 1.24861C21.0235 1.24685 20.6661 1.2779 20.4024 1.33064C20.1504 1.38103 19.9981 1.49529 20.004 1.46247C19.6875 1.99392 19.3536 2.92497 19.2833 3.71657C19.2422 4.1238 19.2715 4.4906 19.3594 4.73552C19.4473 4.97986 19.5469 5.09294 19.7403 5.16384C19.7579 5.1697 19.7637 5.17439 19.7696 5.17849C19.7696 5.17204 19.7754 5.16208 19.793 5.14626C19.8575 5.08943 19.9805 4.91013 20.1036 4.67165C20.3438 4.19411 20.543 3.51267 21.0469 3.02048C21.586 2.49724 22.3125 2.3115 22.8282 2.07419C23.086 1.95583 23.2793 1.83103 23.3614 1.74372C23.3848 1.71443 23.3965 1.69978 23.4083 1.6822C23.045 1.47478 22.2774 1.27497 21.5508 1.25271V1.25154C21.4981 1.24978 21.4454 1.24919 21.3926 1.24861ZM19.7696 5.17849C19.7637 5.18904 19.7754 5.18669 19.7696 5.17849V5.17849ZM24.0059 2.58396C23.7833 2.78259 23.5254 2.91384 23.2676 3.0322C22.6583 3.31404 22.0137 3.55134 21.7852 3.77575C21.7149 3.84548 21.6329 3.9738 21.545 4.13493C21.7442 4.32126 21.9844 4.49587 22.2481 4.64411C22.8399 4.97341 23.4668 5.10407 23.9532 5.05896C24.4454 5.02204 24.75 4.83806 24.9024 4.57146C25.0489 4.30486 25.0372 3.94509 24.8086 3.51091C24.6504 3.1945 24.375 2.86579 24.0059 2.58396ZM21.0586 5.11462C21.0586 5.12458 21.0528 5.13396 21.0469 5.14392C20.9063 5.42634 20.754 5.70583 20.4961 5.93552C20.2969 6.10544 19.9922 6.22849 19.6875 6.21677C19.254 6.81443 18.75 7.44138 18.1231 8.10349C19.4063 8.66599 20.3497 9.18747 21.5098 9.97263C21.9258 8.34372 22.4649 7.13083 23.0274 6.04685C22.5997 5.96482 22.1602 5.80075 21.7383 5.56697C21.4922 5.4322 21.2637 5.27986 21.0586 5.11462ZM15.0821 6.10544C13.67 6.1699 12.9844 6.77341 12.5977 7.4824C12.211 8.18552 12.211 9.06443 12.3106 9.3574C12.3399 9.46286 12.3282 9.43357 12.3692 9.43943C12.4102 9.45115 12.545 9.45115 12.7325 9.36326C13.1075 9.18161 13.629 8.70115 13.9512 7.9863L14.1915 7.45896L14.6895 7.74607C15.1231 7.99216 15.7383 7.78122 16.0254 7.4238C16.0547 7.08982 15.961 6.74997 15.7793 6.50388C15.5918 6.25193 15.3516 6.1113 15.129 6.10544H15.0821ZM16.3946 8.5195C15.9083 8.86521 15.2813 9.00583 14.6719 8.85349C14.5079 9.13474 14.3204 9.38669 14.1211 9.60349C17.9532 10.9746 18.8379 11.414 21.7149 13.664C21.7793 15.4453 21.9493 17.9941 21.7735 19.3418C21.6329 20.414 22.8106 20.0449 22.8282 19.3535C22.8516 18.2812 22.6465 17.1328 22.8692 16.1484C22.9161 17.0683 23.7364 16.9394 23.754 16.166L23.795 13.6113L24.1934 13.2422C20.4551 10.4238 19.5352 9.77341 16.3946 8.5195ZM15.9083 11.3789L12.8145 16.9804L13.3536 18.0644L12.0352 18.3808L10.3067 21.5097L10.8926 21.9902L12.1641 21.7734L17.5254 12.082C17.0508 11.8418 16.5352 11.625 15.9083 11.3789ZM18.4571 12.5918L13.5059 21.5449L15.7208 21.1699L17.9239 17.1797L17.8653 15.7734L18.9083 15.4043L19.9102 13.5937C19.3711 13.1894 18.9083 12.8672 18.4571 12.5918ZM7.14263 20.2676L1.24048 23.5605V24.4746L7.01958 23.6836L8.36724 26.5195L7.41802 26.9765L6.39849 24.832L1.24048 25.5351V29.0625H22.9336L22.5879 28.4297L18.252 26.7129L15.0059 27.9844L14.6192 27L18.252 25.5761L21.7911 26.9765L21.7442 26.8945L16.9395 22.0371L11.9297 22.8867L13.3594 24.1113L12.668 24.9082L10.3301 22.9043L7.14263 20.2676Z" fill="#FFC931"/>
</svg>
