<svg width="30" height="30" viewBox="0 0 30 30" fill="none" xmlns="http://www.w3.org/2000/svg">
<path d="M27.0231 1.5401C27.0878 4.05143 26.8486 6.57389 26.3211 9.07232L23.3559 8.40506C23.5117 7.25996 23.5968 6.10437 23.5669 4.94791L23.553 4.41453H20.6584V1.5401H27.0231ZM9.05783 1.5401V4.41453H6.36814L6.35467 4.94814C6.32492 6.10339 6.38483 7.2592 6.53385 8.40518L3.59912 9.06963C3.06896 6.57102 2.83447 4.05225 2.89834 1.54004H9.05777L9.05783 1.5401ZM16.7717 1.61943V4.30221H12.9598V1.61949L16.7717 1.61943ZM19.5633 2.53912V5.50953H22.4719C22.467 6.58309 22.3726 7.66484 22.2047 8.74484L22.1262 9.25068L25.0686 9.91268C24.8824 10.7156 24.664 11.5107 24.414 12.2961L22.0058 11.933L19.029 18.2066L20.889 19.875C20.4683 20.5518 20.0264 21.2153 19.5639 21.8643L17.0739 20.0206L16.7437 20.4256C16.178 21.1194 15.5769 21.8067 14.9411 22.4723C14.304 21.8125 13.7038 21.1487 13.1443 20.4605L12.8147 20.0549L10.3644 21.8646C9.89819 21.2094 9.45288 20.5396 9.02912 19.8562L10.868 18.2068L7.89123 11.933L5.51074 12.2921C5.25981 11.5066 5.04049 10.7115 4.85332 9.90846L7.76168 9.24986L7.68275 8.74438C7.51547 7.67422 7.44486 6.58965 7.44703 5.50959H10.1531V2.53924H11.8652V5.39744H17.8669V2.53924H19.5637L19.5633 2.53912ZM20.3787 7.18279H9.5148L9.50191 7.71717C9.39961 11.9969 11.1373 15.8017 14.5478 19.4304L14.9461 19.854L15.3451 19.4312C18.7762 15.7945 20.4952 11.9923 20.3917 7.71711L20.3788 7.18273L20.3787 7.18279ZM19.2959 8.27791C19.2479 11.8633 17.8253 15.0522 14.9474 18.2425C12.0851 15.058 10.6484 11.8644 10.598 8.27785L19.2959 8.27791ZM22.6462 13.1371L25.823 13.616L22.7565 20.0792L20.3687 17.9374L22.6464 13.1371H22.6462ZM7.25015 13.1371L9.52793 17.9374L7.14006 20.0792L4.07349 13.616L7.25015 13.1371ZM17.2547 21.5172L19.7569 23.3699C18.3557 25.2865 16.7505 27.1494 14.9435 28.9501C13.1427 27.1488 11.5626 25.2915 10.1653 23.3726L12.635 21.5487C13.2364 22.2648 13.865 22.9652 14.5564 23.6568L14.9429 24.0434L15.3301 23.6575C16.0291 22.9608 16.6567 22.2368 17.2547 21.517L17.2547 21.5172Z" fill="#FFC931"/>
</svg>
