<svg width="70" height="70" viewBox="0 0 70 70" fill="none" xmlns="http://www.w3.org/2000/svg">
<path d="M17.5625 23.9231C17.5625 23.4334 17.7568 22.9639 18.1025 22.6176C18.4483 22.2714 18.9173 22.0769 19.4062 22.0769H45.2188C45.7077 22.0769 46.1767 22.2714 46.5225 22.6176C46.8682 22.9639 47.0625 23.4334 47.0625 23.9231C47.0625 24.4127 46.8682 24.8823 46.5225 25.2285C46.1767 25.5747 45.7077 25.7692 45.2188 25.7692H19.4062C18.9173 25.7692 18.4483 25.5747 18.1025 25.2285C17.7568 24.8823 17.5625 24.4127 17.5625 23.9231ZM37.8438 33.1538C37.3548 33.1538 36.8858 33.3483 36.54 33.6946C36.1943 34.0408 36 34.5104 36 35C36 35.4896 36.1943 35.9592 36.54 36.3054C36.8858 36.6517 37.3548 36.8462 37.8438 36.8462H45.2188C45.7077 36.8462 46.1767 36.6517 46.5225 36.3054C46.8682 35.9592 47.0625 35.4896 47.0625 35C47.0625 34.5104 46.8682 34.0408 46.5225 33.6946C46.1767 33.3483 45.7077 33.1538 45.2188 33.1538H37.8438ZM36 46.0769C36 45.5873 36.1943 45.1177 36.54 44.7715C36.8858 44.4253 37.3548 44.2308 37.8438 44.2308H45.2188C45.7077 44.2308 46.1767 44.4253 46.5225 44.7715C46.8682 45.1177 47.0625 45.5873 47.0625 46.0769C47.0625 46.5666 46.8682 47.0361 46.5225 47.3824C46.1767 47.7286 45.7077 47.9231 45.2188 47.9231H37.8438C37.3548 47.9231 36.8858 47.7286 36.54 47.3824C36.1943 47.0361 36 46.5666 36 46.0769ZM19.4062 33.1538C18.9173 33.1538 18.4483 33.3483 18.1025 33.6946C17.7568 34.0408 17.5625 34.5104 17.5625 35V46.0769C17.5625 46.5666 17.7568 47.0361 18.1025 47.3824C18.4483 47.7286 18.9173 47.9231 19.4062 47.9231H30.4688C30.9577 47.9231 31.4267 47.7286 31.7725 47.3824C32.1182 47.0361 32.3125 46.5666 32.3125 46.0769V35C32.3125 34.5104 32.1182 34.0408 31.7725 33.6946C31.4267 33.3483 30.9577 33.1538 30.4688 33.1538H19.4062ZM21.25 44.2308V36.8462H28.625V44.2308H21.25ZM6.5 18.3846C6.5 16.4261 7.27701 14.5478 8.66009 13.1629C10.0432 11.778 11.919 11 13.875 11H50.75C52.706 11 54.5818 11.778 55.9649 13.1629C57.348 14.5478 58.125 16.4261 58.125 18.3846V22.0769C60.081 22.0769 61.9568 22.8549 63.3399 24.2398C64.723 25.6247 65.5 27.503 65.5 29.4615V49.7692C65.5 52.2174 64.5287 54.5653 62.7999 56.2964C61.071 58.0275 58.7262 59 56.2812 59H15.7188C13.2738 59 10.929 58.0275 9.20011 56.2964C7.47126 54.5653 6.5 52.2174 6.5 49.7692V18.3846ZM54.4375 18.3846C54.4375 17.4054 54.049 16.4662 53.3575 15.7738C52.6659 15.0813 51.728 14.6923 50.75 14.6923H13.875C12.897 14.6923 11.9591 15.0813 11.2675 15.7738C10.576 16.4662 10.1875 17.4054 10.1875 18.3846V49.7692C10.1875 51.2381 10.7703 52.6469 11.8076 53.6855C12.8449 54.7242 14.2518 55.3077 15.7188 55.3077H56.2812C57.7482 55.3077 59.1551 54.7242 60.1924 53.6855C61.2297 52.6469 61.8125 51.2381 61.8125 49.7692V29.4615C61.8125 28.4823 61.424 27.5431 60.7325 26.8507C60.0409 26.1582 59.103 25.7692 58.125 25.7692V49.7692C58.125 50.2589 57.9307 50.7284 57.585 51.0747C57.2392 51.4209 56.7702 51.6154 56.2812 51.6154C55.7923 51.6154 55.3233 51.4209 54.9775 51.0747C54.6318 50.7284 54.4375 50.2589 54.4375 49.7692V18.3846Z" fill="#FD7717"/>
</svg>
