<svg width="339" height="220" viewBox="0 0 339 220" fill="none" xmlns="http://www.w3.org/2000/svg">
<g clip-path="url(#clip0_361_64261)">
<path d="M34.9346 15.6775H50.1414V94.2725H34.9346V15.6775Z" fill="#FFFCF3"/>
<path d="M64.2803 15.6775H80.2765L108.665 62.3725L113.96 73.1225L113.397 15.6775H128.492V94.2725H112.608L84.2189 47.6925L78.8121 36.7125L79.4871 94.2725H64.2803V15.6775Z" fill="#FFFCF3"/>
<path d="M220.873 15.6775H236.08V94.2725H220.873V15.6775Z" fill="#FFFCF3"/>
<path d="M250.217 15.6775H304.063V28.045H265.424V47.695H299.782V59.9475H265.424V81.9075H304.063V94.275H250.217V15.68V15.6775Z" fill="#FFFCF3"/>
<path d="M182.741 109.985H166.623C163.784 109.985 161.481 107.622 161.481 104.71V99.535C161.481 96.6225 163.784 94.26 166.623 94.26H182.741C185.579 94.26 187.882 96.6225 187.882 99.535V104.71C187.882 107.622 185.579 109.985 182.741 109.985ZM166.659 105.927H182.704C183.379 105.927 183.927 105.365 183.927 104.672V99.575C183.927 98.8825 183.379 98.32 182.704 98.32H166.659C165.984 98.32 165.436 98.8825 165.436 99.575V104.672C165.436 105.365 165.984 105.927 166.659 105.927Z" fill="#FFFCF3"/>
<path d="M174.683 0.0175068C174.683 0.0175068 139.279 -0.89999 139.279 35.115C139.279 58.85 161.594 84.015 165.175 87.8325C165.692 88.3875 166.308 88.7775 166.91 88.7C167.775 88.63 168.375 87.9775 168.384 87.25C168.392 86.6625 168.175 86.3275 167.673 85.605C165.039 81.7375 148.794 56.975 149.732 35.37C150.685 13.4425 174.685 13.955 174.685 13.955C174.685 13.955 198.688 13.44 199.639 35.37C200.577 56.975 184.332 81.7375 181.698 85.605C181.196 86.325 180.979 86.6625 180.986 87.25C180.996 87.9775 181.593 88.63 182.461 88.7C183.062 88.7775 183.679 88.3875 184.195 87.8325C187.775 84.015 210.092 58.85 210.092 35.115C210.092 -0.89999 174.688 0.0175068 174.688 0.0175068H174.683Z" fill="#FFFCF3"/>
</g>
<path d="M34.6293 205.071C34.6293 205.071 34.6293 204.6 34.6293 203.658V200.412V197.166V195.753H36.0313H39.2881H42.5342H43.947C43.947 195.753 43.947 196.224 43.947 197.166V200.412V203.658V205.071C43.947 205.071 43.4761 205.071 42.5342 205.071H39.2881H36.0313H34.6293ZM34.6293 199.894C34.6293 199.894 34.6293 199.427 34.6293 198.492V195.235V191.989V190.576H36.0313H39.2881H42.5342H43.947C43.947 190.576 43.947 191.047 43.947 191.989V195.235V198.492V199.894C43.947 199.894 43.4761 199.894 42.5342 199.894H39.2881H36.0313H34.6293ZM34.6293 194.718C34.6293 194.718 34.6293 194.25 34.6293 193.316V190.059V186.813V185.4H36.0313H39.2881H42.5342H43.947C43.947 185.4 43.947 185.871 43.947 186.813V190.059V193.316V194.718C43.947 194.718 43.4761 194.718 42.5342 194.718H39.2881H36.0313H34.6293ZM34.6293 189.541C34.6293 189.541 34.6293 189.074 34.6293 188.139V184.882V181.636V180.224H36.0313H39.2881H42.5342H43.947C43.947 180.224 43.947 180.694 43.947 181.636V184.882V188.139V189.541C43.947 189.541 43.4761 189.541 42.5342 189.541H39.2881H36.0313H34.6293ZM34.6293 184.365C34.6293 184.365 34.6293 183.897 34.6293 182.963V179.706V176.46V175.047H36.0313H39.2881H42.5342H43.947C43.947 175.047 43.947 175.518 43.947 176.46V179.706V182.963V184.365C43.947 184.365 43.4761 184.365 42.5342 184.365H39.2881H36.0313H34.6293ZM39.8058 184.365C39.8058 184.365 39.8058 183.897 39.8058 182.963V179.706V176.46V175.047H41.2078H44.4646H47.7107H49.1234C49.1234 175.047 49.1234 175.518 49.1234 176.46V179.706V182.963V184.365C49.1234 184.365 48.6525 184.365 47.7107 184.365H44.4646H41.2078H39.8058ZM44.9823 184.365C44.9823 184.365 44.9823 183.897 44.9823 182.963V179.706V176.46V175.047H46.3842H49.6411H52.8872H54.2999C54.2999 175.047 54.2999 175.518 54.2999 176.46V179.706V182.963V184.365C54.2999 184.365 53.829 184.365 52.8872 184.365H49.6411H46.3842H44.9823ZM50.1587 184.365C50.1587 184.365 50.1587 183.897 50.1587 182.963V179.706V176.46V175.047H51.5607H54.8176H58.0636H59.4764C59.4764 175.047 59.4764 175.518 59.4764 176.46V179.706V182.963V184.365C59.4764 184.365 59.0055 184.365 58.0636 184.365H54.8176H51.5607H50.1587ZM34.6293 179.188C34.6293 179.188 34.6293 178.721 34.6293 177.786V174.529V171.283V169.871H36.0313H39.2881H42.5342H43.947C43.947 169.871 43.947 170.341 43.947 171.283V174.529V177.786V179.188C43.947 179.188 43.4761 179.188 42.5342 179.188H39.2881H36.0313H34.6293ZM55.3352 179.188C55.3352 179.188 55.3352 178.721 55.3352 177.786V174.529V171.283V169.871H56.7372H59.994H63.2401H64.6529C64.6529 169.871 64.6529 170.341 64.6529 171.283V174.529V177.786V179.188C64.6529 179.188 64.1819 179.188 63.2401 179.188H59.994H56.7372H55.3352ZM34.6293 174.012C34.6293 174.012 34.6293 173.544 34.6293 172.61V169.353V166.107V164.694H36.0313H39.2881H42.5342H43.947C43.947 164.694 43.947 165.165 43.947 166.107V169.353V172.61V174.012C43.947 174.012 43.4761 174.012 42.5342 174.012H39.2881H36.0313H34.6293ZM55.3352 174.012C55.3352 174.012 55.3352 173.544 55.3352 172.61V169.353V166.107V164.694H56.7372H59.994H63.2401H64.6529C64.6529 164.694 64.6529 165.165 64.6529 166.107V169.353V172.61V174.012C64.6529 174.012 64.1819 174.012 63.2401 174.012H59.994H56.7372H55.3352ZM34.6293 168.835C34.6293 168.835 34.6293 168.368 34.6293 167.433V164.176V160.93V159.518H36.0313H39.2881H42.5342H43.947C43.947 159.518 43.947 159.989 43.947 160.93V164.176V167.433V168.835C43.947 168.835 43.4761 168.835 42.5342 168.835H39.2881H36.0313H34.6293ZM55.3352 168.835C55.3352 168.835 55.3352 168.368 55.3352 167.433V164.176V160.93V159.518H56.7372H59.994H63.2401H64.6529C64.6529 159.518 64.6529 159.989 64.6529 160.93V164.176V167.433V168.835C64.6529 168.835 64.1819 168.835 63.2401 168.835H59.994H56.7372H55.3352ZM34.6293 163.659C34.6293 163.659 34.6293 163.192 34.6293 162.257V159V155.754V154.341H36.0313H39.2881H42.5342H43.947C43.947 154.341 43.947 154.812 43.947 155.754V159V162.257V163.659C43.947 163.659 43.4761 163.659 42.5342 163.659H39.2881H36.0313H34.6293ZM55.3352 163.659C55.3352 163.659 55.3352 163.192 55.3352 162.257V159V155.754V154.341H56.7372H59.994H63.2401H64.6529C64.6529 154.341 64.6529 154.812 64.6529 155.754V159V162.257V163.659C64.6529 163.659 64.1819 163.659 63.2401 163.659H59.994H56.7372H55.3352ZM34.6293 158.482C34.6293 158.482 34.6293 158.015 34.6293 157.08V153.824V150.577V149.165H36.0313H39.2881H42.5342H43.947C43.947 149.165 43.947 149.636 43.947 150.577V153.824V157.08V158.482C43.947 158.482 43.4761 158.482 42.5342 158.482H39.2881H36.0313H34.6293ZM55.3352 158.482C55.3352 158.482 55.3352 158.015 55.3352 157.08V153.824V150.577V149.165H56.7372H59.994H63.2401H64.6529C64.6529 149.165 64.6529 149.636 64.6529 150.577V153.824V157.08V158.482C64.6529 158.482 64.1819 158.482 63.2401 158.482H59.994H56.7372H55.3352ZM34.6293 153.306C34.6293 153.306 34.6293 152.839 34.6293 151.904V148.647V145.401V143.988H36.0313H39.2881H42.5342H43.947C43.947 143.988 43.947 144.459 43.947 145.401V148.647V151.904V153.306C43.947 153.306 43.4761 153.306 42.5342 153.306H39.2881H36.0313H34.6293ZM39.8058 153.306C39.8058 153.306 39.8058 152.839 39.8058 151.904V148.647V145.401V143.988H41.2078H44.4646H47.7107H49.1234C49.1234 143.988 49.1234 144.459 49.1234 145.401V148.647V151.904V153.306C49.1234 153.306 48.6525 153.306 47.7107 153.306H44.4646H41.2078H39.8058ZM44.9823 153.306C44.9823 153.306 44.9823 152.839 44.9823 151.904V148.647V145.401V143.988H46.3842H49.6411H52.8872H54.2999C54.2999 143.988 54.2999 144.459 54.2999 145.401V148.647V151.904V153.306C54.2999 153.306 53.829 153.306 52.8872 153.306H49.6411H46.3842H44.9823ZM50.1587 153.306C50.1587 153.306 50.1587 152.839 50.1587 151.904V148.647V145.401V143.988H51.5607H54.8176H58.0636H59.4764C59.4764 143.988 59.4764 144.459 59.4764 145.401V148.647V151.904V153.306C59.4764 153.306 59.0055 153.306 58.0636 153.306H54.8176H51.5607H50.1587ZM73.3168 205.071C73.3168 205.071 73.3168 204.6 73.3168 203.658V200.412V197.166V195.753H74.7188H77.9756H81.2217H82.6345C82.6345 195.753 82.6345 196.224 82.6345 197.166V200.412V203.658V205.071C82.6345 205.071 82.1636 205.071 81.2217 205.071H77.9756H74.7188H73.3168ZM94.0227 205.071C94.0227 205.071 94.0227 204.6 94.0227 203.658V200.412V197.166V195.753H95.4247H98.6815H101.928H103.34C103.34 195.753 103.34 196.224 103.34 197.166V200.412V203.658V205.071C103.34 205.071 102.869 205.071 101.928 205.071H98.6815H95.4247H94.0227ZM73.3168 199.894C73.3168 199.894 73.3168 199.427 73.3168 198.492V195.235V191.989V190.576H74.7188H77.9756H81.2217H82.6345C82.6345 190.576 82.6345 191.047 82.6345 191.989V195.235V198.492V199.894C82.6345 199.894 82.1636 199.894 81.2217 199.894H77.9756H74.7188H73.3168ZM91.4345 199.894C91.4345 199.894 91.4345 199.427 91.4345 198.492V195.235V191.989V190.576H92.8364H96.0933H99.3394H100.752C100.752 190.576 100.752 191.047 100.752 191.989V195.235V198.492V199.894C100.752 199.894 100.281 199.894 99.3394 199.894H96.0933H92.8364H91.4345ZM73.3168 194.718C73.3168 194.718 73.3168 194.25 73.3168 193.316V190.059V186.813V185.4H74.7188H77.9756H81.2217H82.6345C82.6345 185.4 82.6345 185.871 82.6345 186.813V190.059V193.316V194.718C82.6345 194.718 82.1636 194.718 81.2217 194.718H77.9756H74.7188H73.3168ZM88.8462 194.718C88.8462 194.718 88.8462 194.25 88.8462 193.316V190.059V186.813V185.4H90.2482H93.5051H96.7511H98.1639C98.1639 185.4 98.1639 185.871 98.1639 186.813V190.059V193.316V194.718C98.1639 194.718 97.693 194.718 96.7511 194.718H93.5051H90.2482H88.8462ZM73.3168 189.541C73.3168 189.541 73.3168 189.074 73.3168 188.139V184.882V181.636V180.224H74.7188H77.9756H81.2217H82.6345C82.6345 180.224 82.6345 180.694 82.6345 181.636V184.882V188.139V189.541C82.6345 189.541 82.1636 189.541 81.2217 189.541H77.9756H74.7188H73.3168ZM86.258 189.541C86.258 189.541 86.258 189.074 86.258 188.139V184.882V181.636V180.224H87.66H90.9168H94.1629H95.5756C95.5756 180.224 95.5756 180.694 95.5756 181.636V184.882V188.139V189.541C95.5756 189.541 95.1047 189.541 94.1629 189.541H90.9168H87.66H86.258ZM73.3168 184.365C73.3168 184.365 73.3168 183.897 73.3168 182.963V179.706V176.46V175.047H74.7188H77.9756H81.2217H82.6345C82.6345 175.047 82.6345 175.518 82.6345 176.46V179.706V182.963V184.365C82.6345 184.365 82.1636 184.365 81.2217 184.365H77.9756H74.7188H73.3168ZM78.4933 184.365C78.4933 184.365 78.4933 183.897 78.4933 182.963V179.706V176.46V175.047H79.8953H83.1521H86.3982H87.8109C87.8109 175.047 87.8109 175.518 87.8109 176.46V179.706V182.963V184.365C87.8109 184.365 87.34 184.365 86.3982 184.365H83.1521H79.8953H78.4933ZM83.6698 184.365C83.6698 184.365 83.6698 183.897 83.6698 182.963V179.706V176.46V175.047H85.0717H88.3286H91.5747H92.9874C92.9874 175.047 92.9874 175.518 92.9874 176.46V179.706V182.963V184.365C92.9874 184.365 92.5165 184.365 91.5747 184.365H88.3286H85.0717H83.6698ZM88.8462 184.365C88.8462 184.365 88.8462 183.897 88.8462 182.963V179.706V176.46V175.047H90.2482H93.5051H96.7511H98.1639C98.1639 175.047 98.1639 175.518 98.1639 176.46V179.706V182.963V184.365C98.1639 184.365 97.693 184.365 96.7511 184.365H93.5051H90.2482H88.8462ZM73.3168 179.188C73.3168 179.188 73.3168 178.721 73.3168 177.786V174.529V171.283V169.871H74.7188H77.9756H81.2217H82.6345C82.6345 169.871 82.6345 170.341 82.6345 171.283V174.529V177.786V179.188C82.6345 179.188 82.1636 179.188 81.2217 179.188H77.9756H74.7188H73.3168ZM94.0227 179.188C94.0227 179.188 94.0227 178.721 94.0227 177.786V174.529V171.283V169.871H95.4247H98.6815H101.928H103.34C103.34 169.871 103.34 170.341 103.34 171.283V174.529V177.786V179.188C103.34 179.188 102.869 179.188 101.928 179.188H98.6815H95.4247H94.0227ZM73.3168 174.012C73.3168 174.012 73.3168 173.544 73.3168 172.61V169.353V166.107V164.694H74.7188H77.9756H81.2217H82.6345C82.6345 164.694 82.6345 165.165 82.6345 166.107V169.353V172.61V174.012C82.6345 174.012 82.1636 174.012 81.2217 174.012H77.9756H74.7188H73.3168ZM94.0227 174.012C94.0227 174.012 94.0227 173.544 94.0227 172.61V169.353V166.107V164.694H95.4247H98.6815H101.928H103.34C103.34 164.694 103.34 165.165 103.34 166.107V169.353V172.61V174.012C103.34 174.012 102.869 174.012 101.928 174.012H98.6815H95.4247H94.0227ZM73.3168 168.835C73.3168 168.835 73.3168 168.368 73.3168 167.433V164.176V160.93V159.518H74.7188H77.9756H81.2217H82.6345C82.6345 159.518 82.6345 159.989 82.6345 160.93V164.176V167.433V168.835C82.6345 168.835 82.1636 168.835 81.2217 168.835H77.9756H74.7188H73.3168ZM94.0227 168.835C94.0227 168.835 94.0227 168.368 94.0227 167.433V164.176V160.93V159.518H95.4247H98.6815H101.928H103.34C103.34 159.518 103.34 159.989 103.34 160.93V164.176V167.433V168.835C103.34 168.835 102.869 168.835 101.928 168.835H98.6815H95.4247H94.0227ZM73.3168 163.659C73.3168 163.659 73.3168 163.192 73.3168 162.257V159V155.754V154.341H74.7188H77.9756H81.2217H82.6345C82.6345 154.341 82.6345 154.812 82.6345 155.754V159V162.257V163.659C82.6345 163.659 82.1636 163.659 81.2217 163.659H77.9756H74.7188H73.3168ZM94.0227 163.659C94.0227 163.659 94.0227 163.192 94.0227 162.257V159V155.754V154.341H95.4247H98.6815H101.928H103.34C103.34 154.341 103.34 154.812 103.34 155.754V159V162.257V163.659C103.34 163.659 102.869 163.659 101.928 163.659H98.6815H95.4247H94.0227ZM73.3168 158.482C73.3168 158.482 73.3168 158.015 73.3168 157.08V153.824V150.577V149.165H74.7188H77.9756H81.2217H82.6345C82.6345 149.165 82.6345 149.636 82.6345 150.577V153.824V157.08V158.482C82.6345 158.482 82.1636 158.482 81.2217 158.482H77.9756H74.7188H73.3168ZM94.0227 158.482C94.0227 158.482 94.0227 158.015 94.0227 157.08V153.824V150.577V149.165H95.4247H98.6815H101.928H103.34C103.34 149.165 103.34 149.636 103.34 150.577V153.824V157.08V158.482C103.34 158.482 102.869 158.482 101.928 158.482H98.6815H95.4247H94.0227ZM73.3168 153.306C73.3168 153.306 73.3168 152.839 73.3168 151.904V148.647V145.401V143.988H74.7188H77.9756H81.2217H82.6345C82.6345 143.988 82.6345 144.459 82.6345 145.401V148.647V151.904V153.306C82.6345 153.306 82.1636 153.306 81.2217 153.306H77.9756H74.7188H73.3168ZM78.4933 153.306C78.4933 153.306 78.4933 152.839 78.4933 151.904V148.647V145.401V143.988H79.8953H83.1521H86.3982H87.8109C87.8109 143.988 87.8109 144.459 87.8109 145.401V148.647V151.904V153.306C87.8109 153.306 87.34 153.306 86.3982 153.306H83.1521H79.8953H78.4933ZM83.6698 153.306C83.6698 153.306 83.6698 152.839 83.6698 151.904V148.647V145.401V143.988H85.0717H88.3286H91.5747H92.9874C92.9874 143.988 92.9874 144.459 92.9874 145.401V148.647V151.904V153.306C92.9874 153.306 92.5165 153.306 91.5747 153.306H88.3286H85.0717H83.6698ZM88.8462 153.306C88.8462 153.306 88.8462 152.839 88.8462 151.904V148.647V145.401V143.988H90.2482H93.5051H96.7511H98.1639C98.1639 143.988 98.1639 144.459 98.1639 145.401V148.647V151.904V153.306C98.1639 153.306 97.693 153.306 96.7511 153.306H93.5051H90.2482H88.8462ZM112.004 205.071C112.004 205.071 112.004 204.6 112.004 203.658V200.412V197.166V195.753H113.406H116.663H119.909H121.322C121.322 195.753 121.322 196.224 121.322 197.166V200.412V203.658V205.071C121.322 205.071 120.851 205.071 119.909 205.071H116.663H113.406H112.004ZM117.181 205.071C117.181 205.071 117.181 204.6 117.181 203.658V200.412V197.166V195.753H118.583H121.84H125.086H126.498C126.498 195.753 126.498 196.224 126.498 197.166V200.412V203.658V205.071C126.498 205.071 126.028 205.071 125.086 205.071H121.84H118.583H117.181ZM122.357 205.071C122.357 205.071 122.357 204.6 122.357 203.658V200.412V197.166V195.753H123.759H127.016H130.262H131.675C131.675 195.753 131.675 196.224 131.675 197.166V200.412V203.658V205.071C131.675 205.071 131.204 205.071 130.262 205.071H127.016H123.759H122.357ZM127.534 205.071C127.534 205.071 127.534 204.6 127.534 203.658V200.412V197.166V195.753H128.936H132.193H135.439H136.851C136.851 195.753 136.851 196.224 136.851 197.166V200.412V203.658V205.071C136.851 205.071 136.38 205.071 135.439 205.071H132.193H128.936H127.534ZM112.004 199.894C112.004 199.894 112.004 199.427 112.004 198.492V195.235V191.989V190.576H113.406H116.663H119.909H121.322C121.322 190.576 121.322 191.047 121.322 191.989V195.235V198.492V199.894C121.322 199.894 120.851 199.894 119.909 199.894H116.663H113.406H112.004ZM112.004 194.718C112.004 194.718 112.004 194.25 112.004 193.316V190.059V186.813V185.4H113.406H116.663H119.909H121.322C121.322 185.4 121.322 185.871 121.322 186.813V190.059V193.316V194.718C121.322 194.718 120.851 194.718 119.909 194.718H116.663H113.406H112.004ZM112.004 189.541C112.004 189.541 112.004 189.074 112.004 188.139V184.882V181.636V180.224H113.406H116.663H119.909H121.322C121.322 180.224 121.322 180.694 121.322 181.636V184.882V188.139V189.541C121.322 189.541 120.851 189.541 119.909 189.541H116.663H113.406H112.004ZM112.004 184.365C112.004 184.365 112.004 183.897 112.004 182.963V179.706V176.46V175.047H113.406H116.663H119.909H121.322C121.322 175.047 121.322 175.518 121.322 176.46V179.706V182.963V184.365C121.322 184.365 120.851 184.365 119.909 184.365H116.663H113.406H112.004ZM112.004 179.188C112.004 179.188 112.004 178.721 112.004 177.786V174.529V171.283V169.871H113.406H116.663H119.909H121.322C121.322 169.871 121.322 170.341 121.322 171.283V174.529V177.786V179.188C121.322 179.188 120.851 179.188 119.909 179.188H116.663H113.406H112.004ZM117.181 179.188C117.181 179.188 117.181 178.721 117.181 177.786V174.529V171.283V169.871H118.583H121.84H125.086H126.498C126.498 169.871 126.498 170.341 126.498 171.283V174.529V177.786V179.188C126.498 179.188 126.028 179.188 125.086 179.188H121.84H118.583H117.181ZM122.357 179.188C122.357 179.188 122.357 178.721 122.357 177.786V174.529V171.283V169.871H123.759H127.016H130.262H131.675C131.675 169.871 131.675 170.341 131.675 171.283V174.529V177.786V179.188C131.675 179.188 131.204 179.188 130.262 179.188H127.016H123.759H122.357ZM127.534 179.188C127.534 179.188 127.534 178.721 127.534 177.786V174.529V171.283V169.871H128.936H132.193H135.439H136.851C136.851 169.871 136.851 170.341 136.851 171.283V174.529V177.786V179.188C136.851 179.188 136.38 179.188 135.439 179.188H132.193H128.936H127.534ZM112.004 174.012C112.004 174.012 112.004 173.544 112.004 172.61V169.353V166.107V164.694H113.406H116.663H119.909H121.322C121.322 164.694 121.322 165.165 121.322 166.107V169.353V172.61V174.012C121.322 174.012 120.851 174.012 119.909 174.012H116.663H113.406H112.004ZM112.004 168.835C112.004 168.835 112.004 168.368 112.004 167.433V164.176V160.93V159.518H113.406H116.663H119.909H121.322C121.322 159.518 121.322 159.989 121.322 160.93V164.176V167.433V168.835C121.322 168.835 120.851 168.835 119.909 168.835H116.663H113.406H112.004ZM112.004 163.659C112.004 163.659 112.004 163.192 112.004 162.257V159V155.754V154.341H113.406H116.663H119.909H121.322C121.322 154.341 121.322 154.812 121.322 155.754V159V162.257V163.659C121.322 163.659 120.851 163.659 119.909 163.659H116.663H113.406H112.004ZM112.004 158.482C112.004 158.482 112.004 158.015 112.004 157.08V153.824V150.577V149.165H113.406H116.663H119.909H121.322C121.322 149.165 121.322 149.636 121.322 150.577V153.824V157.08V158.482C121.322 158.482 120.851 158.482 119.909 158.482H116.663H113.406H112.004ZM112.004 153.306C112.004 153.306 112.004 152.839 112.004 151.904V148.647V145.401V143.988H113.406H116.663H119.909H121.322C121.322 143.988 121.322 144.459 121.322 145.401V148.647V151.904V153.306C121.322 153.306 120.851 153.306 119.909 153.306H116.663H113.406H112.004ZM117.181 153.306C117.181 153.306 117.181 152.839 117.181 151.904V148.647V145.401V143.988H118.583H121.84H125.086H126.498C126.498 143.988 126.498 144.459 126.498 145.401V148.647V151.904V153.306C126.498 153.306 126.028 153.306 125.086 153.306H121.84H118.583H117.181ZM122.357 153.306C122.357 153.306 122.357 152.839 122.357 151.904V148.647V145.401V143.988H123.759H127.016H130.262H131.675C131.675 143.988 131.675 144.459 131.675 145.401V148.647V151.904V153.306C131.675 153.306 131.204 153.306 130.262 153.306H127.016H123.759H122.357ZM127.534 153.306C127.534 153.306 127.534 152.839 127.534 151.904V148.647V145.401V143.988H128.936H132.193H135.439H136.851C136.851 143.988 136.851 144.459 136.851 145.401V148.647V151.904V153.306C136.851 153.306 136.38 153.306 135.439 153.306H132.193H128.936H127.534ZM145.45 205.071C145.45 205.071 145.45 204.6 145.45 203.658V200.412V197.166V195.753H146.852H150.108H153.355H154.767C154.767 195.753 154.767 196.224 154.767 197.166V200.412V203.658V205.071C154.767 205.071 154.296 205.071 153.355 205.071H150.108H146.852H145.45ZM176.508 205.071C176.508 205.071 176.508 204.6 176.508 203.658V200.412V197.166V195.753H177.91H181.167H184.413H185.826C185.826 195.753 185.826 196.224 185.826 197.166V200.412V203.658V205.071C185.826 205.071 185.355 205.071 184.413 205.071H181.167H177.91H176.508ZM145.45 199.894C145.45 199.894 145.45 199.427 145.45 198.492V195.235V191.989V190.576H146.852H150.108H153.355H154.767C154.767 190.576 154.767 191.047 154.767 191.989V195.235V198.492V199.894C154.767 199.894 154.296 199.894 153.355 199.894H150.108H146.852H145.45ZM176.508 199.894C176.508 199.894 176.508 199.427 176.508 198.492V195.235V191.989V190.576H177.91H181.167H184.413H185.826C185.826 190.576 185.826 191.047 185.826 191.989V195.235V198.492V199.894C185.826 199.894 185.355 199.894 184.413 199.894H181.167H177.91H176.508ZM145.45 194.718C145.45 194.718 145.45 194.25 145.45 193.316V190.059V186.813V185.4H146.852H150.108H153.355H154.767C154.767 185.4 154.767 185.871 154.767 186.813V190.059V193.316V194.718C154.767 194.718 154.296 194.718 153.355 194.718H150.108H146.852H145.45ZM176.508 194.718C176.508 194.718 176.508 194.25 176.508 193.316V190.059V186.813V185.4H177.91H181.167H184.413H185.826C185.826 185.4 185.826 185.871 185.826 186.813V190.059V193.316V194.718C185.826 194.718 185.355 194.718 184.413 194.718H181.167H177.91H176.508ZM145.45 189.541C145.45 189.541 145.45 189.074 145.45 188.139V184.882V181.636V180.224H146.852H150.108H153.355H154.767C154.767 180.224 154.767 180.694 154.767 181.636V184.882V188.139V189.541C154.767 189.541 154.296 189.541 153.355 189.541H150.108H146.852H145.45ZM176.508 189.541C176.508 189.541 176.508 189.074 176.508 188.139V184.882V181.636V180.224H177.91H181.167H184.413H185.826C185.826 180.224 185.826 180.694 185.826 181.636V184.882V188.139V189.541C185.826 189.541 185.355 189.541 184.413 189.541H181.167H177.91H176.508ZM145.45 184.365C145.45 184.365 145.45 183.897 145.45 182.963V179.706V176.46V175.047H146.852H150.108H153.355H154.767C154.767 175.047 154.767 175.518 154.767 176.46V179.706V182.963V184.365C154.767 184.365 154.296 184.365 153.355 184.365H150.108H146.852H145.45ZM160.979 184.365C160.979 184.365 160.979 183.897 160.979 182.963V179.706V176.46V175.047H162.381H165.638H168.884H170.297C170.297 175.047 170.297 175.518 170.297 176.46V179.706V182.963V184.365C170.297 184.365 169.826 184.365 168.884 184.365H165.638H162.381H160.979ZM176.508 184.365C176.508 184.365 176.508 183.897 176.508 182.963V179.706V176.46V175.047H177.91H181.167H184.413H185.826C185.826 175.047 185.826 175.518 185.826 176.46V179.706V182.963V184.365C185.826 184.365 185.355 184.365 184.413 184.365H181.167H177.91H176.508ZM145.45 179.188C145.45 179.188 145.45 178.721 145.45 177.786V174.529V171.283V169.871H146.852H150.108H153.355H154.767C154.767 169.871 154.767 170.341 154.767 171.283V174.529V177.786V179.188C154.767 179.188 154.296 179.188 153.355 179.188H150.108H146.852H145.45ZM158.391 179.188C158.391 179.188 158.391 178.721 158.391 177.786V174.529V171.283V169.871H159.793H163.05H166.296H167.708C167.708 169.871 167.708 170.341 167.708 171.283V174.529V177.786V179.188C167.708 179.188 167.238 179.188 166.296 179.188H163.05H159.793H158.391ZM163.567 179.188C163.567 179.188 163.567 178.721 163.567 177.786V174.529V171.283V169.871H164.969H168.226H171.472H172.885C172.885 169.871 172.885 170.341 172.885 171.283V174.529V177.786V179.188C172.885 179.188 172.414 179.188 171.472 179.188H168.226H164.969H163.567ZM176.508 179.188C176.508 179.188 176.508 178.721 176.508 177.786V174.529V171.283V169.871H177.91H181.167H184.413H185.826C185.826 169.871 185.826 170.341 185.826 171.283V174.529V177.786V179.188C185.826 179.188 185.355 179.188 184.413 179.188H181.167H177.91H176.508ZM145.45 174.012C145.45 174.012 145.45 173.544 145.45 172.61V169.353V166.107V164.694H146.852H150.108H153.355H154.767C154.767 164.694 154.767 165.165 154.767 166.107V169.353V172.61V174.012C154.767 174.012 154.296 174.012 153.355 174.012H150.108H146.852H145.45ZM155.803 174.012C155.803 174.012 155.803 173.544 155.803 172.61V169.353V166.107V164.694H157.205H160.461H163.707H165.12C165.12 164.694 165.12 165.165 165.12 166.107V169.353V172.61V174.012C165.12 174.012 164.649 174.012 163.707 174.012H160.461H157.205H155.803ZM166.156 174.012C166.156 174.012 166.156 173.544 166.156 172.61V169.353V166.107V164.694H167.557H170.814H174.06H175.473C175.473 164.694 175.473 165.165 175.473 166.107V169.353V172.61V174.012C175.473 174.012 175.002 174.012 174.06 174.012H170.814H167.557H166.156ZM176.508 174.012C176.508 174.012 176.508 173.544 176.508 172.61V169.353V166.107V164.694H177.91H181.167H184.413H185.826C185.826 164.694 185.826 165.165 185.826 166.107V169.353V172.61V174.012C185.826 174.012 185.355 174.012 184.413 174.012H181.167H177.91H176.508ZM145.45 168.835C145.45 168.835 145.45 168.368 145.45 167.433V164.176V160.93V159.518H146.852H150.108H153.355H154.767C154.767 159.518 154.767 159.989 154.767 160.93V164.176V167.433V168.835C154.767 168.835 154.296 168.835 153.355 168.835H150.108H146.852H145.45ZM153.214 168.835C153.214 168.835 153.214 168.368 153.214 167.433V164.176V160.93V159.518H154.616H157.873H161.119H162.532C162.532 159.518 162.532 159.989 162.532 160.93V164.176V167.433V168.835C162.532 168.835 162.061 168.835 161.119 168.835H157.873H154.616H153.214ZM168.744 168.835C168.744 168.835 168.744 168.368 168.744 167.433V164.176V160.93V159.518H170.146H173.403H176.649H178.061C178.061 159.518 178.061 159.989 178.061 160.93V164.176V167.433V168.835C178.061 168.835 177.59 168.835 176.649 168.835H173.403H170.146H168.744ZM176.508 168.835C176.508 168.835 176.508 168.368 176.508 167.433V164.176V160.93V159.518H177.91H181.167H184.413H185.826C185.826 159.518 185.826 159.989 185.826 160.93V164.176V167.433V168.835C185.826 168.835 185.355 168.835 184.413 168.835H181.167H177.91H176.508ZM145.45 163.659C145.45 163.659 145.45 163.192 145.45 162.257V159V155.754V154.341H146.852H150.108H153.355H154.767C154.767 154.341 154.767 154.812 154.767 155.754V159V162.257V163.659C154.767 163.659 154.296 163.659 153.355 163.659H150.108H146.852H145.45ZM150.626 163.659C150.626 163.659 150.626 163.192 150.626 162.257V159V155.754V154.341H152.028H155.285H158.531H159.944C159.944 154.341 159.944 154.812 159.944 155.754V159V162.257V163.659C159.944 163.659 159.473 163.659 158.531 163.659H155.285H152.028H150.626ZM171.332 163.659C171.332 163.659 171.332 163.192 171.332 162.257V159V155.754V154.341H172.734H175.991H179.237H180.65C180.65 154.341 180.65 154.812 180.65 155.754V159V162.257V163.659C180.65 163.659 180.179 163.659 179.237 163.659H175.991H172.734H171.332ZM176.508 163.659C176.508 163.659 176.508 163.192 176.508 162.257V159V155.754V154.341H177.91H181.167H184.413H185.826C185.826 154.341 185.826 154.812 185.826 155.754V159V162.257V163.659C185.826 163.659 185.355 163.659 184.413 163.659H181.167H177.91H176.508ZM145.45 158.482C145.45 158.482 145.45 158.015 145.45 157.08V153.824V150.577V149.165H146.852H150.108H153.355H154.767C154.767 149.165 154.767 149.636 154.767 150.577V153.824V157.08V158.482C154.767 158.482 154.296 158.482 153.355 158.482H150.108H146.852H145.45ZM176.508 158.482C176.508 158.482 176.508 158.015 176.508 157.08V153.824V150.577V149.165H177.91H181.167H184.413H185.826C185.826 149.165 185.826 149.636 185.826 150.577V153.824V157.08V158.482C185.826 158.482 185.355 158.482 184.413 158.482H181.167H177.91H176.508ZM145.45 153.306C145.45 153.306 145.45 152.839 145.45 151.904V148.647V145.401V143.988H146.852H150.108H153.355H154.767C154.767 143.988 154.767 144.459 154.767 145.401V148.647V151.904V153.306C154.767 153.306 154.296 153.306 153.355 153.306H150.108H146.852H145.45ZM176.508 153.306C176.508 153.306 176.508 152.839 176.508 151.904V148.647V145.401V143.988H177.91H181.167H184.413H185.826C185.826 143.988 185.826 144.459 185.826 145.401V148.647V151.904V153.306C185.826 153.306 185.355 153.306 184.413 153.306H181.167H177.91H176.508ZM194.44 205.071C194.44 205.071 194.44 204.6 194.44 203.658V200.412V197.166V195.753H195.841H199.098H202.344H203.757C203.757 195.753 203.757 196.224 203.757 197.166V200.412V203.658V205.071C203.757 205.071 203.286 205.071 202.344 205.071H199.098H195.841H194.44ZM199.616 205.071C199.616 205.071 199.616 204.6 199.616 203.658V200.412V197.166V195.753H201.018H204.275H207.521H208.934C208.934 195.753 208.934 196.224 208.934 197.166V200.412V203.658V205.071C208.934 205.071 208.463 205.071 207.521 205.071H204.275H201.018H199.616ZM204.792 205.071C204.792 205.071 204.792 204.6 204.792 203.658V200.412V197.166V195.753H206.194H209.451H212.697H214.11C214.11 195.753 214.11 196.224 214.11 197.166V200.412V203.658V205.071C214.11 205.071 213.639 205.071 212.697 205.071H209.451H206.194H204.792ZM199.616 199.894C199.616 199.894 199.616 199.427 199.616 198.492V195.235V191.989V190.576H201.018H204.275H207.521H208.934C208.934 190.576 208.934 191.047 208.934 191.989V195.235V198.492V199.894C208.934 199.894 208.463 199.894 207.521 199.894H204.275H201.018H199.616ZM199.616 194.718C199.616 194.718 199.616 194.25 199.616 193.316V190.059V186.813V185.4H201.018H204.275H207.521H208.934C208.934 185.4 208.934 185.871 208.934 186.813V190.059V193.316V194.718C208.934 194.718 208.463 194.718 207.521 194.718H204.275H201.018H199.616ZM199.616 189.541C199.616 189.541 199.616 189.074 199.616 188.139V184.882V181.636V180.224H201.018H204.275H207.521H208.934C208.934 180.224 208.934 180.694 208.934 181.636V184.882V188.139V189.541C208.934 189.541 208.463 189.541 207.521 189.541H204.275H201.018H199.616ZM199.616 184.365C199.616 184.365 199.616 183.897 199.616 182.963V179.706V176.46V175.047H201.018H204.275H207.521H208.934C208.934 175.047 208.934 175.518 208.934 176.46V179.706V182.963V184.365C208.934 184.365 208.463 184.365 207.521 184.365H204.275H201.018H199.616ZM199.616 179.188C199.616 179.188 199.616 178.721 199.616 177.786V174.529V171.283V169.871H201.018H204.275H207.521H208.934C208.934 169.871 208.934 170.341 208.934 171.283V174.529V177.786V179.188C208.934 179.188 208.463 179.188 207.521 179.188H204.275H201.018H199.616ZM199.616 174.012C199.616 174.012 199.616 173.544 199.616 172.61V169.353V166.107V164.694H201.018H204.275H207.521H208.934C208.934 164.694 208.934 165.165 208.934 166.107V169.353V172.61V174.012C208.934 174.012 208.463 174.012 207.521 174.012H204.275H201.018H199.616ZM199.616 168.835C199.616 168.835 199.616 168.368 199.616 167.433V164.176V160.93V159.518H201.018H204.275H207.521H208.934C208.934 159.518 208.934 159.989 208.934 160.93V164.176V167.433V168.835C208.934 168.835 208.463 168.835 207.521 168.835H204.275H201.018H199.616ZM199.616 163.659C199.616 163.659 199.616 163.192 199.616 162.257V159V155.754V154.341H201.018H204.275H207.521H208.934C208.934 154.341 208.934 154.812 208.934 155.754V159V162.257V163.659C208.934 163.659 208.463 163.659 207.521 163.659H204.275H201.018H199.616ZM199.616 158.482C199.616 158.482 199.616 158.015 199.616 157.08V153.824V150.577V149.165H201.018H204.275H207.521H208.934C208.934 149.165 208.934 149.636 208.934 150.577V153.824V157.08V158.482C208.934 158.482 208.463 158.482 207.521 158.482H204.275H201.018H199.616ZM194.44 153.306C194.44 153.306 194.44 152.839 194.44 151.904V148.647V145.401V143.988H195.841H199.098H202.344H203.757C203.757 143.988 203.757 144.459 203.757 145.401V148.647V151.904V153.306C203.757 153.306 203.286 153.306 202.344 153.306H199.098H195.841H194.44ZM199.616 153.306C199.616 153.306 199.616 152.839 199.616 151.904V148.647V145.401V143.988H201.018H204.275H207.521H208.934C208.934 143.988 208.934 144.459 208.934 145.401V148.647V151.904V153.306C208.934 153.306 208.463 153.306 207.521 153.306H204.275H201.018H199.616ZM204.792 153.306C204.792 153.306 204.792 152.839 204.792 151.904V148.647V145.401V143.988H206.194H209.451H212.697H214.11C214.11 143.988 214.11 144.459 214.11 145.401V148.647V151.904V153.306C214.11 153.306 213.639 153.306 212.697 153.306H209.451H206.194H204.792ZM227.915 205.071C227.915 205.071 227.915 204.6 227.915 203.658V200.412V197.166V195.753H229.317H232.574H235.82H237.233C237.233 195.753 237.233 196.224 237.233 197.166V200.412V203.658V205.071C237.233 205.071 236.762 205.071 235.82 205.071H232.574H229.317H227.915ZM233.092 205.071C233.092 205.071 233.092 204.6 233.092 203.658V200.412V197.166V195.753H234.494H237.75H240.997H242.409C242.409 195.753 242.409 196.224 242.409 197.166V200.412V203.658V205.071C242.409 205.071 241.938 205.071 240.997 205.071H237.75H234.494H233.092ZM238.268 205.071C238.268 205.071 238.268 204.6 238.268 203.658V200.412V197.166V195.753H239.67H242.927H246.173H247.586C247.586 195.753 247.586 196.224 247.586 197.166V200.412V203.658V205.071C247.586 205.071 247.115 205.071 246.173 205.071H242.927H239.67H238.268ZM222.739 199.894C222.739 199.894 222.739 199.427 222.739 198.492V195.235V191.989V190.576H224.141H227.398H230.644H232.056C232.056 190.576 232.056 191.047 232.056 191.989V195.235V198.492V199.894C232.056 199.894 231.585 199.894 230.644 199.894H227.398H224.141H222.739ZM243.445 199.894C243.445 199.894 243.445 199.427 243.445 198.492V195.235V191.989V190.576H244.847H248.103H251.349H252.762C252.762 190.576 252.762 191.047 252.762 191.989V195.235V198.492V199.894C252.762 199.894 252.291 199.894 251.349 199.894H248.103H244.847H243.445ZM222.739 194.718C222.739 194.718 222.739 194.25 222.739 193.316V190.059V186.813V185.4H224.141H227.398H230.644H232.056C232.056 185.4 232.056 185.871 232.056 186.813V190.059V193.316V194.718C232.056 194.718 231.585 194.718 230.644 194.718H227.398H224.141H222.739ZM243.445 194.718C243.445 194.718 243.445 194.25 243.445 193.316V190.059V186.813V185.4H244.847H248.103H251.349H252.762C252.762 185.4 252.762 185.871 252.762 186.813V190.059V193.316V194.718C252.762 194.718 252.291 194.718 251.349 194.718H248.103H244.847H243.445ZM222.739 189.541C222.739 189.541 222.739 189.074 222.739 188.139V184.882V181.636V180.224H224.141H227.398H230.644H232.056C232.056 180.224 232.056 180.694 232.056 181.636V184.882V188.139V189.541C232.056 189.541 231.585 189.541 230.644 189.541H227.398H224.141H222.739ZM243.445 189.541C243.445 189.541 243.445 189.074 243.445 188.139V184.882V181.636V180.224H244.847H248.103H251.349H252.762C252.762 180.224 252.762 180.694 252.762 181.636V184.882V188.139V189.541C252.762 189.541 252.291 189.541 251.349 189.541H248.103H244.847H243.445ZM222.739 184.365C222.739 184.365 222.739 183.897 222.739 182.963V179.706V176.46V175.047H224.141H227.398H230.644H232.056C232.056 175.047 232.056 175.518 232.056 176.46V179.706V182.963V184.365C232.056 184.365 231.585 184.365 230.644 184.365H227.398H224.141H222.739ZM243.445 184.365C243.445 184.365 243.445 183.897 243.445 182.963V179.706V176.46V175.047H244.847H248.103H251.349H252.762C252.762 175.047 252.762 175.518 252.762 176.46V179.706V182.963V184.365C252.762 184.365 252.291 184.365 251.349 184.365H248.103H244.847H243.445ZM222.739 179.188C222.739 179.188 222.739 178.721 222.739 177.786V174.529V171.283V169.871H224.141H227.398H230.644H232.056C232.056 169.871 232.056 170.341 232.056 171.283V174.529V177.786V179.188C232.056 179.188 231.585 179.188 230.644 179.188H227.398H224.141H222.739ZM243.445 179.188C243.445 179.188 243.445 178.721 243.445 177.786V174.529V171.283V169.871H244.847H248.103H251.349H252.762C252.762 169.871 252.762 170.341 252.762 171.283V174.529V177.786V179.188C252.762 179.188 252.291 179.188 251.349 179.188H248.103H244.847H243.445ZM222.739 174.012C222.739 174.012 222.739 173.544 222.739 172.61V169.353V166.107V164.694H224.141H227.398H230.644H232.056C232.056 164.694 232.056 165.165 232.056 166.107V169.353V172.61V174.012C232.056 174.012 231.585 174.012 230.644 174.012H227.398H224.141H222.739ZM243.445 174.012C243.445 174.012 243.445 173.544 243.445 172.61V169.353V166.107V164.694H244.847H248.103H251.349H252.762C252.762 164.694 252.762 165.165 252.762 166.107V169.353V172.61V174.012C252.762 174.012 252.291 174.012 251.349 174.012H248.103H244.847H243.445ZM222.739 168.835C222.739 168.835 222.739 168.368 222.739 167.433V164.176V160.93V159.518H224.141H227.398H230.644H232.056C232.056 159.518 232.056 159.989 232.056 160.93V164.176V167.433V168.835C232.056 168.835 231.585 168.835 230.644 168.835H227.398H224.141H222.739ZM243.445 168.835C243.445 168.835 243.445 168.368 243.445 167.433V164.176V160.93V159.518H244.847H248.103H251.349H252.762C252.762 159.518 252.762 159.989 252.762 160.93V164.176V167.433V168.835C252.762 168.835 252.291 168.835 251.349 168.835H248.103H244.847H243.445ZM222.739 163.659C222.739 163.659 222.739 163.192 222.739 162.257V159V155.754V154.341H224.141H227.398H230.644H232.056C232.056 154.341 232.056 154.812 232.056 155.754V159V162.257V163.659C232.056 163.659 231.585 163.659 230.644 163.659H227.398H224.141H222.739ZM243.445 163.659C243.445 163.659 243.445 163.192 243.445 162.257V159V155.754V154.341H244.847H248.103H251.349H252.762C252.762 154.341 252.762 154.812 252.762 155.754V159V162.257V163.659C252.762 163.659 252.291 163.659 251.349 163.659H248.103H244.847H243.445ZM222.739 158.482C222.739 158.482 222.739 158.015 222.739 157.08V153.824V150.577V149.165H224.141H227.398H230.644H232.056C232.056 149.165 232.056 149.636 232.056 150.577V153.824V157.08V158.482C232.056 158.482 231.585 158.482 230.644 158.482H227.398H224.141H222.739ZM243.445 158.482C243.445 158.482 243.445 158.015 243.445 157.08V153.824V150.577V149.165H244.847H248.103H251.349H252.762C252.762 149.165 252.762 149.636 252.762 150.577V153.824V157.08V158.482C252.762 158.482 252.291 158.482 251.349 158.482H248.103H244.847H243.445ZM222.739 153.306C222.739 153.306 222.739 152.839 222.739 151.904V148.647V145.401V143.988H224.141H227.398H230.644H232.056C232.056 143.988 232.056 144.459 232.056 145.401V148.647V151.904V153.306C232.056 153.306 231.585 153.306 230.644 153.306H227.398H224.141H222.739ZM243.445 153.306C243.445 153.306 243.445 152.839 243.445 151.904V148.647V145.401V143.988H244.847H248.103H251.349H252.762C252.762 143.988 252.762 144.459 252.762 145.401V148.647V151.904V153.306C252.762 153.306 252.291 153.306 251.349 153.306H248.103H244.847H243.445ZM264.004 205.071C264.004 205.071 264.004 204.6 264.004 203.658V200.412V197.166V195.753H265.406H268.663H271.909H273.322C273.322 195.753 273.322 196.224 273.322 197.166V200.412V203.658V205.071C273.322 205.071 272.851 205.071 271.909 205.071H268.663H265.406H264.004ZM295.063 205.071C295.063 205.071 295.063 204.6 295.063 203.658V200.412V197.166V195.753H296.465H299.722H302.968H304.381C304.381 195.753 304.381 196.224 304.381 197.166V200.412V203.658V205.071C304.381 205.071 303.91 205.071 302.968 205.071H299.722H296.465H295.063ZM264.004 199.894C264.004 199.894 264.004 199.427 264.004 198.492V195.235V191.989V190.576H265.406H268.663H271.909H273.322C273.322 190.576 273.322 191.047 273.322 191.989V195.235V198.492V199.894C273.322 199.894 272.851 199.894 271.909 199.894H268.663H265.406H264.004ZM295.063 199.894C295.063 199.894 295.063 199.427 295.063 198.492V195.235V191.989V190.576H296.465H299.722H302.968H304.381C304.381 190.576 304.381 191.047 304.381 191.989V195.235V198.492V199.894C304.381 199.894 303.91 199.894 302.968 199.894H299.722H296.465H295.063ZM264.004 194.718C264.004 194.718 264.004 194.25 264.004 193.316V190.059V186.813V185.4H265.406H268.663H271.909H273.322C273.322 185.4 273.322 185.871 273.322 186.813V190.059V193.316V194.718C273.322 194.718 272.851 194.718 271.909 194.718H268.663H265.406H264.004ZM295.063 194.718C295.063 194.718 295.063 194.25 295.063 193.316V190.059V186.813V185.4H296.465H299.722H302.968H304.381C304.381 185.4 304.381 185.871 304.381 186.813V190.059V193.316V194.718C304.381 194.718 303.91 194.718 302.968 194.718H299.722H296.465H295.063ZM264.004 189.541C264.004 189.541 264.004 189.074 264.004 188.139V184.882V181.636V180.224H265.406H268.663H271.909H273.322C273.322 180.224 273.322 180.694 273.322 181.636V184.882V188.139V189.541C273.322 189.541 272.851 189.541 271.909 189.541H268.663H265.406H264.004ZM295.063 189.541C295.063 189.541 295.063 189.074 295.063 188.139V184.882V181.636V180.224H296.465H299.722H302.968H304.381C304.381 180.224 304.381 180.694 304.381 181.636V184.882V188.139V189.541C304.381 189.541 303.91 189.541 302.968 189.541H299.722H296.465H295.063ZM264.004 184.365C264.004 184.365 264.004 183.897 264.004 182.963V179.706V176.46V175.047H265.406H268.663H271.909H273.322C273.322 175.047 273.322 175.518 273.322 176.46V179.706V182.963V184.365C273.322 184.365 272.851 184.365 271.909 184.365H268.663H265.406H264.004ZM279.534 184.365C279.534 184.365 279.534 183.897 279.534 182.963V179.706V176.46V175.047H280.936H284.193H287.439H288.851C288.851 175.047 288.851 175.518 288.851 176.46V179.706V182.963V184.365C288.851 184.365 288.38 184.365 287.439 184.365H284.193H280.936H279.534ZM295.063 184.365C295.063 184.365 295.063 183.897 295.063 182.963V179.706V176.46V175.047H296.465H299.722H302.968H304.381C304.381 175.047 304.381 175.518 304.381 176.46V179.706V182.963V184.365C304.381 184.365 303.91 184.365 302.968 184.365H299.722H296.465H295.063ZM264.004 179.188C264.004 179.188 264.004 178.721 264.004 177.786V174.529V171.283V169.871H265.406H268.663H271.909H273.322C273.322 169.871 273.322 170.341 273.322 171.283V174.529V177.786V179.188C273.322 179.188 272.851 179.188 271.909 179.188H268.663H265.406H264.004ZM276.945 179.188C276.945 179.188 276.945 178.721 276.945 177.786V174.529V171.283V169.871H278.347H281.604H284.85H286.263C286.263 169.871 286.263 170.341 286.263 171.283V174.529V177.786V179.188C286.263 179.188 285.792 179.188 284.85 179.188H281.604H278.347H276.945ZM282.122 179.188C282.122 179.188 282.122 178.721 282.122 177.786V174.529V171.283V169.871H283.524H286.781H290.027H291.44C291.44 169.871 291.44 170.341 291.44 171.283V174.529V177.786V179.188C291.44 179.188 290.969 179.188 290.027 179.188H286.781H283.524H282.122ZM295.063 179.188C295.063 179.188 295.063 178.721 295.063 177.786V174.529V171.283V169.871H296.465H299.722H302.968H304.381C304.381 169.871 304.381 170.341 304.381 171.283V174.529V177.786V179.188C304.381 179.188 303.91 179.188 302.968 179.188H299.722H296.465H295.063ZM264.004 174.012C264.004 174.012 264.004 173.544 264.004 172.61V169.353V166.107V164.694H265.406H268.663H271.909H273.322C273.322 164.694 273.322 165.165 273.322 166.107V169.353V172.61V174.012C273.322 174.012 272.851 174.012 271.909 174.012H268.663H265.406H264.004ZM274.357 174.012C274.357 174.012 274.357 173.544 274.357 172.61V169.353V166.107V164.694H275.759H279.016H282.262H283.675C283.675 164.694 283.675 165.165 283.675 166.107V169.353V172.61V174.012C283.675 174.012 283.204 174.012 282.262 174.012H279.016H275.759H274.357ZM284.71 174.012C284.71 174.012 284.71 173.544 284.71 172.61V169.353V166.107V164.694H286.112H289.369H292.615H294.028C294.028 164.694 294.028 165.165 294.028 166.107V169.353V172.61V174.012C294.028 174.012 293.557 174.012 292.615 174.012H289.369H286.112H284.71ZM295.063 174.012C295.063 174.012 295.063 173.544 295.063 172.61V169.353V166.107V164.694H296.465H299.722H302.968H304.381C304.381 164.694 304.381 165.165 304.381 166.107V169.353V172.61V174.012C304.381 174.012 303.91 174.012 302.968 174.012H299.722H296.465H295.063ZM264.004 168.835C264.004 168.835 264.004 168.368 264.004 167.433V164.176V160.93V159.518H265.406H268.663H271.909H273.322C273.322 159.518 273.322 159.989 273.322 160.93V164.176V167.433V168.835C273.322 168.835 272.851 168.835 271.909 168.835H268.663H265.406H264.004ZM271.769 168.835C271.769 168.835 271.769 168.368 271.769 167.433V164.176V160.93V159.518H273.171H276.428H279.674H281.087C281.087 159.518 281.087 159.989 281.087 160.93V164.176V167.433V168.835C281.087 168.835 280.616 168.835 279.674 168.835H276.428H273.171H271.769ZM287.298 168.835C287.298 168.835 287.298 168.368 287.298 167.433V164.176V160.93V159.518H288.7H291.957H295.203H296.616C296.616 159.518 296.616 159.989 296.616 160.93V164.176V167.433V168.835C296.616 168.835 296.145 168.835 295.203 168.835H291.957H288.7H287.298ZM295.063 168.835C295.063 168.835 295.063 168.368 295.063 167.433V164.176V160.93V159.518H296.465H299.722H302.968H304.381C304.381 159.518 304.381 159.989 304.381 160.93V164.176V167.433V168.835C304.381 168.835 303.91 168.835 302.968 168.835H299.722H296.465H295.063ZM264.004 163.659C264.004 163.659 264.004 163.192 264.004 162.257V159V155.754V154.341H265.406H268.663H271.909H273.322C273.322 154.341 273.322 154.812 273.322 155.754V159V162.257V163.659C273.322 163.659 272.851 163.659 271.909 163.659H268.663H265.406H264.004ZM269.181 163.659C269.181 163.659 269.181 163.192 269.181 162.257V159V155.754V154.341H270.583H273.84H277.086H278.498C278.498 154.341 278.498 154.812 278.498 155.754V159V162.257V163.659C278.498 163.659 278.028 163.659 277.086 163.659H273.84H270.583H269.181ZM289.887 163.659C289.887 163.659 289.887 163.192 289.887 162.257V159V155.754V154.341H291.289H294.545H297.792H299.204C299.204 154.341 299.204 154.812 299.204 155.754V159V162.257V163.659C299.204 163.659 298.733 163.659 297.792 163.659H294.545H291.289H289.887ZM295.063 163.659C295.063 163.659 295.063 163.192 295.063 162.257V159V155.754V154.341H296.465H299.722H302.968H304.381C304.381 154.341 304.381 154.812 304.381 155.754V159V162.257V163.659C304.381 163.659 303.91 163.659 302.968 163.659H299.722H296.465H295.063ZM264.004 158.482C264.004 158.482 264.004 158.015 264.004 157.08V153.824V150.577V149.165H265.406H268.663H271.909H273.322C273.322 149.165 273.322 149.636 273.322 150.577V153.824V157.08V158.482C273.322 158.482 272.851 158.482 271.909 158.482H268.663H265.406H264.004ZM295.063 158.482C295.063 158.482 295.063 158.015 295.063 157.08V153.824V150.577V149.165H296.465H299.722H302.968H304.381C304.381 149.165 304.381 149.636 304.381 150.577V153.824V157.08V158.482C304.381 158.482 303.91 158.482 302.968 158.482H299.722H296.465H295.063ZM264.004 153.306C264.004 153.306 264.004 152.839 264.004 151.904V148.647V145.401V143.988H265.406H268.663H271.909H273.322C273.322 143.988 273.322 144.459 273.322 145.401V148.647V151.904V153.306C273.322 153.306 272.851 153.306 271.909 153.306H268.663H265.406H264.004ZM295.063 153.306C295.063 153.306 295.063 152.839 295.063 151.904V148.647V145.401V143.988H296.465H299.722H302.968H304.381C304.381 143.988 304.381 144.459 304.381 145.401V148.647V151.904V153.306C304.381 153.306 303.91 153.306 302.968 153.306H299.722H296.465H295.063Z" fill="white"/>
<defs>
<clipPath id="clip0_361_64261">
<rect width="269" height="110" fill="white" transform="translate(35)"/>
</clipPath>
</defs>
</svg>
