<svg width="30" height="30" viewBox="0 0 30 30" fill="none" xmlns="http://www.w3.org/2000/svg">
<path d="M15.0001 2.5C12.6795 2.5 10.4539 3.42187 8.81291 5.06282C7.17197 6.70376 6.2501 8.92936 6.2501 11.25V15.66C6.25028 15.8539 6.20534 16.0452 6.11885 16.2188L3.9726 20.51C3.86775 20.7197 3.81825 20.9526 3.82878 21.1868C3.83931 21.421 3.90954 21.6485 4.03278 21.8479C4.15602 22.0473 4.32819 22.2119 4.53293 22.326C4.73767 22.4401 4.96819 22.5 5.2026 22.5H24.7976C25.032 22.5 25.2625 22.4401 25.4673 22.326C25.672 22.2119 25.8442 22.0473 25.9674 21.8479C26.0907 21.6485 26.1609 21.421 26.1714 21.1868C26.1819 20.9526 26.1324 20.7197 26.0276 20.51L23.8826 16.2188C23.7957 16.0453 23.7503 15.854 23.7501 15.66V11.25C23.7501 8.92936 22.8282 6.70376 21.1873 5.06282C19.5463 3.42187 17.3207 2.5 15.0001 2.5ZM15.0001 26.25C14.2243 26.2502 13.4676 26.0099 12.834 25.5622C12.2005 25.1145 11.7214 24.4813 11.4626 23.75H18.5376C18.2788 24.4813 17.7997 25.1145 17.1662 25.5622C16.5326 26.0099 15.7759 26.2502 15.0001 26.25Z" fill="#FFC931"/>
</svg>
