<svg width="20" height="20" viewBox="0 0 20 20" fill="none" xmlns="http://www.w3.org/2000/svg">
<path d="M10 20C4.47719 20 0 15.5228 0 10C0 4.47688 4.47719 0 10 0C15.5231 0 20 4.47688 20 10C20 15.5228 15.5231 20 10 20ZM10 1.23031C5.17531 1.23031 1.25 5.17531 1.25 10C1.25 14.8247 5.17531 18.75 10 18.75C14.8247 18.75 18.75 14.8247 18.75 10C18.75 5.17537 14.8247 1.23031 10 1.23031ZM14.375 10.625H10.625V14.375C10.625 14.72 10.345 15 10 15C9.655 15 9.375 14.72 9.375 14.375V10.625H5.625C5.28 10.625 5 10.345 5 10C5 9.655 5.28 9.375 5.625 9.375H9.375V5.625C9.375 5.28 9.655 5 10 5C10.345 5 10.625 5.28 10.625 5.625V9.375H14.375C14.72 9.375 15 9.655 15 10C15 10.345 14.72 10.625 14.375 10.625Z" fill="black"/>
</svg>
