<svg width="15" height="15" viewBox="0 0 15 15" fill="none" xmlns="http://www.w3.org/2000/svg">
<path d="M13.5 7.50006L7.74302 13.2571C6.94386 14.0357 5.87018 14.4682 4.75445 14.4609C3.63873 14.4537 2.57076 14.0072 1.78181 13.2183C0.992855 12.4293 0.546413 11.3614 0.539152 10.2456C0.531892 9.1299 0.964398 8.05622 1.74302 7.25706L7.67202 1.32806C8.20245 0.797628 8.92187 0.499634 9.67202 0.499634C10.4222 0.499634 11.1416 0.797628 11.672 1.32806C12.2025 1.85849 12.5004 2.57792 12.5004 3.32806C12.5004 4.07821 12.2025 4.79763 11.672 5.32806L5.91402 11.0861C5.6488 11.3513 5.28909 11.5003 4.91402 11.5003C4.53894 11.5003 4.17923 11.3513 3.91402 11.0861C3.6488 10.8208 3.4998 10.4611 3.4998 10.0861C3.4998 9.71099 3.6488 9.35128 3.91402 9.08606L9.50002 3.50006" stroke="#AEAEAE"/>
</svg>
