<?xml version="1.0" encoding="utf-8"?>
<!-- Generator: Adobe Illustrator 19.2.1, SVG Export Plug-In . SVG Version: 6.00 Build 0)  -->
<svg version="1.1" id="Слой_1" xmlns="http://www.w3.org/2000/svg" xmlns:xlink="http://www.w3.org/1999/xlink" x="0px" y="0px"
	 viewBox="0 0 12 12" style="enable-background:new 0 0 12 12;" xml:space="preserve">
<style type="text/css">
	.st0{fill:#7F7F7F;}
</style>
<path d="M1.4,11.7c-0.1,0-0.2,0-0.3-0.1c-0.2-0.1-0.3-0.2-0.4-0.3c-0.1-0.1-0.1-0.3-0.1-0.5V2.7c0-0.4,0.2-0.8,0.4-1.1S1.6,1.2,2,1.2h8c0.4,0,0.8,0.2,1.1,0.4s0.4,0.7,0.4,1.1v6c0,0.4-0.2,0.8-0.4,1.1s-0.7,0.4-1.1,0.4H3.4c-0.1,0-0.3,0.1-0.4,0.1L2,11.5c-0.1,0.1-0.3,0.2-0.4,0.2C1.5,11.7,1.4,11.7,1.4,11.7z M1.5,10.9L1.5,10.9L1.5,10.9L1.5,10.9z M2,2.2c-0.1,0-0.3,0.1-0.4,0.1S1.5,2.6,1.5,2.7v7.8l0.9-0.9C2.6,9.4,3,9.2,3.4,9.2H10c0.1,0,0.3-0.1,0.4-0.1s0.1-0.2,0.1-0.4v-6c0-0.1-0.1-0.3-0.1-0.4c-0.1-0.1-0.2-0.1-0.4-0.1H2z M8,6.2C7.7,6.2,7.5,6,7.5,5.7S7.7,5.2,8,5.2h0c0.3,0,0.5,0.2,0.5,0.5S8.3,6.2,8,6.2z M6,6.2C5.7,6.2,5.5,6,5.5,5.7S5.7,5.2,6,5.2h0c0.3,0,0.5,0.2,0.5,0.5S6.3,6.2,6,6.2z M4,6.2C3.7,6.2,3.5,6,3.5,5.7S3.7,5.2,4,5.2h0c0.3,0,0.5,0.2,0.5,0.5S4.3,6.2,4,6.2z"/>
</svg>
