<svg width="18" height="18" viewBox="0 0 18 18" fill="none" xmlns="http://www.w3.org/2000/svg">
<path fill-rule="evenodd" clip-rule="evenodd" d="M15.0525 11.8125C16.1771 11.6944 16.993 10.6871 16.875 9.5625V6.1875C16.875 4.13437 15.9975 1.6875 11.8125 1.6875H1.125V9.5625H4.75875L6.75 12.5831L7.3125 16.1494V16.2169C7.39946 16.5938 7.73016 16.8644 8.11688 16.875H9C9.142 16.8919 9.2855 16.8919 9.4275 16.875C10.5521 16.7569 11.368 15.7496 11.25 14.625V11.8125H14.625C14.767 11.8294 14.9105 11.8294 15.0525 11.8125ZM4.5 8.4375H2.25V2.8125H4.5V8.4375ZM15.75 9.5625C15.75 10.3725 15.435 10.6875 14.625 10.6875H10.125V14.625C10.125 15.435 9.81 15.75 9 15.75H8.36438L8.28562 15.1875L7.875 12.1669L5.625 8.83125V2.8125H11.8125C14.5012 2.8125 15.75 3.88687 15.75 6.1875V9.5625Z" fill="#BF0505"/>
</svg>
