<?xml version="1.0" encoding="utf-8"?>
<!-- Generator: Adobe Illustrator 19.2.1, SVG Export Plug-In . SVG Version: 6.00 Build 0)  -->
<svg version="1.1" id="Слой_1" xmlns="http://www.w3.org/2000/svg" xmlns:xlink="http://www.w3.org/1999/xlink" x="0px" y="0px"
	 viewBox="0 0 24 24" style="enable-background:new 0 0 24 24;" xml:space="preserve">
<path d="M12,19.7c-2.3,0-4.5-0.7-6.4-1.9c-1.9-1.3-3.4-3.1-4.2-5.2c0,0,0,0,0,0c-0.1-0.4-0.1-0.8,0-1.2c0.9-2.1,2.3-3.9,4.2-5.2C7.5,4.9,9.7,4.3,12,4.3s4.5,0.7,6.4,1.9c1.9,1.3,3.4,3.1,4.2,5.2c0.2,0.4,0.2,0.9,0,1.2c-0.9,2.1-2.3,3.9-4.2,5.2C16.5,19.1,14.3,19.7,12,19.7z M2.8,12.1c0.8,1.8,2,3.4,3.7,4.5c3.3,2.2,7.8,2.2,11.1,0c1.7-1.1,2.9-2.7,3.7-4.5c0,0,0-0.1,0-0.1c-0.7-1.8-2-3.4-3.7-4.5c-3.3-2.2-7.8-2.2-11.1,0c-1.7,1.1-2.9,2.7-3.7,4.5C2.7,12,2.7,12,2.8,12.1z"/>
<path d="M12,15.8c-2.1,0-3.8-1.7-3.8-3.8c0-2.1,1.7-3.8,3.8-3.8c2.1,0,3.8,1.7,3.8,3.8C15.8,14.1,14.1,15.8,12,15.8z M12,9.8c-1.2,0-2.3,1-2.3,2.3c0,1.2,1,2.3,2.3,2.3c1.2,0,2.3-1,2.3-2.3C14.3,10.8,13.2,9.8,12,9.8z"/>
</svg>
