<svg width="16" height="16" viewBox="0 0 16 16" fill="none" xmlns="http://www.w3.org/2000/svg">
<path d="M14.6606 8.12463C14.6606 7.57837 14.6152 7.17974 14.517 6.76636H8.13306V9.2319H11.8803C11.8048 9.84463 11.3968 10.7674 10.4902 11.3874L10.4775 11.47L12.496 12.9979L12.6358 13.0115C13.9201 11.8525 14.6606 10.1473 14.6606 8.12463Z" fill="white"/>
<path d="M8.13306 14.6208C9.96889 14.6208 11.5101 14.0302 12.6358 13.0115L10.4902 11.3875C9.91602 11.7787 9.1454 12.0518 8.13306 12.0518C6.33498 12.0518 4.80889 10.8929 4.26488 9.29102L4.18514 9.29763L2.08629 10.8848L2.05884 10.9593C3.17696 13.1296 5.47368 14.6208 8.13306 14.6208Z" fill="white"/>
<path d="M4.26468 9.29105C4.12113 8.87767 4.03806 8.43472 4.03806 7.97706C4.03806 7.51935 4.12113 7.07645 4.25712 6.66306L4.25332 6.57502L2.12817 4.9624L2.05863 4.99472C1.5978 5.89533 1.33337 6.90668 1.33337 7.97706C1.33337 9.04744 1.5978 10.0587 2.05863 10.9594L4.26468 9.29105Z" fill="white"/>
<path d="M8.13306 3.90216C9.40983 3.90216 10.2711 4.44104 10.7622 4.89137L12.6811 3.06063C11.5026 1.99025 9.96889 1.33325 8.13306 1.33325C5.47368 1.33325 3.17696 2.8244 2.05884 4.99468L4.25733 6.66302C4.80889 5.06114 6.33498 3.90216 8.13306 3.90216Z" fill="white"/>
</svg>
