<?xml version="1.0" encoding="utf-8"?>
<!-- Generator: Adobe Illustrator 19.2.1, SVG Export Plug-In . SVG Version: 6.00 Build 0)  -->
<svg version="1.1" id="Слой_1" xmlns="http://www.w3.org/2000/svg" xmlns:xlink="http://www.w3.org/1999/xlink" x="0px" y="0px"
	 viewBox="0 0 41 41" style="enable-background:new 0 0 41 41;" xml:space="preserve">
<style type="text/css">
	.st0{fill:#F3C547;}
</style>
<path d="M2.4,29.8h3V16.2h-3V29.8z M3.9,14.4c0.9,0,1.7-0.8,1.7-1.7c0-1-0.7-1.7-1.7-1.7c-0.9,0-1.7,0.8-1.7,1.7C2.3,13.6,3,14.4,3.9,14.4z M15.5,11c-5.1,0-8.3,3.7-8.3,9.6c0,5.9,3.2,9.6,8.3,9.6c5.1,0,8.3-3.7,8.3-9.6C23.8,14.6,20.6,11,15.5,11 M15.5,13.8c3.1,0,5.1,2.6,5.1,6.7c0,4.1-2,6.7-5.1,6.7c-3.1,0-5.1-2.6-5.1-6.7C10.4,16.4,12.4,13.8,15.5,13.8 M25,24.6c0.1,3.4,2.8,5.5,6.8,5.5c4.2,0,6.9-2.2,6.9-5.7c0-2.8-1.5-4.3-5-5.2l-2-0.5c-2.1-0.5-3-1.3-3-2.5c0-1.5,1.3-2.6,3.3-2.6c2,0,3.4,1,3.5,2.8h3C38.4,13.2,35.8,11,32,11c-3.8,0-6.5,2.2-6.5,5.5c0,2.6,1.5,4.3,4.7,5.1l2.3,0.6c2.2,0.6,3.1,1.3,3.1,2.7c0,1.5-1.5,2.6-3.6,2.6c-2.1,0-3.7-1.1-3.9-2.8L25,24.6z"/>
</svg>
