<svg width="18" height="18" viewBox="0 0 18 18" fill="none" xmlns="http://www.w3.org/2000/svg">
<path fill-rule="evenodd" clip-rule="evenodd" d="M14.625 6.18752H11.25V3.37502C11.368 2.25044 10.5521 1.24311 9.4275 1.12502C9.2855 1.10815 9.142 1.10815 9 1.12502H8.11688C7.73016 1.13562 7.39946 1.40619 7.3125 1.78315V1.85065L6.75 5.4169L4.75875 8.43752H1.125V16.3125H11.8125C15.9975 16.3125 16.875 13.8656 16.875 11.8125V8.43752C16.993 7.31294 16.1771 6.30561 15.0525 6.18752C14.9105 6.17065 14.767 6.17065 14.625 6.18752ZM4.5 15.1875H2.25V9.56252H4.5V15.1875ZM15.75 11.8125C15.75 14.1131 14.5012 15.1875 11.8125 15.1875H5.625V9.16877L7.875 5.83315L8.28562 2.81252L8.36437 2.25002H9C9.81 2.25002 10.125 2.56502 10.125 3.37502V7.31252H14.625C15.435 7.31252 15.75 7.62752 15.75 8.43752V11.8125Z" fill="#148C00"/>
</svg>
