<?xml version="1.0" encoding="utf-8"?>
<!-- Generator: Adobe Illustrator 19.2.1, SVG Export Plug-In . SVG Version: 6.00 Build 0)  -->
<svg version="1.1" id="Слой_1" xmlns="http://www.w3.org/2000/svg" xmlns:xlink="http://www.w3.org/1999/xlink" x="0px" y="0px"
	 viewBox="0 0 33 33" style="enable-background:new 0 0 33 33;" xml:space="preserve">
<path d="M30,23.8c-0.7,1.6-1.1,2.4-2,3.9c-1.3,2-3.2,4.5-5.5,4.6c-2,0-2.6-1.4-5.4-1.3c-2.8,0-3.4,1.4-5.5,1.3c-2.4,0-4.1-2.2-5.5-4.3c-3.7-5.7-4.1-12.3-1.8-15.8c1.6-2.5,4.2-4,6.6-4s4,1.4,6,1.4c1.9,0,3.2-1.4,6-1.4c2.1,0,4.4,1.2,6,3.2C23.8,14.2,24.6,21.8,30,23.8z M20.9,5.8c1.1-1.3,1.8-3.2,1.5-5.1c-1.7,0.1-3.6,1.2-4.8,2.6c-1.1,1.3-1.9,3.1-1.6,4.9C17.9,8.3,19.8,7.2,20.9,5.8z"/>
</svg>
