<svg width="20" height="20" viewBox="0 0 20 20" fill="none" xmlns="http://www.w3.org/2000/svg">
<path d="M13.7774 8.6718C14.8656 7.44412 15.939 6.23142 17.0272 5.00374C17.7428 5.81221 18.4547 6.6132 19.1667 7.41792C16.437 10.5021 13.711 13.5788 10.974 16.6667C10.2547 15.8545 9.55014 15.0572 8.83452 14.2525C9.76777 13.2007 10.6936 12.1527 11.6306 11.0935C11.258 10.6705 10.8891 10.2551 10.5092 9.82087C9.57227 10.8764 8.64639 11.9207 7.70946 12.9799C6.77621 11.9244 5.85402 10.8839 4.92077 9.83585C3.98752 10.8876 3.06534 11.9319 2.12102 12.9949C1.41279 12.1939 0.711926 11.4004 0 10.5957C1.65624 8.72794 3.30142 6.87146 4.95397 5.00374C5.87984 6.04802 6.79834 7.0848 7.73528 8.14405C8.66853 7.09229 9.59071 6.05176 10.524 5C11.6048 6.22393 12.6819 7.43664 13.7774 8.6718Z" fill="black"/>
</svg>
