<svg width="100" height="100" viewBox="0 0 100 100" fill="none" xmlns="http://www.w3.org/2000/svg">
<path d="M39.5833 64.9333V35.0667C39.5839 34.693 39.685 34.3264 39.876 34.0052C40.067 33.684 40.3409 33.4201 40.669 33.2412C40.997 33.0623 41.3672 32.9749 41.7406 32.9881C42.1141 33.0014 42.4771 33.1149 42.7916 33.3167L66.0249 48.2459C66.3191 48.4343 66.5612 48.6938 66.7288 49.0003C66.8965 49.3069 66.9843 49.6506 66.9843 50C66.9843 50.3494 66.8965 50.6932 66.7288 50.9997C66.5612 51.3062 66.3191 51.5657 66.0249 51.7542L42.7916 66.6875C42.4771 66.8893 42.1141 67.0028 41.7406 67.0161C41.3672 67.0294 40.997 66.9419 40.669 66.763C40.3409 66.5841 40.067 66.3202 39.876 65.999C39.685 65.6778 39.5839 65.3112 39.5833 64.9375V64.9333Z" fill="white"/>
<path d="M4.16675 50C4.16675 24.6875 24.6876 4.16666 50.0001 4.16666C75.3126 4.16666 95.8334 24.6875 95.8334 50C95.8334 75.3125 75.3126 95.8333 50.0001 95.8333C24.6876 95.8333 4.16675 75.3125 4.16675 50ZM50.0001 10.4167C39.5019 10.4167 29.4338 14.587 22.0104 22.0103C14.5871 29.4337 10.4167 39.5018 10.4167 50C10.4167 60.4981 14.5871 70.5663 22.0104 77.9896C29.4338 85.4129 39.5019 89.5833 50.0001 89.5833C60.4982 89.5833 70.5664 85.4129 77.9897 77.9896C85.413 70.5663 89.5834 60.4981 89.5834 50C89.5834 39.5018 85.413 29.4337 77.9897 22.0103C70.5664 14.587 60.4982 10.4167 50.0001 10.4167Z" fill="white"/>
</svg>
