<svg width="21" height="21" viewBox="0 0 21 21" fill="none" xmlns="http://www.w3.org/2000/svg">
<path d="M20.2645 19.207L14.602 13.5145C17.414 10.1216 17.0631 5.11779 13.8051 2.15056C10.5471 -0.816669 5.53238 -0.699622 2.41638 2.41638C-0.699622 5.53238 -0.816669 10.5471 2.15056 13.8051C5.11779 17.0631 10.1216 17.414 13.5145 14.602L19.207 20.2645L20.2645 19.207ZM1.5145 8.2645C1.5145 4.53658 4.53657 1.5145 8.2645 1.5145C11.9924 1.5145 15.0145 4.53658 15.0145 8.2645C15.0145 11.9924 11.9924 15.0145 8.2645 15.0145C4.53657 15.0145 1.5145 11.9924 1.5145 8.2645Z"/>
</svg>
