<svg width="20" height="20" viewBox="0 0 20 20" fill="none" xmlns="http://www.w3.org/2000/svg">
<path d="M18.4708 8.5621C18.1036 6.83357 17.265 5.35371 15.9368 4.1771C13.8986 2.35153 11.5054 1.67831 8.79398 2.13925C7.4107 2.37579 6.18044 2.96409 5.09707 3.84352C3.61586 5.05046 2.64879 6.59097 2.21422 8.44687C2.11629 8.84109 2.06733 9.24745 2 9.64168C2.05509 9.672 2.08569 9.68413 2.11629 9.69626C3.54242 10.2846 4.96854 10.8729 6.39466 11.4612C6.44363 11.4794 6.5232 11.4733 6.56604 11.443C6.95777 11.2065 7.3801 11.0912 7.83915 11.0852C7.89424 11.0852 7.96156 11.0488 7.99217 11.0124C8.6226 10.1087 9.24691 9.205 9.8651 8.29524C9.90182 8.24066 9.91407 8.17394 9.92631 8.10723C9.97527 7.81611 9.98139 7.51286 10.0732 7.23993C10.4772 6.03906 11.3096 5.28093 12.5643 5.07472C13.868 4.86851 14.9392 5.34158 15.6736 6.42722C16.3592 7.44008 16.4143 8.53784 15.8511 9.62348C15.2819 10.7212 14.3332 11.2732 13.0846 11.3278C13.0295 11.3278 12.9622 11.3459 12.9193 11.3763C12.0196 12.0131 11.126 12.6499 10.2323 13.2928C10.1956 13.3171 10.1711 13.3777 10.165 13.4262C10.1405 13.6021 10.1405 13.778 10.1099 13.9539C9.91407 14.985 8.93475 15.7977 7.88199 15.8159C6.76191 15.8341 5.81932 15.1426 5.5194 14.057C5.4888 13.9478 5.43371 13.8993 5.33578 13.8569C4.58906 13.5536 3.84233 13.2382 3.09561 12.935C2.83854 12.8258 2.58147 12.7227 2.29991 12.6075C2.31828 12.6803 2.33052 12.7288 2.34276 12.7773C2.80793 14.2511 3.60974 15.5187 4.77268 16.5497C6.20492 17.8173 7.88199 18.5148 9.79777 18.6482C10.875 18.721 11.9339 18.5876 12.9561 18.2358C15.0004 17.5323 16.5611 16.2404 17.6078 14.3603C18.6299 12.5347 18.8993 10.5939 18.4708 8.5621Z" fill="black"/>
<path d="M16.9639 8.99899C16.97 7.86484 16.0397 6.91869 14.9073 6.91263C13.7505 6.90656 12.7957 7.82845 12.7896 8.96867C12.7835 10.1453 13.6954 11.0854 14.8461 11.0914C16.0274 11.0975 16.9578 10.1756 16.9639 8.99899ZM13.3037 8.98686C13.3037 8.12563 14.026 7.40996 14.889 7.41602C15.752 7.42209 16.4559 8.12563 16.4559 8.99293C16.4559 9.87236 15.7581 10.5698 14.8706 10.5759C14.0137 10.582 13.2976 9.85416 13.3037 8.98686Z" fill="black"/>
<path d="M8.45356 16.6674C8.21485 16.6371 7.98226 16.5279 7.7558 16.443C7.53545 16.3642 7.32123 16.2671 7.08252 16.1701C7.45588 17.0253 8.56373 17.4013 9.42675 16.9767C10.351 16.5219 10.706 15.3938 10.1918 14.5083C9.67158 13.6107 8.62494 13.4772 8.07407 13.7441C8.41683 13.8836 8.75347 14.0231 9.09011 14.1686C9.45735 14.3203 9.70218 14.5871 9.83071 14.9571C10.1429 15.8547 9.39614 16.7827 8.45356 16.6674Z" fill="black"/>
</svg>
