<?xml version="1.0" encoding="utf-8"?>
<!-- Generator: Adobe Illustrator 19.2.1, SVG Export Plug-In . SVG Version: 6.00 Build 0)  -->
<svg version="1.1" id="Слой_1" xmlns="http://www.w3.org/2000/svg" xmlns:xlink="http://www.w3.org/1999/xlink" x="0px" y="0px"
	 viewBox="0 0 16 16" style="enable-background:new 0 0 16 16;" xml:space="preserve">
<style type="text/css">
	.st0{fill:#FFFFFF;}
</style>
<path d="M15.1,4.4c0.1-0.3,0-0.6-0.5-0.6H13c-0.4,0-0.6,0.2-0.7,0.4c0,0-0.8,1.9-2,3.1C9.9,7.8,9.7,7.9,9.5,7.9c-0.1,0-0.3-0.1-0.3-0.4v-3c0-0.4-0.1-0.6-0.5-0.6H6.2C6,3.9,5.8,4,5.8,4.2c0,0.4,0.6,0.5,0.7,1.5v2.2c0,0.5-0.1,0.6-0.3,0.6c-0.6,0-1.9-1.9-2.7-4.1C3.3,4,3.1,3.9,2.7,3.9H1.1c-0.5,0-0.6,0.2-0.6,0.4c0,0.4,0.6,2.4,2.6,5.1c1.4,1.8,3.3,2.8,5,2.8c1,0,1.2-0.2,1.2-0.6v-1.4c0-0.4,0.1-0.5,0.4-0.5c0.2,0,0.7,0.1,1.6,1c1.1,1,1.3,1.5,1.9,1.5h1.6c0.5,0,0.7-0.2,0.6-0.6c-0.1-0.4-0.7-1-1.4-1.8c-0.4-0.4-1-0.9-1.1-1.1c-0.2-0.3-0.2-0.4,0-0.7C12.9,7.9,14.9,5.3,15.1,4.4z"/>
</svg>
