<svg width="20" height="20" viewBox="0 0 20 20" fill="none" xmlns="http://www.w3.org/2000/svg">
<path d="M17.92 15.3175H16.0183C15.2992 15.3175 15.0825 14.735 13.7933 13.445C12.6667 12.3591 12.1908 12.2241 11.9058 12.2241C11.5117 12.2241 11.4042 12.3325 11.4042 12.875V14.585C11.4042 15.0475 11.2542 15.3183 10.0458 15.3183C8.87358 15.2395 7.7368 14.8834 6.72914 14.2792C5.72148 13.6751 4.87177 12.8402 4.25 11.8433C2.77366 10.0058 1.74642 7.84919 1.25 5.54495C1.25 5.25995 1.35833 5.00162 1.90167 5.00162H3.80167C4.29 5.00162 4.46583 5.21912 4.6575 5.72162C5.58 8.43662 7.15417 10.7983 7.79333 10.7983C8.03833 10.7983 8.145 10.69 8.145 10.0791V7.28245C8.06417 6.00662 7.38667 5.89912 7.38667 5.43745C7.39524 5.31565 7.45095 5.20199 7.54198 5.12061C7.63301 5.03923 7.75217 4.99655 7.87417 5.00162H10.8608C11.2692 5.00162 11.4042 5.20495 11.4042 5.69329V9.46829C11.4042 9.87579 11.5792 10.0108 11.7025 10.0108C11.9475 10.0108 12.1358 9.87579 12.585 9.42745C13.5478 8.25327 14.3344 6.94509 14.92 5.54412C14.9799 5.37591 15.0933 5.23193 15.2427 5.13413C15.3921 5.03634 15.5694 4.99009 15.7475 5.00245H17.6483C18.2183 5.00245 18.3392 5.28745 18.2183 5.69412C17.527 7.2428 16.6715 8.71287 15.6667 10.0791C15.4617 10.3916 15.38 10.5541 15.6667 10.9208C15.855 11.2058 16.5217 11.7625 16.9692 12.2916C17.6208 12.9416 18.1617 13.6933 18.5708 14.5166C18.7342 15.0466 18.4625 15.3175 17.92 15.3175Z"/>
</svg>
