<svg width="35" height="35" viewBox="0 0 35 35" fill="none" xmlns="http://www.w3.org/2000/svg">
<path d="M34.227 5.45903C34.0263 4.40389 33.6347 3.44195 33.0912 2.669C32.5478 1.89605 31.8714 1.33906 31.1295 1.0535C28.4135 0 17.4823 0 17.4823 0C17.4823 0 6.5505 0.0318888 3.83444 1.08539C3.09254 1.37097 2.41618 1.92799 1.87272 2.70097C1.32927 3.47395 0.937674 4.43593 0.73694 5.49111C-0.0846026 12.3546 -0.403294 22.813 0.759499 29.4019C0.960253 30.4571 1.35186 31.419 1.89531 32.192C2.43877 32.9649 3.11511 33.5219 3.857 33.8075C6.57305 34.861 17.5045 34.861 17.5045 34.861C17.5045 34.861 28.4359 34.861 31.1518 33.8075C31.8937 33.5219 32.5701 32.965 33.1136 32.192C33.6571 31.4191 34.0487 30.4571 34.2494 29.4019C35.116 22.5287 35.383 12.0767 34.227 5.45903Z" fill="#FF0000"/>
<path d="M14.0029 24.9008L23.0712 17.4306L14.0029 9.96045V24.9008Z" fill="white"/>
</svg>
