<svg width="70" height="70" viewBox="0 0 70 70" fill="none" xmlns="http://www.w3.org/2000/svg">
<path d="M25.1562 13.125C23.1282 13.1331 21.1855 13.9423 19.7514 15.3764C18.3173 16.8105 17.5081 18.7532 17.5 20.7812C17.5 24.9856 20.9519 28.4375 25.1562 28.4375C29.3606 28.4375 32.8125 24.9856 32.8125 20.7812C32.8125 16.5769 29.3606 13.125 25.1562 13.125ZM44.8438 13.125C42.8157 13.1331 40.873 13.9423 39.4389 15.3764C38.0048 16.8105 37.1956 18.7532 37.1875 20.7812C37.1875 24.9856 40.6394 28.4375 44.8438 28.4375C49.0481 28.4375 52.5 24.9856 52.5 20.7812C52.5 16.5769 49.0481 13.125 44.8438 13.125ZM25.1562 17.5C26.9937 17.5 28.4375 18.9437 28.4375 20.7812C28.4375 22.6187 26.9937 24.0625 25.1562 24.0625C23.3188 24.0625 21.875 22.6187 21.875 20.7812C21.875 18.9437 23.3188 17.5 25.1562 17.5ZM44.8438 17.5C46.6813 17.5 48.125 18.9437 48.125 20.7812C48.125 22.6187 46.6813 24.0625 44.8438 24.0625C43.0062 24.0625 41.5625 22.6187 41.5625 20.7812C41.5625 18.9437 43.0062 17.5 44.8438 17.5ZM15.3125 26.25C10.5 26.25 6.5625 30.1875 6.5625 35C6.5625 37.4347 7.60594 39.6309 9.22906 41.2213C7.74008 42.226 6.51939 43.5797 5.67335 45.1642C4.82731 46.7488 4.38158 48.5162 4.375 50.3125H8.75C8.75 46.6637 11.6638 43.75 15.3125 43.75C18.9613 43.75 21.875 46.6637 21.875 50.3125H26.25C26.2434 48.5162 25.7977 46.7488 24.9516 45.1642C24.1056 43.5797 22.8849 42.226 21.3959 41.2213C23.0191 39.6309 24.0625 37.4369 24.0625 35C24.0625 30.1875 20.125 26.25 15.3125 26.25ZM26.25 50.3125C24.8828 52.1413 24.0625 54.4403 24.0625 56.875H28.4375C28.4375 53.2262 31.3512 50.3125 35 50.3125C38.6488 50.3125 41.5625 53.2262 41.5625 56.875H45.9375C45.9337 54.5091 45.1665 52.2075 43.75 50.3125C43.0062 49.3216 42.1094 48.475 41.0834 47.7837C42.7066 46.1934 43.75 43.9994 43.75 41.5625C43.75 36.75 39.8125 32.8125 35 32.8125C30.1875 32.8125 26.25 36.75 26.25 41.5625C26.25 43.9972 27.2934 46.1934 28.9166 47.7837C27.8925 48.4716 26.9912 49.3264 26.25 50.3125ZM43.75 50.3125H48.125C48.125 46.6637 51.0387 43.75 54.6875 43.75C58.3363 43.75 61.25 46.6637 61.25 50.3125H65.625C65.6184 48.5162 65.1727 46.7488 64.3266 45.1642C63.4806 43.5797 62.2599 42.226 60.7709 41.2213C62.3941 39.6309 63.4375 37.4369 63.4375 35C63.4375 30.1875 59.5 26.25 54.6875 26.25C49.875 26.25 45.9375 30.1875 45.9375 35C45.9375 37.4347 46.9809 39.6309 48.6041 41.2213C47.1151 42.226 45.8944 43.5797 45.0484 45.1642C44.2023 46.7488 43.7566 48.5162 43.75 50.3125ZM15.3125 30.625C17.7559 30.625 19.6875 32.5566 19.6875 35C19.6875 37.4434 17.7559 39.375 15.3125 39.375C12.8691 39.375 10.9375 37.4434 10.9375 35C10.9375 32.5566 12.8691 30.625 15.3125 30.625ZM54.6875 30.625C57.1309 30.625 59.0625 32.5566 59.0625 35C59.0625 37.4434 57.1309 39.375 54.6875 39.375C52.2441 39.375 50.3125 37.4434 50.3125 35C50.3125 32.5566 52.2441 30.625 54.6875 30.625ZM35 37.1875C37.4434 37.1875 39.375 39.1191 39.375 41.5625C39.375 44.0059 37.4434 45.9375 35 45.9375C32.5566 45.9375 30.625 44.0059 30.625 41.5625C30.625 39.1191 32.5566 37.1875 35 37.1875Z" fill="#FD7717"/>
</svg>
