<svg width="70" height="70" viewBox="0 0 70 70" fill="none" xmlns="http://www.w3.org/2000/svg">
<path d="M48.9991 9.625C48.9991 8.92881 49.2756 8.26113 49.7679 7.76884C50.2602 7.27656 50.9279 7 51.6241 7H60.3741C61.0703 7 61.7379 7.27656 62.2302 7.76884C62.7225 8.26113 62.9991 8.92881 62.9991 9.625V18.375C62.9991 19.0712 62.7225 19.7389 62.2302 20.2312C61.7379 20.7234 61.0703 21 60.3741 21C59.6779 21 59.0102 20.7234 58.5179 20.2312C58.0256 19.7389 57.7491 19.0712 57.7491 18.375V15.96L42.1041 31.605C41.6119 32.0966 40.9447 32.3727 40.2491 32.3727C39.5534 32.3727 38.8863 32.0966 38.3941 31.605L29.7491 22.96L14.9791 37.73C14.7388 37.9879 14.449 38.1948 14.127 38.3382C13.805 38.4817 13.4574 38.5589 13.1049 38.5651C12.7524 38.5713 12.4023 38.5065 12.0755 38.3744C11.7486 38.2424 11.4517 38.0459 11.2024 37.7966C10.9532 37.5474 10.7567 37.2505 10.6246 36.9236C10.4926 36.5967 10.4278 36.2466 10.434 35.8942C10.4402 35.5417 10.5174 35.1941 10.6608 34.8721C10.8043 34.5501 11.0112 34.2603 11.2691 34.02L27.8941 17.395C28.3863 16.9034 29.0534 16.6273 29.7491 16.6273C30.4447 16.6273 31.1119 16.9034 31.6041 17.395L40.2491 26.04L54.0391 12.25H51.6241C50.9279 12.25 50.2602 11.9734 49.7679 11.4812C49.2756 10.9889 48.9991 10.3212 48.9991 9.625ZM13.1241 49C13.8203 49 14.4879 49.2766 14.9802 49.7688C15.4725 50.2611 15.7491 50.9288 15.7491 51.625V60.375C15.7491 61.0712 15.4725 61.7389 14.9802 62.2312C14.4879 62.7234 13.8203 63 13.1241 63C12.4279 63 11.7602 62.7234 11.2679 62.2312C10.7756 61.7389 10.4991 61.0712 10.4991 60.375V51.625C10.4991 50.9288 10.7756 50.2611 11.2679 49.7688C11.7602 49.2766 12.4279 49 13.1241 49ZM29.7491 41.125C29.7491 40.4288 29.4725 39.7611 28.9802 39.2688C28.4879 38.7766 27.8203 38.5 27.1241 38.5C26.4279 38.5 25.7602 38.7766 25.2679 39.2688C24.7756 39.7611 24.4991 40.4288 24.4991 41.125V60.375C24.4991 61.0712 24.7756 61.7389 25.2679 62.2312C25.7602 62.7234 26.4279 63 27.1241 63C27.8203 63 28.4879 62.7234 28.9802 62.2312C29.4725 61.7389 29.7491 61.0712 29.7491 60.375V41.125ZM41.1241 45.5C41.8203 45.5 42.4879 45.7766 42.9802 46.2688C43.4725 46.7611 43.7491 47.4288 43.7491 48.125V60.375C43.7491 61.0712 43.4725 61.7389 42.9802 62.2312C42.4879 62.7234 41.8203 63 41.1241 63C40.4279 63 39.7602 62.7234 39.2679 62.2312C38.7756 61.7389 38.4991 61.0712 38.4991 60.375V48.125C38.4991 47.4288 38.7756 46.7611 39.2679 46.2688C39.7602 45.7766 40.4279 45.5 41.1241 45.5ZM57.7491 34.125C57.7491 33.4288 57.4725 32.7611 56.9802 32.2688C56.4879 31.7766 55.8203 31.5 55.1241 31.5C54.4279 31.5 53.7602 31.7766 53.2679 32.2688C52.7756 32.7611 52.4991 33.4288 52.4991 34.125V60.375C52.4991 61.0712 52.7756 61.7389 53.2679 62.2312C53.7602 62.7234 54.4279 63 55.1241 63C55.8203 63 56.4879 62.7234 56.9802 62.2312C57.4725 61.7389 57.7491 61.0712 57.7491 60.375V34.125Z" fill="#FD7717"/>
</svg>
