<svg width="339" height="220" viewBox="0 0 339 220" fill="none" xmlns="http://www.w3.org/2000/svg">
<g clip-path="url(#clip0_481_21524)">
<path d="M34.9346 15.6775H50.1414V94.2725H34.9346V15.6775Z" fill="#FFFCF3"/>
<path d="M64.2803 15.6775H80.2765L108.665 62.3725L113.96 73.1225L113.397 15.6775H128.492V94.2725H112.608L84.2189 47.6925L78.8121 36.7125L79.4871 94.2725H64.2803V15.6775Z" fill="#FFFCF3"/>
<path d="M220.873 15.6775H236.08V94.2725H220.873V15.6775Z" fill="#FFFCF3"/>
<path d="M250.217 15.6775H304.063V28.045H265.424V47.695H299.782V59.9475H265.424V81.9075H304.063V94.275H250.217V15.68V15.6775Z" fill="#FFFCF3"/>
<path d="M182.742 109.985H166.624C163.785 109.985 161.482 107.622 161.482 104.71V99.535C161.482 96.6225 163.785 94.26 166.624 94.26H182.742C185.58 94.26 187.883 96.6225 187.883 99.535V104.71C187.883 107.622 185.58 109.985 182.742 109.985ZM166.66 105.927H182.705C183.38 105.927 183.928 105.365 183.928 104.672V99.575C183.928 98.8825 183.38 98.32 182.705 98.32H166.66C165.985 98.32 165.437 98.8825 165.437 99.575V104.672C165.437 105.365 165.985 105.927 166.66 105.927Z" fill="#FFFCF3"/>
<path d="M174.683 0.0175068C174.683 0.0175068 139.279 -0.89999 139.279 35.115C139.279 58.85 161.594 84.015 165.175 87.8325C165.692 88.3875 166.308 88.7775 166.91 88.7C167.775 88.63 168.375 87.9775 168.384 87.25C168.392 86.6625 168.175 86.3275 167.673 85.605C165.039 81.7375 148.794 56.975 149.732 35.37C150.685 13.4425 174.685 13.955 174.685 13.955C174.685 13.955 198.688 13.44 199.639 35.37C200.577 56.975 184.332 81.7375 181.698 85.605C181.196 86.325 180.979 86.6625 180.986 87.25C180.996 87.9775 181.593 88.63 182.461 88.7C183.062 88.7775 183.679 88.3875 184.195 87.8325C187.775 84.015 210.092 58.85 210.092 35.115C210.092 -0.89999 174.688 0.0175068 174.688 0.0175068H174.683Z" fill="#FFFCF3"/>
</g>
<path d="M28.141 205.071C28.141 205.071 28.141 204.6 28.141 203.658V200.412V197.166V195.753H29.543H32.7999H36.0459H37.4587C37.4587 195.753 37.4587 196.224 37.4587 197.166V200.412V203.658V205.071C37.4587 205.071 36.9878 205.071 36.0459 205.071H32.7999H29.543H28.141ZM28.141 199.894C28.141 199.894 28.141 199.427 28.141 198.492V195.235V191.989V190.576H29.543H32.7999H36.0459H37.4587C37.4587 190.576 37.4587 191.047 37.4587 191.989V195.235V198.492V199.894C37.4587 199.894 36.9878 199.894 36.0459 199.894H32.7999H29.543H28.141ZM28.141 194.718C28.141 194.718 28.141 194.25 28.141 193.316V190.059V186.813V185.4H29.543H32.7999H36.0459H37.4587C37.4587 185.4 37.4587 185.871 37.4587 186.813V190.059V193.316V194.718C37.4587 194.718 36.9878 194.718 36.0459 194.718H32.7999H29.543H28.141ZM28.141 189.541C28.141 189.541 28.141 189.074 28.141 188.139V184.882V181.636V180.224H29.543H32.7999H36.0459H37.4587C37.4587 180.224 37.4587 180.694 37.4587 181.636V184.882V188.139V189.541C37.4587 189.541 36.9878 189.541 36.0459 189.541H32.7999H29.543H28.141ZM28.141 184.365C28.141 184.365 28.141 183.897 28.141 182.963V179.706V176.46V175.047H29.543H32.7999H36.0459H37.4587C37.4587 175.047 37.4587 175.518 37.4587 176.46V179.706V182.963V184.365C37.4587 184.365 36.9878 184.365 36.0459 184.365H32.7999H29.543H28.141ZM33.3175 184.365C33.3175 184.365 33.3175 183.897 33.3175 182.963V179.706V176.46V175.047H34.7195H37.9763H41.2224H42.6352C42.6352 175.047 42.6352 175.518 42.6352 176.46V179.706V182.963V184.365C42.6352 184.365 42.1642 184.365 41.2224 184.365H37.9763H34.7195H33.3175ZM38.494 184.365C38.494 184.365 38.494 183.897 38.494 182.963V179.706V176.46V175.047H39.8959H43.1528H46.3989H47.8116C47.8116 175.047 47.8116 175.518 47.8116 176.46V179.706V182.963V184.365C47.8116 184.365 47.3407 184.365 46.3989 184.365H43.1528H39.8959H38.494ZM43.6705 184.365C43.6705 184.365 43.6705 183.897 43.6705 182.963V179.706V176.46V175.047H45.0724H48.3293H51.5754H52.9881C52.9881 175.047 52.9881 175.518 52.9881 176.46V179.706V182.963V184.365C52.9881 184.365 52.5172 184.365 51.5754 184.365H48.3293H45.0724H43.6705ZM28.141 179.188C28.141 179.188 28.141 178.721 28.141 177.786V174.529V171.283V169.871H29.543H32.7999H36.0459H37.4587C37.4587 169.871 37.4587 170.341 37.4587 171.283V174.529V177.786V179.188C37.4587 179.188 36.9878 179.188 36.0459 179.188H32.7999H29.543H28.141ZM48.8469 179.188C48.8469 179.188 48.8469 178.721 48.8469 177.786V174.529V171.283V169.871H50.2489H53.5057H56.7518H58.1646C58.1646 169.871 58.1646 170.341 58.1646 171.283V174.529V177.786V179.188C58.1646 179.188 57.6937 179.188 56.7518 179.188H53.5057H50.2489H48.8469ZM28.141 174.012C28.141 174.012 28.141 173.544 28.141 172.61V169.353V166.107V164.694H29.543H32.7999H36.0459H37.4587C37.4587 164.694 37.4587 165.165 37.4587 166.107V169.353V172.61V174.012C37.4587 174.012 36.9878 174.012 36.0459 174.012H32.7999H29.543H28.141ZM48.8469 174.012C48.8469 174.012 48.8469 173.544 48.8469 172.61V169.353V166.107V164.694H50.2489H53.5057H56.7518H58.1646C58.1646 164.694 58.1646 165.165 58.1646 166.107V169.353V172.61V174.012C58.1646 174.012 57.6937 174.012 56.7518 174.012H53.5057H50.2489H48.8469ZM28.141 168.835C28.141 168.835 28.141 168.368 28.141 167.433V164.176V160.93V159.518H29.543H32.7999H36.0459H37.4587C37.4587 159.518 37.4587 159.989 37.4587 160.93V164.176V167.433V168.835C37.4587 168.835 36.9878 168.835 36.0459 168.835H32.7999H29.543H28.141ZM48.8469 168.835C48.8469 168.835 48.8469 168.368 48.8469 167.433V164.176V160.93V159.518H50.2489H53.5057H56.7518H58.1646C58.1646 159.518 58.1646 159.989 58.1646 160.93V164.176V167.433V168.835C58.1646 168.835 57.6937 168.835 56.7518 168.835H53.5057H50.2489H48.8469ZM28.141 163.659C28.141 163.659 28.141 163.192 28.141 162.257V159V155.754V154.341H29.543H32.7999H36.0459H37.4587C37.4587 154.341 37.4587 154.812 37.4587 155.754V159V162.257V163.659C37.4587 163.659 36.9878 163.659 36.0459 163.659H32.7999H29.543H28.141ZM48.8469 163.659C48.8469 163.659 48.8469 163.192 48.8469 162.257V159V155.754V154.341H50.2489H53.5057H56.7518H58.1646C58.1646 154.341 58.1646 154.812 58.1646 155.754V159V162.257V163.659C58.1646 163.659 57.6937 163.659 56.7518 163.659H53.5057H50.2489H48.8469ZM28.141 158.482C28.141 158.482 28.141 158.015 28.141 157.08V153.824V150.577V149.165H29.543H32.7999H36.0459H37.4587C37.4587 149.165 37.4587 149.636 37.4587 150.577V153.824V157.08V158.482C37.4587 158.482 36.9878 158.482 36.0459 158.482H32.7999H29.543H28.141ZM48.8469 158.482C48.8469 158.482 48.8469 158.015 48.8469 157.08V153.824V150.577V149.165H50.2489H53.5057H56.7518H58.1646C58.1646 149.165 58.1646 149.636 58.1646 150.577V153.824V157.08V158.482C58.1646 158.482 57.6937 158.482 56.7518 158.482H53.5057H50.2489H48.8469ZM28.141 153.306C28.141 153.306 28.141 152.839 28.141 151.904V148.647V145.401V143.988H29.543H32.7999H36.0459H37.4587C37.4587 143.988 37.4587 144.459 37.4587 145.401V148.647V151.904V153.306C37.4587 153.306 36.9878 153.306 36.0459 153.306H32.7999H29.543H28.141ZM33.3175 153.306C33.3175 153.306 33.3175 152.839 33.3175 151.904V148.647V145.401V143.988H34.7195H37.9763H41.2224H42.6352C42.6352 143.988 42.6352 144.459 42.6352 145.401V148.647V151.904V153.306C42.6352 153.306 42.1642 153.306 41.2224 153.306H37.9763H34.7195H33.3175ZM38.494 153.306C38.494 153.306 38.494 152.839 38.494 151.904V148.647V145.401V143.988H39.8959H43.1528H46.3989H47.8116C47.8116 143.988 47.8116 144.459 47.8116 145.401V148.647V151.904V153.306C47.8116 153.306 47.3407 153.306 46.3989 153.306H43.1528H39.8959H38.494ZM43.6705 153.306C43.6705 153.306 43.6705 152.839 43.6705 151.904V148.647V145.401V143.988H45.0724H48.3293H51.5754H52.9881C52.9881 143.988 52.9881 144.459 52.9881 145.401V148.647V151.904V153.306C52.9881 153.306 52.5172 153.306 51.5754 153.306H48.3293H45.0724H43.6705ZM66.8285 205.071C66.8285 205.071 66.8285 204.6 66.8285 203.658V200.412V197.166V195.753H68.2305H71.4874H74.7334H76.1462C76.1462 195.753 76.1462 196.224 76.1462 197.166V200.412V203.658V205.071C76.1462 205.071 75.6753 205.071 74.7334 205.071H71.4874H68.2305H66.8285ZM72.005 205.071C72.005 205.071 72.005 204.6 72.005 203.658V200.412V197.166V195.753H73.407H76.6638H79.9099H81.3227C81.3227 195.753 81.3227 196.224 81.3227 197.166V200.412V203.658V205.071C81.3227 205.071 80.8517 205.071 79.9099 205.071H76.6638H73.407H72.005ZM77.1815 205.071C77.1815 205.071 77.1815 204.6 77.1815 203.658V200.412V197.166V195.753H78.5834H81.8403H85.0864H86.4991C86.4991 195.753 86.4991 196.224 86.4991 197.166V200.412V203.658V205.071C86.4991 205.071 86.0282 205.071 85.0864 205.071H81.8403H78.5834H77.1815ZM82.358 205.071C82.358 205.071 82.358 204.6 82.358 203.658V200.412V197.166V195.753H83.7599H87.0168H90.2629H91.6756C91.6756 195.753 91.6756 196.224 91.6756 197.166V200.412V203.658V205.071C91.6756 205.071 91.2047 205.071 90.2629 205.071H87.0168H83.7599H82.358ZM66.8285 199.894C66.8285 199.894 66.8285 199.427 66.8285 198.492V195.235V191.989V190.576H68.2305H71.4874H74.7334H76.1462C76.1462 190.576 76.1462 191.047 76.1462 191.989V195.235V198.492V199.894C76.1462 199.894 75.6753 199.894 74.7334 199.894H71.4874H68.2305H66.8285ZM66.8285 194.718C66.8285 194.718 66.8285 194.25 66.8285 193.316V190.059V186.813V185.4H68.2305H71.4874H74.7334H76.1462C76.1462 185.4 76.1462 185.871 76.1462 186.813V190.059V193.316V194.718C76.1462 194.718 75.6753 194.718 74.7334 194.718H71.4874H68.2305H66.8285ZM66.8285 189.541C66.8285 189.541 66.8285 189.074 66.8285 188.139V184.882V181.636V180.224H68.2305H71.4874H74.7334H76.1462C76.1462 180.224 76.1462 180.694 76.1462 181.636V184.882V188.139V189.541C76.1462 189.541 75.6753 189.541 74.7334 189.541H71.4874H68.2305H66.8285ZM66.8285 184.365C66.8285 184.365 66.8285 183.897 66.8285 182.963V179.706V176.46V175.047H68.2305H71.4874H74.7334H76.1462C76.1462 175.047 76.1462 175.518 76.1462 176.46V179.706V182.963V184.365C76.1462 184.365 75.6753 184.365 74.7334 184.365H71.4874H68.2305H66.8285ZM66.8285 179.188C66.8285 179.188 66.8285 178.721 66.8285 177.786V174.529V171.283V169.871H68.2305H71.4874H74.7334H76.1462C76.1462 169.871 76.1462 170.341 76.1462 171.283V174.529V177.786V179.188C76.1462 179.188 75.6753 179.188 74.7334 179.188H71.4874H68.2305H66.8285ZM72.005 179.188C72.005 179.188 72.005 178.721 72.005 177.786V174.529V171.283V169.871H73.407H76.6638H79.9099H81.3227C81.3227 169.871 81.3227 170.341 81.3227 171.283V174.529V177.786V179.188C81.3227 179.188 80.8517 179.188 79.9099 179.188H76.6638H73.407H72.005ZM77.1815 179.188C77.1815 179.188 77.1815 178.721 77.1815 177.786V174.529V171.283V169.871H78.5834H81.8403H85.0864H86.4991C86.4991 169.871 86.4991 170.341 86.4991 171.283V174.529V177.786V179.188C86.4991 179.188 86.0282 179.188 85.0864 179.188H81.8403H78.5834H77.1815ZM82.358 179.188C82.358 179.188 82.358 178.721 82.358 177.786V174.529V171.283V169.871H83.7599H87.0168H90.2629H91.6756C91.6756 169.871 91.6756 170.341 91.6756 171.283V174.529V177.786V179.188C91.6756 179.188 91.2047 179.188 90.2629 179.188H87.0168H83.7599H82.358ZM66.8285 174.012C66.8285 174.012 66.8285 173.544 66.8285 172.61V169.353V166.107V164.694H68.2305H71.4874H74.7334H76.1462C76.1462 164.694 76.1462 165.165 76.1462 166.107V169.353V172.61V174.012C76.1462 174.012 75.6753 174.012 74.7334 174.012H71.4874H68.2305H66.8285ZM66.8285 168.835C66.8285 168.835 66.8285 168.368 66.8285 167.433V164.176V160.93V159.518H68.2305H71.4874H74.7334H76.1462C76.1462 159.518 76.1462 159.989 76.1462 160.93V164.176V167.433V168.835C76.1462 168.835 75.6753 168.835 74.7334 168.835H71.4874H68.2305H66.8285ZM66.8285 163.659C66.8285 163.659 66.8285 163.192 66.8285 162.257V159V155.754V154.341H68.2305H71.4874H74.7334H76.1462C76.1462 154.341 76.1462 154.812 76.1462 155.754V159V162.257V163.659C76.1462 163.659 75.6753 163.659 74.7334 163.659H71.4874H68.2305H66.8285ZM66.8285 158.482C66.8285 158.482 66.8285 158.015 66.8285 157.08V153.824V150.577V149.165H68.2305H71.4874H74.7334H76.1462C76.1462 149.165 76.1462 149.636 76.1462 150.577V153.824V157.08V158.482C76.1462 158.482 75.6753 158.482 74.7334 158.482H71.4874H68.2305H66.8285ZM66.8285 153.306C66.8285 153.306 66.8285 152.839 66.8285 151.904V148.647V145.401V143.988H68.2305H71.4874H74.7334H76.1462C76.1462 143.988 76.1462 144.459 76.1462 145.401V148.647V151.904V153.306C76.1462 153.306 75.6753 153.306 74.7334 153.306H71.4874H68.2305H66.8285ZM72.005 153.306C72.005 153.306 72.005 152.839 72.005 151.904V148.647V145.401V143.988H73.407H76.6638H79.9099H81.3227C81.3227 143.988 81.3227 144.459 81.3227 145.401V148.647V151.904V153.306C81.3227 153.306 80.8517 153.306 79.9099 153.306H76.6638H73.407H72.005ZM77.1815 153.306C77.1815 153.306 77.1815 152.839 77.1815 151.904V148.647V145.401V143.988H78.5834H81.8403H85.0864H86.4991C86.4991 143.988 86.4991 144.459 86.4991 145.401V148.647V151.904V153.306C86.4991 153.306 86.0282 153.306 85.0864 153.306H81.8403H78.5834H77.1815ZM82.358 153.306C82.358 153.306 82.358 152.839 82.358 151.904V148.647V145.401V143.988H83.7599H87.0168H90.2629H91.6756C91.6756 143.988 91.6756 144.459 91.6756 145.401V148.647V151.904V153.306C91.6756 153.306 91.2047 153.306 90.2629 153.306H87.0168H83.7599H82.358ZM100.274 205.071C100.274 205.071 100.274 204.6 100.274 203.658V200.412V197.166V195.753H101.676H104.933H108.179H109.591C109.591 195.753 109.591 196.224 109.591 197.166V200.412V203.658V205.071C109.591 205.071 109.121 205.071 108.179 205.071H104.933H101.676H100.274ZM123.568 205.071C123.568 205.071 123.568 204.6 123.568 203.658V200.412V197.166V195.753H124.97H128.227H131.473H132.886C132.886 195.753 132.886 196.224 132.886 197.166V200.412V203.658V205.071C132.886 205.071 132.415 205.071 131.473 205.071H128.227H124.97H123.568ZM100.274 199.894C100.274 199.894 100.274 199.427 100.274 198.492V195.235V191.989V190.576H101.676H104.933H108.179H109.591C109.591 190.576 109.591 191.047 109.591 191.989V195.235V198.492V199.894C109.591 199.894 109.121 199.894 108.179 199.894H104.933H101.676H100.274ZM120.98 199.894C120.98 199.894 120.98 199.427 120.98 198.492V195.235V191.989V190.576H122.382H125.639H128.885H130.297C130.297 190.576 130.297 191.047 130.297 191.989V195.235V198.492V199.894C130.297 199.894 129.826 199.894 128.885 199.894H125.639H122.382H120.98ZM100.274 194.718C100.274 194.718 100.274 194.25 100.274 193.316V190.059V186.813V185.4H101.676H104.933H108.179H109.591C109.591 185.4 109.591 185.871 109.591 186.813V190.059V193.316V194.718C109.591 194.718 109.121 194.718 108.179 194.718H104.933H101.676H100.274ZM118.391 194.718C118.391 194.718 118.391 194.25 118.391 193.316V190.059V186.813V185.4H119.793H123.05H126.296H127.709C127.709 185.4 127.709 185.871 127.709 186.813V190.059V193.316V194.718C127.709 194.718 127.238 194.718 126.296 194.718H123.05H119.793H118.391ZM100.274 189.541C100.274 189.541 100.274 189.074 100.274 188.139V184.882V181.636V180.224H101.676H104.933H108.179H109.591C109.591 180.224 109.591 180.694 109.591 181.636V184.882V188.139V189.541C109.591 189.541 109.121 189.541 108.179 189.541H104.933H101.676H100.274ZM115.803 189.541C115.803 189.541 115.803 189.074 115.803 188.139V184.882V181.636V180.224H117.205H120.462H123.708H125.121C125.121 180.224 125.121 180.694 125.121 181.636V184.882V188.139V189.541C125.121 189.541 124.65 189.541 123.708 189.541H120.462H117.205H115.803ZM100.274 184.365C100.274 184.365 100.274 183.897 100.274 182.963V179.706V176.46V175.047H101.676H104.933H108.179H109.591C109.591 175.047 109.591 175.518 109.591 176.46V179.706V182.963V184.365C109.591 184.365 109.121 184.365 108.179 184.365H104.933H101.676H100.274ZM113.215 184.365C113.215 184.365 113.215 183.897 113.215 182.963V179.706V176.46V175.047H114.617H117.874H121.12H122.533C122.533 175.047 122.533 175.518 122.533 176.46V179.706V182.963V184.365C122.533 184.365 122.062 184.365 121.12 184.365H117.874H114.617H113.215ZM100.274 179.188C100.274 179.188 100.274 178.721 100.274 177.786V174.529V171.283V169.871H101.676H104.933H108.179H109.591C109.591 169.871 109.591 170.341 109.591 171.283V174.529V177.786V179.188C109.591 179.188 109.121 179.188 108.179 179.188H104.933H101.676H100.274ZM105.45 179.188C105.45 179.188 105.45 178.721 105.45 177.786V174.529V171.283V169.871H106.852H110.109H113.355H114.768C114.768 169.871 114.768 170.341 114.768 171.283V174.529V177.786V179.188C114.768 179.188 114.297 179.188 113.355 179.188H110.109H106.852H105.45ZM110.627 179.188C110.627 179.188 110.627 178.721 110.627 177.786V174.529V171.283V169.871H112.029H115.286H118.532H119.944C119.944 169.871 119.944 170.341 119.944 171.283V174.529V177.786V179.188C119.944 179.188 119.474 179.188 118.532 179.188H115.286H112.029H110.627ZM100.274 174.012C100.274 174.012 100.274 173.544 100.274 172.61V169.353V166.107V164.694H101.676H104.933H108.179H109.591C109.591 164.694 109.591 165.165 109.591 166.107V169.353V172.61V174.012C109.591 174.012 109.121 174.012 108.179 174.012H104.933H101.676H100.274ZM113.215 174.012C113.215 174.012 113.215 173.544 113.215 172.61V169.353V166.107V164.694H114.617H117.874H121.12H122.533C122.533 164.694 122.533 165.165 122.533 166.107V169.353V172.61V174.012C122.533 174.012 122.062 174.012 121.12 174.012H117.874H114.617H113.215ZM100.274 168.835C100.274 168.835 100.274 168.368 100.274 167.433V164.176V160.93V159.518H101.676H104.933H108.179H109.591C109.591 159.518 109.591 159.989 109.591 160.93V164.176V167.433V168.835C109.591 168.835 109.121 168.835 108.179 168.835H104.933H101.676H100.274ZM115.803 168.835C115.803 168.835 115.803 168.368 115.803 167.433V164.176V160.93V159.518H117.205H120.462H123.708H125.121C125.121 159.518 125.121 159.989 125.121 160.93V164.176V167.433V168.835C125.121 168.835 124.65 168.835 123.708 168.835H120.462H117.205H115.803ZM100.274 163.659C100.274 163.659 100.274 163.192 100.274 162.257V159V155.754V154.341H101.676H104.933H108.179H109.591C109.591 154.341 109.591 154.812 109.591 155.754V159V162.257V163.659C109.591 163.659 109.121 163.659 108.179 163.659H104.933H101.676H100.274ZM118.391 163.659C118.391 163.659 118.391 163.192 118.391 162.257V159V155.754V154.341H119.793H123.05H126.296H127.709C127.709 154.341 127.709 154.812 127.709 155.754V159V162.257V163.659C127.709 163.659 127.238 163.659 126.296 163.659H123.05H119.793H118.391ZM100.274 158.482C100.274 158.482 100.274 158.015 100.274 157.08V153.824V150.577V149.165H101.676H104.933H108.179H109.591C109.591 149.165 109.591 149.636 109.591 150.577V153.824V157.08V158.482C109.591 158.482 109.121 158.482 108.179 158.482H104.933H101.676H100.274ZM120.98 158.482C120.98 158.482 120.98 158.015 120.98 157.08V153.824V150.577V149.165H122.382H125.639H128.885H130.297C130.297 149.165 130.297 149.636 130.297 150.577V153.824V157.08V158.482C130.297 158.482 129.826 158.482 128.885 158.482H125.639H122.382H120.98ZM100.274 153.306C100.274 153.306 100.274 152.839 100.274 151.904V148.647V145.401V143.988H101.676H104.933H108.179H109.591C109.591 143.988 109.591 144.459 109.591 145.401V148.647V151.904V153.306C109.591 153.306 109.121 153.306 108.179 153.306H104.933H101.676H100.274ZM123.568 153.306C123.568 153.306 123.568 152.839 123.568 151.904V148.647V145.401V143.988H124.97H128.227H131.473H132.886C132.886 143.988 132.886 144.459 132.886 145.401V148.647V151.904V153.306C132.886 153.306 132.415 153.306 131.473 153.306H128.227H124.97H123.568ZM138.951 205.071C138.951 205.071 138.951 204.6 138.951 203.658V200.412V197.166V195.753H140.353H143.61H146.856H148.269C148.269 195.753 148.269 196.224 148.269 197.166V200.412V203.658V205.071C148.269 205.071 147.798 205.071 146.856 205.071H143.61H140.353H138.951ZM144.128 205.071C144.128 205.071 144.128 204.6 144.128 203.658V200.412V197.166V195.753H145.53H148.787H152.033H153.445C153.445 195.753 153.445 196.224 153.445 197.166V200.412V203.658V205.071C153.445 205.071 152.974 205.071 152.033 205.071H148.787H145.53H144.128ZM167.422 205.071C167.422 205.071 167.422 204.6 167.422 203.658V200.412V197.166V195.753H168.824H172.081H175.327H176.739C176.739 195.753 176.739 196.224 176.739 197.166V200.412V203.658V205.071C176.739 205.071 176.269 205.071 175.327 205.071H172.081H168.824H167.422ZM146.716 199.894C146.716 199.894 146.716 199.427 146.716 198.492V195.235V191.989V190.576H148.118H151.375H154.621H156.034C156.034 190.576 156.034 191.047 156.034 191.989V195.235V198.492V199.894C156.034 199.894 155.563 199.894 154.621 199.894H151.375H148.118H146.716ZM167.422 199.894C167.422 199.894 167.422 199.427 167.422 198.492V195.235V191.989V190.576H168.824H172.081H175.327H176.739C176.739 190.576 176.739 191.047 176.739 191.989V195.235V198.492V199.894C176.739 199.894 176.269 199.894 175.327 199.894H172.081H168.824H167.422ZM146.716 194.718C146.716 194.718 146.716 194.25 146.716 193.316V190.059V186.813V185.4H148.118H151.375H154.621H156.034C156.034 185.4 156.034 185.871 156.034 186.813V190.059V193.316V194.718C156.034 194.718 155.563 194.718 154.621 194.718H151.375H148.118H146.716ZM167.422 194.718C167.422 194.718 167.422 194.25 167.422 193.316V190.059V186.813V185.4H168.824H172.081H175.327H176.739C176.739 185.4 176.739 185.871 176.739 186.813V190.059V193.316V194.718C176.739 194.718 176.269 194.718 175.327 194.718H172.081H168.824H167.422ZM146.716 189.541C146.716 189.541 146.716 189.074 146.716 188.139V184.882V181.636V180.224H148.118H151.375H154.621H156.034C156.034 180.224 156.034 180.694 156.034 181.636V184.882V188.139V189.541C156.034 189.541 155.563 189.541 154.621 189.541H151.375H148.118H146.716ZM167.422 189.541C167.422 189.541 167.422 189.074 167.422 188.139V184.882V181.636V180.224H168.824H172.081H175.327H176.739C176.739 180.224 176.739 180.694 176.739 181.636V184.882V188.139V189.541C176.739 189.541 176.269 189.541 175.327 189.541H172.081H168.824H167.422ZM146.716 184.365C146.716 184.365 146.716 183.897 146.716 182.963V179.706V176.46V175.047H148.118H151.375H154.621H156.034C156.034 175.047 156.034 175.518 156.034 176.46V179.706V182.963V184.365C156.034 184.365 155.563 184.365 154.621 184.365H151.375H148.118H146.716ZM167.422 184.365C167.422 184.365 167.422 183.897 167.422 182.963V179.706V176.46V175.047H168.824H172.081H175.327H176.739C176.739 175.047 176.739 175.518 176.739 176.46V179.706V182.963V184.365C176.739 184.365 176.269 184.365 175.327 184.365H172.081H168.824H167.422ZM146.716 179.188C146.716 179.188 146.716 178.721 146.716 177.786V174.529V171.283V169.871H148.118H151.375H154.621H156.034C156.034 169.871 156.034 170.341 156.034 171.283V174.529V177.786V179.188C156.034 179.188 155.563 179.188 154.621 179.188H151.375H148.118H146.716ZM167.422 179.188C167.422 179.188 167.422 178.721 167.422 177.786V174.529V171.283V169.871H168.824H172.081H175.327H176.739C176.739 169.871 176.739 170.341 176.739 171.283V174.529V177.786V179.188C176.739 179.188 176.269 179.188 175.327 179.188H172.081H168.824H167.422ZM146.716 174.012C146.716 174.012 146.716 173.544 146.716 172.61V169.353V166.107V164.694H148.118H151.375H154.621H156.034C156.034 164.694 156.034 165.165 156.034 166.107V169.353V172.61V174.012C156.034 174.012 155.563 174.012 154.621 174.012H151.375H148.118H146.716ZM167.422 174.012C167.422 174.012 167.422 173.544 167.422 172.61V169.353V166.107V164.694H168.824H172.081H175.327H176.739C176.739 164.694 176.739 165.165 176.739 166.107V169.353V172.61V174.012C176.739 174.012 176.269 174.012 175.327 174.012H172.081H168.824H167.422ZM146.716 168.835C146.716 168.835 146.716 168.368 146.716 167.433V164.176V160.93V159.518H148.118H151.375H154.621H156.034C156.034 159.518 156.034 159.989 156.034 160.93V164.176V167.433V168.835C156.034 168.835 155.563 168.835 154.621 168.835H151.375H148.118H146.716ZM167.422 168.835C167.422 168.835 167.422 168.368 167.422 167.433V164.176V160.93V159.518H168.824H172.081H175.327H176.739C176.739 159.518 176.739 159.989 176.739 160.93V164.176V167.433V168.835C176.739 168.835 176.269 168.835 175.327 168.835H172.081H168.824H167.422ZM146.716 163.659C146.716 163.659 146.716 163.192 146.716 162.257V159V155.754V154.341H148.118H151.375H154.621H156.034C156.034 154.341 156.034 154.812 156.034 155.754V159V162.257V163.659C156.034 163.659 155.563 163.659 154.621 163.659H151.375H148.118H146.716ZM167.422 163.659C167.422 163.659 167.422 163.192 167.422 162.257V159V155.754V154.341H168.824H172.081H175.327H176.739C176.739 154.341 176.739 154.812 176.739 155.754V159V162.257V163.659C176.739 163.659 176.269 163.659 175.327 163.659H172.081H168.824H167.422ZM146.716 158.482C146.716 158.482 146.716 158.015 146.716 157.08V153.824V150.577V149.165H148.118H151.375H154.621H156.034C156.034 149.165 156.034 149.636 156.034 150.577V153.824V157.08V158.482C156.034 158.482 155.563 158.482 154.621 158.482H151.375H148.118H146.716ZM167.422 158.482C167.422 158.482 167.422 158.015 167.422 157.08V153.824V150.577V149.165H168.824H172.081H175.327H176.739C176.739 149.165 176.739 149.636 176.739 150.577V153.824V157.08V158.482C176.739 158.482 176.269 158.482 175.327 158.482H172.081H168.824H167.422ZM146.716 153.306C146.716 153.306 146.716 152.839 146.716 151.904V148.647V145.401V143.988H148.118H151.375H154.621H156.034C156.034 143.988 156.034 144.459 156.034 145.401V148.647V151.904V153.306C156.034 153.306 155.563 153.306 154.621 153.306H151.375H148.118H146.716ZM151.892 153.306C151.892 153.306 151.892 152.839 151.892 151.904V148.647V145.401V143.988H153.294H156.551H159.797H161.21C161.21 143.988 161.21 144.459 161.21 145.401V148.647V151.904V153.306C161.21 153.306 160.739 153.306 159.797 153.306H156.551H153.294H151.892ZM157.069 153.306C157.069 153.306 157.069 152.839 157.069 151.904V148.647V145.401V143.988H158.471H161.728H164.974H166.387C166.387 143.988 166.387 144.459 166.387 145.401V148.647V151.904V153.306C166.387 153.306 165.916 153.306 164.974 153.306H161.728H158.471H157.069ZM162.245 153.306C162.245 153.306 162.245 152.839 162.245 151.904V148.647V145.401V143.988H163.647H166.904H170.15H171.563C171.563 143.988 171.563 144.459 171.563 145.401V148.647V151.904V153.306C171.563 153.306 171.092 153.306 170.15 153.306H166.904H163.647H162.245ZM167.422 153.306C167.422 153.306 167.422 152.839 167.422 151.904V148.647V145.401V143.988H168.824H172.081H175.327H176.739C176.739 143.988 176.739 144.459 176.739 145.401V148.647V151.904V153.306C176.739 153.306 176.269 153.306 175.327 153.306H172.081H168.824H167.422ZM187.961 205.071C187.961 205.071 187.961 204.6 187.961 203.658V200.412V197.166V195.753H189.363H192.62H195.866H197.279C197.279 195.753 197.279 196.224 197.279 197.166V200.412V203.658V205.071C197.279 205.071 196.808 205.071 195.866 205.071H192.62H189.363H187.961ZM208.667 205.071C208.667 205.071 208.667 204.6 208.667 203.658V200.412V197.166V195.753H210.069H213.326H216.572H217.985C217.985 195.753 217.985 196.224 217.985 197.166V200.412V203.658V205.071C217.985 205.071 217.514 205.071 216.572 205.071H213.326H210.069H208.667ZM187.961 199.894C187.961 199.894 187.961 199.427 187.961 198.492V195.235V191.989V190.576H189.363H192.62H195.866H197.279C197.279 190.576 197.279 191.047 197.279 191.989V195.235V198.492V199.894C197.279 199.894 196.808 199.894 195.866 199.894H192.62H189.363H187.961ZM208.667 199.894C208.667 199.894 208.667 199.427 208.667 198.492V195.235V191.989V190.576H210.069H213.326H216.572H217.985C217.985 190.576 217.985 191.047 217.985 191.989V195.235V198.492V199.894C217.985 199.894 217.514 199.894 216.572 199.894H213.326H210.069H208.667ZM187.961 194.718C187.961 194.718 187.961 194.25 187.961 193.316V190.059V186.813V185.4H189.363H192.62H195.866H197.279C197.279 185.4 197.279 185.871 197.279 186.813V190.059V193.316V194.718C197.279 194.718 196.808 194.718 195.866 194.718H192.62H189.363H187.961ZM208.667 194.718C208.667 194.718 208.667 194.25 208.667 193.316V190.059V186.813V185.4H210.069H213.326H216.572H217.985C217.985 185.4 217.985 185.871 217.985 186.813V190.059V193.316V194.718C217.985 194.718 217.514 194.718 216.572 194.718H213.326H210.069H208.667ZM187.961 189.541C187.961 189.541 187.961 189.074 187.961 188.139V184.882V181.636V180.224H189.363H192.62H195.866H197.279C197.279 180.224 197.279 180.694 197.279 181.636V184.882V188.139V189.541C197.279 189.541 196.808 189.541 195.866 189.541H192.62H189.363H187.961ZM193.138 189.541C193.138 189.541 193.138 189.074 193.138 188.139V184.882V181.636V180.224H194.54H197.797H201.043H202.455C202.455 180.224 202.455 180.694 202.455 181.636V184.882V188.139V189.541C202.455 189.541 201.985 189.541 201.043 189.541H197.797H194.54H193.138ZM198.314 189.541C198.314 189.541 198.314 189.074 198.314 188.139V184.882V181.636V180.224H199.716H202.973H206.219H207.632C207.632 180.224 207.632 180.694 207.632 181.636V184.882V188.139V189.541C207.632 189.541 207.161 189.541 206.219 189.541H202.973H199.716H198.314ZM203.491 189.541C203.491 189.541 203.491 189.074 203.491 188.139V184.882V181.636V180.224H204.893H208.15H211.396H212.808C212.808 180.224 212.808 180.694 212.808 181.636V184.882V188.139V189.541C212.808 189.541 212.337 189.541 211.396 189.541H208.15H204.893H203.491ZM208.667 189.541C208.667 189.541 208.667 189.074 208.667 188.139V184.882V181.636V180.224H210.069H213.326H216.572H217.985C217.985 180.224 217.985 180.694 217.985 181.636V184.882V188.139V189.541C217.985 189.541 217.514 189.541 216.572 189.541H213.326H210.069H208.667ZM187.961 184.365C187.961 184.365 187.961 183.897 187.961 182.963V179.706V176.46V175.047H189.363H192.62H195.866H197.279C197.279 175.047 197.279 175.518 197.279 176.46V179.706V182.963V184.365C197.279 184.365 196.808 184.365 195.866 184.365H192.62H189.363H187.961ZM208.667 184.365C208.667 184.365 208.667 183.897 208.667 182.963V179.706V176.46V175.047H210.069H213.326H216.572H217.985C217.985 175.047 217.985 175.518 217.985 176.46V179.706V182.963V184.365C217.985 184.365 217.514 184.365 216.572 184.365H213.326H210.069H208.667ZM187.961 179.188C187.961 179.188 187.961 178.721 187.961 177.786V174.529V171.283V169.871H189.363H192.62H195.866H197.279C197.279 169.871 197.279 170.341 197.279 171.283V174.529V177.786V179.188C197.279 179.188 196.808 179.188 195.866 179.188H192.62H189.363H187.961ZM208.667 179.188C208.667 179.188 208.667 178.721 208.667 177.786V174.529V171.283V169.871H210.069H213.326H216.572H217.985C217.985 169.871 217.985 170.341 217.985 171.283V174.529V177.786V179.188C217.985 179.188 217.514 179.188 216.572 179.188H213.326H210.069H208.667ZM187.961 174.012C187.961 174.012 187.961 173.544 187.961 172.61V169.353V166.107V164.694H189.363H192.62H195.866H197.279C197.279 164.694 197.279 165.165 197.279 166.107V169.353V172.61V174.012C197.279 174.012 196.808 174.012 195.866 174.012H192.62H189.363H187.961ZM208.667 174.012C208.667 174.012 208.667 173.544 208.667 172.61V169.353V166.107V164.694H210.069H213.326H216.572H217.985C217.985 164.694 217.985 165.165 217.985 166.107V169.353V172.61V174.012C217.985 174.012 217.514 174.012 216.572 174.012H213.326H210.069H208.667ZM187.961 168.835C187.961 168.835 187.961 168.368 187.961 167.433V164.176V160.93V159.518H189.363H192.62H195.866H197.279C197.279 159.518 197.279 159.989 197.279 160.93V164.176V167.433V168.835C197.279 168.835 196.808 168.835 195.866 168.835H192.62H189.363H187.961ZM208.667 168.835C208.667 168.835 208.667 168.368 208.667 167.433V164.176V160.93V159.518H210.069H213.326H216.572H217.985C217.985 159.518 217.985 159.989 217.985 160.93V164.176V167.433V168.835C217.985 168.835 217.514 168.835 216.572 168.835H213.326H210.069H208.667ZM190.55 163.659C190.55 163.659 190.55 163.192 190.55 162.257V159V155.754V154.341H191.952H195.208H198.454H199.867C199.867 154.341 199.867 154.812 199.867 155.754V159V162.257V163.659C199.867 163.659 199.396 163.659 198.454 163.659H195.208H191.952H190.55ZM206.079 163.659C206.079 163.659 206.079 163.192 206.079 162.257V159V155.754V154.341H207.481H210.738H213.984H215.397C215.397 154.341 215.397 154.812 215.397 155.754V159V162.257V163.659C215.397 163.659 214.926 163.659 213.984 163.659H210.738H207.481H206.079ZM193.138 158.482C193.138 158.482 193.138 158.015 193.138 157.08V153.824V150.577V149.165H194.54H197.797H201.043H202.455C202.455 149.165 202.455 149.636 202.455 150.577V153.824V157.08V158.482C202.455 158.482 201.985 158.482 201.043 158.482H197.797H194.54H193.138ZM203.491 158.482C203.491 158.482 203.491 158.015 203.491 157.08V153.824V150.577V149.165H204.893H208.15H211.396H212.808C212.808 149.165 212.808 149.636 212.808 150.577V153.824V157.08V158.482C212.808 158.482 212.337 158.482 211.396 158.482H208.15H204.893H203.491ZM195.726 153.306C195.726 153.306 195.726 152.839 195.726 151.904V148.647V145.401V143.988H197.128H200.385H203.631H205.044C205.044 143.988 205.044 144.459 205.044 145.401V148.647V151.904V153.306C205.044 153.306 204.573 153.306 203.631 153.306H200.385H197.128H195.726ZM200.903 153.306C200.903 153.306 200.903 152.839 200.903 151.904V148.647V145.401V143.988H202.304H205.561H208.807H210.22C210.22 143.988 210.22 144.459 210.22 145.401V148.647V151.904V153.306C210.22 153.306 209.749 153.306 208.807 153.306H205.561H202.304H200.903ZM229.227 205.071C229.227 205.071 229.227 204.6 229.227 203.658V200.412V197.166V195.753H230.629H233.886H237.132H238.545C238.545 195.753 238.545 196.224 238.545 197.166V200.412V203.658V205.071C238.545 205.071 238.074 205.071 237.132 205.071H233.886H230.629H229.227ZM260.286 205.071C260.286 205.071 260.286 204.6 260.286 203.658V200.412V197.166V195.753H261.688H264.945H268.191H269.603C269.603 195.753 269.603 196.224 269.603 197.166V200.412V203.658V205.071C269.603 205.071 269.133 205.071 268.191 205.071H264.945H261.688H260.286ZM229.227 199.894C229.227 199.894 229.227 199.427 229.227 198.492V195.235V191.989V190.576H230.629H233.886H237.132H238.545C238.545 190.576 238.545 191.047 238.545 191.989V195.235V198.492V199.894C238.545 199.894 238.074 199.894 237.132 199.894H233.886H230.629H229.227ZM260.286 199.894C260.286 199.894 260.286 199.427 260.286 198.492V195.235V191.989V190.576H261.688H264.945H268.191H269.603C269.603 190.576 269.603 191.047 269.603 191.989V195.235V198.492V199.894C269.603 199.894 269.133 199.894 268.191 199.894H264.945H261.688H260.286ZM229.227 194.718C229.227 194.718 229.227 194.25 229.227 193.316V190.059V186.813V185.4H230.629H233.886H237.132H238.545C238.545 185.4 238.545 185.871 238.545 186.813V190.059V193.316V194.718C238.545 194.718 238.074 194.718 237.132 194.718H233.886H230.629H229.227ZM260.286 194.718C260.286 194.718 260.286 194.25 260.286 193.316V190.059V186.813V185.4H261.688H264.945H268.191H269.603C269.603 185.4 269.603 185.871 269.603 186.813V190.059V193.316V194.718C269.603 194.718 269.133 194.718 268.191 194.718H264.945H261.688H260.286ZM229.227 189.541C229.227 189.541 229.227 189.074 229.227 188.139V184.882V181.636V180.224H230.629H233.886H237.132H238.545C238.545 180.224 238.545 180.694 238.545 181.636V184.882V188.139V189.541C238.545 189.541 238.074 189.541 237.132 189.541H233.886H230.629H229.227ZM260.286 189.541C260.286 189.541 260.286 189.074 260.286 188.139V184.882V181.636V180.224H261.688H264.945H268.191H269.603C269.603 180.224 269.603 180.694 269.603 181.636V184.882V188.139V189.541C269.603 189.541 269.133 189.541 268.191 189.541H264.945H261.688H260.286ZM229.227 184.365C229.227 184.365 229.227 183.897 229.227 182.963V179.706V176.46V175.047H230.629H233.886H237.132H238.545C238.545 175.047 238.545 175.518 238.545 176.46V179.706V182.963V184.365C238.545 184.365 238.074 184.365 237.132 184.365H233.886H230.629H229.227ZM244.756 184.365C244.756 184.365 244.756 183.897 244.756 182.963V179.706V176.46V175.047H246.158H249.415H252.661H254.074C254.074 175.047 254.074 175.518 254.074 176.46V179.706V182.963V184.365C254.074 184.365 253.603 184.365 252.661 184.365H249.415H246.158H244.756ZM260.286 184.365C260.286 184.365 260.286 183.897 260.286 182.963V179.706V176.46V175.047H261.688H264.945H268.191H269.603C269.603 175.047 269.603 175.518 269.603 176.46V179.706V182.963V184.365C269.603 184.365 269.133 184.365 268.191 184.365H264.945H261.688H260.286ZM229.227 179.188C229.227 179.188 229.227 178.721 229.227 177.786V174.529V171.283V169.871H230.629H233.886H237.132H238.545C238.545 169.871 238.545 170.341 238.545 171.283V174.529V177.786V179.188C238.545 179.188 238.074 179.188 237.132 179.188H233.886H230.629H229.227ZM242.168 179.188C242.168 179.188 242.168 178.721 242.168 177.786V174.529V171.283V169.871H243.57H246.827H250.073H251.486C251.486 169.871 251.486 170.341 251.486 171.283V174.529V177.786V179.188C251.486 179.188 251.015 179.188 250.073 179.188H246.827H243.57H242.168ZM247.345 179.188C247.345 179.188 247.345 178.721 247.345 177.786V174.529V171.283V169.871H248.747H252.003H255.25H256.662C256.662 169.871 256.662 170.341 256.662 171.283V174.529V177.786V179.188C256.662 179.188 256.191 179.188 255.25 179.188H252.003H248.747H247.345ZM260.286 179.188C260.286 179.188 260.286 178.721 260.286 177.786V174.529V171.283V169.871H261.688H264.945H268.191H269.603C269.603 169.871 269.603 170.341 269.603 171.283V174.529V177.786V179.188C269.603 179.188 269.133 179.188 268.191 179.188H264.945H261.688H260.286ZM229.227 174.012C229.227 174.012 229.227 173.544 229.227 172.61V169.353V166.107V164.694H230.629H233.886H237.132H238.545C238.545 164.694 238.545 165.165 238.545 166.107V169.353V172.61V174.012C238.545 174.012 238.074 174.012 237.132 174.012H233.886H230.629H229.227ZM239.58 174.012C239.58 174.012 239.58 173.544 239.58 172.61V169.353V166.107V164.694H240.982H244.239H247.485H248.898C248.898 164.694 248.898 165.165 248.898 166.107V169.353V172.61V174.012C248.898 174.012 248.427 174.012 247.485 174.012H244.239H240.982H239.58ZM249.933 174.012C249.933 174.012 249.933 173.544 249.933 172.61V169.353V166.107V164.694H251.335H254.592H257.838H259.251C259.251 164.694 259.251 165.165 259.251 166.107V169.353V172.61V174.012C259.251 174.012 258.78 174.012 257.838 174.012H254.592H251.335H249.933ZM260.286 174.012C260.286 174.012 260.286 173.544 260.286 172.61V169.353V166.107V164.694H261.688H264.945H268.191H269.603C269.603 164.694 269.603 165.165 269.603 166.107V169.353V172.61V174.012C269.603 174.012 269.133 174.012 268.191 174.012H264.945H261.688H260.286ZM229.227 168.835C229.227 168.835 229.227 168.368 229.227 167.433V164.176V160.93V159.518H230.629H233.886H237.132H238.545C238.545 159.518 238.545 159.989 238.545 160.93V164.176V167.433V168.835C238.545 168.835 238.074 168.835 237.132 168.835H233.886H230.629H229.227ZM236.992 168.835C236.992 168.835 236.992 168.368 236.992 167.433V164.176V160.93V159.518H238.394H241.651H244.897H246.309C246.309 159.518 246.309 159.989 246.309 160.93V164.176V167.433V168.835C246.309 168.835 245.838 168.835 244.897 168.835H241.651H238.394H236.992ZM252.521 168.835C252.521 168.835 252.521 168.368 252.521 167.433V164.176V160.93V159.518H253.923H257.18H260.426H261.839C261.839 159.518 261.839 159.989 261.839 160.93V164.176V167.433V168.835C261.839 168.835 261.368 168.835 260.426 168.835H257.18H253.923H252.521ZM260.286 168.835C260.286 168.835 260.286 168.368 260.286 167.433V164.176V160.93V159.518H261.688H264.945H268.191H269.603C269.603 159.518 269.603 159.989 269.603 160.93V164.176V167.433V168.835C269.603 168.835 269.133 168.835 268.191 168.835H264.945H261.688H260.286ZM229.227 163.659C229.227 163.659 229.227 163.192 229.227 162.257V159V155.754V154.341H230.629H233.886H237.132H238.545C238.545 154.341 238.545 154.812 238.545 155.754V159V162.257V163.659C238.545 163.659 238.074 163.659 237.132 163.659H233.886H230.629H229.227ZM234.403 163.659C234.403 163.659 234.403 163.192 234.403 162.257V159V155.754V154.341H235.805H239.062H242.308H243.721C243.721 154.341 243.721 154.812 243.721 155.754V159V162.257V163.659C243.721 163.659 243.25 163.659 242.308 163.659H239.062H235.805H234.403ZM255.109 163.659C255.109 163.659 255.109 163.192 255.109 162.257V159V155.754V154.341H256.511H259.768H263.014H264.427C264.427 154.341 264.427 154.812 264.427 155.754V159V162.257V163.659C264.427 163.659 263.956 163.659 263.014 163.659H259.768H256.511H255.109ZM260.286 163.659C260.286 163.659 260.286 163.192 260.286 162.257V159V155.754V154.341H261.688H264.945H268.191H269.603C269.603 154.341 269.603 154.812 269.603 155.754V159V162.257V163.659C269.603 163.659 269.133 163.659 268.191 163.659H264.945H261.688H260.286ZM229.227 158.482C229.227 158.482 229.227 158.015 229.227 157.08V153.824V150.577V149.165H230.629H233.886H237.132H238.545C238.545 149.165 238.545 149.636 238.545 150.577V153.824V157.08V158.482C238.545 158.482 238.074 158.482 237.132 158.482H233.886H230.629H229.227ZM260.286 158.482C260.286 158.482 260.286 158.015 260.286 157.08V153.824V150.577V149.165H261.688H264.945H268.191H269.603C269.603 149.165 269.603 149.636 269.603 150.577V153.824V157.08V158.482C269.603 158.482 269.133 158.482 268.191 158.482H264.945H261.688H260.286ZM229.227 153.306C229.227 153.306 229.227 152.839 229.227 151.904V148.647V145.401V143.988H230.629H233.886H237.132H238.545C238.545 143.988 238.545 144.459 238.545 145.401V148.647V151.904V153.306C238.545 153.306 238.074 153.306 237.132 153.306H233.886H230.629H229.227ZM260.286 153.306C260.286 153.306 260.286 152.839 260.286 151.904V148.647V145.401V143.988H261.688H264.945H268.191H269.603C269.603 143.988 269.603 144.459 269.603 145.401V148.647V151.904V153.306C269.603 153.306 269.133 153.306 268.191 153.306H264.945H261.688H260.286ZM280.805 205.071C280.805 205.071 280.805 204.6 280.805 203.658V200.412V197.166V195.753H282.207H285.464H288.71H290.123C290.123 195.753 290.123 196.224 290.123 197.166V200.412V203.658V205.071C290.123 205.071 289.652 205.071 288.71 205.071H285.464H282.207H280.805ZM301.511 205.071C301.511 205.071 301.511 204.6 301.511 203.658V200.412V197.166V195.753H302.913H306.17H309.416H310.829C310.829 195.753 310.829 196.224 310.829 197.166V200.412V203.658V205.071C310.829 205.071 310.358 205.071 309.416 205.071H306.17H302.913H301.511ZM280.805 199.894C280.805 199.894 280.805 199.427 280.805 198.492V195.235V191.989V190.576H282.207H285.464H288.71H290.123C290.123 190.576 290.123 191.047 290.123 191.989V195.235V198.492V199.894C290.123 199.894 289.652 199.894 288.71 199.894H285.464H282.207H280.805ZM301.511 199.894C301.511 199.894 301.511 199.427 301.511 198.492V195.235V191.989V190.576H302.913H306.17H309.416H310.829C310.829 190.576 310.829 191.047 310.829 191.989V195.235V198.492V199.894C310.829 199.894 310.358 199.894 309.416 199.894H306.17H302.913H301.511ZM280.805 194.718C280.805 194.718 280.805 194.25 280.805 193.316V190.059V186.813V185.4H282.207H285.464H288.71H290.123C290.123 185.4 290.123 185.871 290.123 186.813V190.059V193.316V194.718C290.123 194.718 289.652 194.718 288.71 194.718H285.464H282.207H280.805ZM301.511 194.718C301.511 194.718 301.511 194.25 301.511 193.316V190.059V186.813V185.4H302.913H306.17H309.416H310.829C310.829 185.4 310.829 185.871 310.829 186.813V190.059V193.316V194.718C310.829 194.718 310.358 194.718 309.416 194.718H306.17H302.913H301.511ZM280.805 189.541C280.805 189.541 280.805 189.074 280.805 188.139V184.882V181.636V180.224H282.207H285.464H288.71H290.123C290.123 180.224 290.123 180.694 290.123 181.636V184.882V188.139V189.541C290.123 189.541 289.652 189.541 288.71 189.541H285.464H282.207H280.805ZM285.982 189.541C285.982 189.541 285.982 189.074 285.982 188.139V184.882V181.636V180.224H287.384H290.64H293.886H295.299C295.299 180.224 295.299 180.694 295.299 181.636V184.882V188.139V189.541C295.299 189.541 294.828 189.541 293.886 189.541H290.64H287.384H285.982ZM291.158 189.541C291.158 189.541 291.158 189.074 291.158 188.139V184.882V181.636V180.224H292.56H295.817H299.063H300.476C300.476 180.224 300.476 180.694 300.476 181.636V184.882V188.139V189.541C300.476 189.541 300.005 189.541 299.063 189.541H295.817H292.56H291.158ZM296.335 189.541C296.335 189.541 296.335 189.074 296.335 188.139V184.882V181.636V180.224H297.736H300.993H304.239H305.652C305.652 180.224 305.652 180.694 305.652 181.636V184.882V188.139V189.541C305.652 189.541 305.181 189.541 304.239 189.541H300.993H297.736H296.335ZM301.511 189.541C301.511 189.541 301.511 189.074 301.511 188.139V184.882V181.636V180.224H302.913H306.17H309.416H310.829C310.829 180.224 310.829 180.694 310.829 181.636V184.882V188.139V189.541C310.829 189.541 310.358 189.541 309.416 189.541H306.17H302.913H301.511ZM280.805 184.365C280.805 184.365 280.805 183.897 280.805 182.963V179.706V176.46V175.047H282.207H285.464H288.71H290.123C290.123 175.047 290.123 175.518 290.123 176.46V179.706V182.963V184.365C290.123 184.365 289.652 184.365 288.71 184.365H285.464H282.207H280.805ZM301.511 184.365C301.511 184.365 301.511 183.897 301.511 182.963V179.706V176.46V175.047H302.913H306.17H309.416H310.829C310.829 175.047 310.829 175.518 310.829 176.46V179.706V182.963V184.365C310.829 184.365 310.358 184.365 309.416 184.365H306.17H302.913H301.511ZM280.805 179.188C280.805 179.188 280.805 178.721 280.805 177.786V174.529V171.283V169.871H282.207H285.464H288.71H290.123C290.123 169.871 290.123 170.341 290.123 171.283V174.529V177.786V179.188C290.123 179.188 289.652 179.188 288.71 179.188H285.464H282.207H280.805ZM301.511 179.188C301.511 179.188 301.511 178.721 301.511 177.786V174.529V171.283V169.871H302.913H306.17H309.416H310.829C310.829 169.871 310.829 170.341 310.829 171.283V174.529V177.786V179.188C310.829 179.188 310.358 179.188 309.416 179.188H306.17H302.913H301.511ZM280.805 174.012C280.805 174.012 280.805 173.544 280.805 172.61V169.353V166.107V164.694H282.207H285.464H288.71H290.123C290.123 164.694 290.123 165.165 290.123 166.107V169.353V172.61V174.012C290.123 174.012 289.652 174.012 288.71 174.012H285.464H282.207H280.805ZM301.511 174.012C301.511 174.012 301.511 173.544 301.511 172.61V169.353V166.107V164.694H302.913H306.17H309.416H310.829C310.829 164.694 310.829 165.165 310.829 166.107V169.353V172.61V174.012C310.829 174.012 310.358 174.012 309.416 174.012H306.17H302.913H301.511ZM280.805 168.835C280.805 168.835 280.805 168.368 280.805 167.433V164.176V160.93V159.518H282.207H285.464H288.71H290.123C290.123 159.518 290.123 159.989 290.123 160.93V164.176V167.433V168.835C290.123 168.835 289.652 168.835 288.71 168.835H285.464H282.207H280.805ZM301.511 168.835C301.511 168.835 301.511 168.368 301.511 167.433V164.176V160.93V159.518H302.913H306.17H309.416H310.829C310.829 159.518 310.829 159.989 310.829 160.93V164.176V167.433V168.835C310.829 168.835 310.358 168.835 309.416 168.835H306.17H302.913H301.511ZM283.393 163.659C283.393 163.659 283.393 163.192 283.393 162.257V159V155.754V154.341H284.795H288.052H291.298H292.711C292.711 154.341 292.711 154.812 292.711 155.754V159V162.257V163.659C292.711 163.659 292.24 163.659 291.298 163.659H288.052H284.795H283.393ZM298.923 163.659C298.923 163.659 298.923 163.192 298.923 162.257V159V155.754V154.341H300.325H303.582H306.828H308.24C308.24 154.341 308.24 154.812 308.24 155.754V159V162.257V163.659C308.24 163.659 307.769 163.659 306.828 163.659H303.582H300.325H298.923ZM285.982 158.482C285.982 158.482 285.982 158.015 285.982 157.08V153.824V150.577V149.165H287.384H290.64H293.886H295.299C295.299 149.165 295.299 149.636 295.299 150.577V153.824V157.08V158.482C295.299 158.482 294.828 158.482 293.886 158.482H290.64H287.384H285.982ZM296.335 158.482C296.335 158.482 296.335 158.015 296.335 157.08V153.824V150.577V149.165H297.736H300.993H304.239H305.652C305.652 149.165 305.652 149.636 305.652 150.577V153.824V157.08V158.482C305.652 158.482 305.181 158.482 304.239 158.482H300.993H297.736H296.335ZM288.57 153.306C288.57 153.306 288.57 152.839 288.57 151.904V148.647V145.401V143.988H289.972H293.229H296.475H297.887C297.887 143.988 297.887 144.459 297.887 145.401V148.647V151.904V153.306C297.887 153.306 297.417 153.306 296.475 153.306H293.229H289.972H288.57ZM293.746 153.306C293.746 153.306 293.746 152.839 293.746 151.904V148.647V145.401V143.988H295.148H298.405H301.651H303.064C303.064 143.988 303.064 144.459 303.064 145.401V148.647V151.904V153.306C303.064 153.306 302.593 153.306 301.651 153.306H298.405H295.148H293.746Z" fill="white"/>
<defs>
<clipPath id="clip0_481_21524">
<rect width="269" height="110" fill="white" transform="translate(35)"/>
</clipPath>
</defs>
</svg>
