<svg width="315" height="174" viewBox="0 0 315 174" fill="none" xmlns="http://www.w3.org/2000/svg">
<path d="M46.7551 174V155.357H65.4571V174H46.7551ZM46.7551 158.464V139.821H65.4571V158.464H46.7551ZM0 142.929V124.286H18.702V142.929H0ZM15.585 142.929V124.286H34.287V142.929H15.585ZM31.17 142.929V124.286H49.8721V142.929H31.17ZM46.7551 142.929V124.286H65.4571V142.929H46.7551ZM62.3401 142.929V124.286H81.0421V142.929H62.3401ZM77.9251 142.929V124.286H96.6271V142.929H77.9251ZM0 127.393V108.75H18.702V127.393H0ZM46.7551 127.393V108.75H65.4571V127.393H46.7551ZM0 111.857V93.2143H18.702V111.857H0ZM46.7551 111.857V93.2143H65.4571V111.857H46.7551ZM7.79251 96.3214V77.6786H26.4945V96.3214H7.79251ZM15.585 80.7857V62.1429H34.287V80.7857H15.585ZM23.3775 65.25V46.6071H42.0795V65.25H23.3775ZM31.17 49.7143V31.0714H49.8721V49.7143H31.17ZM38.9625 34.1786V15.5357H57.6646V34.1786H38.9625ZM46.7551 18.6429V0H65.4571V18.6429H46.7551Z" fill="white"/>
<path d="M132.564 174V155.357H151.266V174H132.564ZM148.149 174V155.357H166.851V174H148.149ZM163.734 174V155.357H182.436V174H163.734ZM116.979 158.464V139.821H135.681V158.464H116.979ZM179.319 158.464V139.821H198.021V158.464H179.319ZM116.979 142.929V124.286H135.681V142.929H116.979ZM179.319 142.929V124.286H198.021V142.929H179.319ZM116.979 127.393V108.75H135.681V127.393H116.979ZM179.319 127.393V108.75H198.021V127.393H179.319ZM116.979 111.857V93.2143H135.681V111.857H116.979ZM179.319 111.857V93.2143H198.021V111.857H179.319ZM116.979 96.3214V77.6786H135.681V96.3214H116.979ZM179.319 96.3214V77.6786H198.021V96.3214H179.319ZM116.979 80.7857V62.1429H135.681V80.7857H116.979ZM179.319 80.7857V62.1429H198.021V80.7857H179.319ZM116.979 65.25V46.6071H135.681V65.25H116.979ZM179.319 65.25V46.6071H198.021V65.25H179.319ZM116.979 49.7143V31.0714H135.681V49.7143H116.979ZM179.319 49.7143V31.0714H198.021V49.7143H179.319ZM116.979 34.1786V15.5357H135.681V34.1786H116.979ZM179.319 34.1786V15.5357H198.021V34.1786H179.319ZM132.564 18.6429V0H151.266V18.6429H132.564ZM148.149 18.6429V0H166.851V18.6429H148.149ZM163.734 18.6429V0H182.436V18.6429H163.734ZM148.149 111.857V93.2143H166.851V111.857H148.149ZM148.149 96.3214V77.6786H166.851V96.3214H148.149ZM148.149 80.7857V62.1429H166.851V80.7857H148.149Z" fill="white"/>
<path d="M265.128 174V155.357H283.83V174H265.128ZM265.128 158.464V139.821H283.83V158.464H265.128ZM218.373 142.929V124.286H237.075V142.929H218.373ZM233.958 142.929V124.286H252.66V142.929H233.958ZM249.543 142.929V124.286H268.245V142.929H249.543ZM265.128 142.929V124.286H283.83V142.929H265.128ZM280.713 142.929V124.286H299.415V142.929H280.713ZM296.298 142.929V124.286H315V142.929H296.298ZM218.373 127.393V108.75H237.075V127.393H218.373ZM265.128 127.393V108.75H283.83V127.393H265.128ZM218.373 111.857V93.2143H237.075V111.857H218.373ZM265.128 111.857V93.2143H283.83V111.857H265.128ZM226.165 96.3214V77.6786H244.867V96.3214H226.165ZM233.958 80.7857V62.1429H252.66V80.7857H233.958ZM241.75 65.25V46.6071H260.452V65.25H241.75ZM249.543 49.7143V31.0714H268.245V49.7143H249.543ZM257.335 34.1786V15.5357H276.037V34.1786H257.335ZM265.128 18.6429V0H283.83V18.6429H265.128Z" fill="white"/>
</svg>
