<svg width="120" height="48" viewBox="0 0 120 48" fill="none" xmlns="http://www.w3.org/2000/svg">
<path d="M0.157227 6.76338H6.91986V41.2147H0.157227V6.76338Z" fill="white"/>
<path d="M13.2075 6.76338H20.3212L32.9461 27.2316L35.3007 31.9438L35.0504 6.76338H41.7632V41.2147H34.6993L22.0745 20.7968L19.67 15.9838L19.9702 41.2147H13.2075V6.76338Z" fill="white"/>
<path d="M82.8462 6.76338H89.6088V41.2147H82.8462V6.76338Z" fill="white"/>
<path d="M95.896 6.76338H119.842V12.1845H102.659V20.7979H117.938V26.1687H102.659V35.7946H119.842V41.2158H95.896V6.76447V6.76338Z" fill="white"/>
<path d="M65.8878 48.1021H58.7199C57.4576 48.1021 56.4336 47.0665 56.4336 45.7899V43.5215C56.4336 42.2448 57.4576 41.2092 58.7199 41.2092H65.8878C67.1502 41.2092 68.1742 42.2448 68.1742 43.5215V45.7899C68.1742 47.0665 67.1502 48.1021 65.8878 48.1021ZM58.7362 46.3236H65.8716C66.1717 46.3236 66.4155 46.077 66.4155 45.7734V43.539C66.4155 43.2355 66.1717 42.9889 65.8716 42.9889H58.7362C58.4361 42.9889 58.1922 43.2355 58.1922 43.539V45.7734C58.1922 46.077 58.4361 46.3236 58.7362 46.3236Z" fill="white"/>
<path d="M62.3045 -0.100986C62.3045 -0.100986 46.5601 -0.503161 46.5601 15.2836C46.5601 25.6876 56.4835 36.7184 58.0764 38.3918C58.3061 38.6351 58.5802 38.806 58.8479 38.7721C59.2326 38.7414 59.4991 38.4554 59.5034 38.1365C59.5067 37.8789 59.4103 37.7321 59.187 37.4154C58.0157 35.7201 50.7914 24.8657 51.2086 15.3954C51.6323 5.78372 62.3056 6.00837 62.3056 6.00837C62.3056 6.00837 72.98 5.78262 73.4026 15.3954C73.8197 24.8657 66.5955 35.7201 65.4242 37.4154C65.2009 37.731 65.1045 37.8789 65.1077 38.1365C65.1121 38.4554 65.3775 38.7414 65.7633 38.7721C66.0309 38.806 66.3051 38.6351 66.5348 38.3918C68.1266 36.7184 78.0511 25.6876 78.0511 15.2836C78.0511 -0.503161 62.3067 -0.100986 62.3067 -0.100986H62.3045Z" fill="white"/>
</svg>
