<svg aria-hidden="true" style="width: 0px; height: 0px; overflow: hidden; position: absolute;" xmlns="http://www.w3.org/2000/svg">
    <symbol id="bell_icon" viewBox="0 0 30 30">
      <path d="M15.0001 2.5C12.6795 2.5 10.4539 3.42187 8.81291 5.06282C7.17197 6.70376 6.2501 8.92936 6.2501 11.25V15.66C6.25028 15.8539 6.20534 16.0452 6.11885 16.2188L3.9726 20.51C3.86775 20.7197 3.81825 20.9526 3.82878 21.1868C3.83931 21.421 3.90954 21.6485 4.03278 21.8479C4.15602 22.0473 4.32819 22.2119 4.53293 22.326C4.73767 22.4401 4.96819 22.5 5.2026 22.5H24.7976C25.032 22.5 25.2625 22.4401 25.4673 22.326C25.672 22.2119 25.8442 22.0473 25.9674 21.8479C26.0907 21.6485 26.1609 21.421 26.1714 21.1868C26.1819 20.9526 26.1324 20.7197 26.0276 20.51L23.8826 16.2188C23.7957 16.0453 23.7503 15.854 23.7501 15.66V11.25C23.7501 8.92936 22.8282 6.70376 21.1873 5.06282C19.5463 3.42187 17.3207 2.5 15.0001 2.5ZM15.0001 26.25C14.2243 26.2502 13.4676 26.0099 12.834 25.5622C12.2005 25.1145 11.7214 24.4813 11.4626 23.75H18.5376C18.2788 24.4813 17.7997 25.1145 17.1662 25.5622C16.5326 26.0099 15.7759 26.2502 15.0001 26.25Z"/>
    </symbol>
    <symbol id="user_icon" viewBox="0 0 24 24">
      <path fill-rule="evenodd" clip-rule="evenodd" d="M12 1.5C6.20101 1.5 1.5 6.20101 1.5 12C1.5 17.799 6.20101 22.5 12 22.5C17.799 22.5 22.5 17.799 22.5 12C22.5 9.21523 21.3938 6.54451 19.4246 4.57538C17.4555 2.60625 14.7848 1.5 12 1.5ZM12 5.25C13.864 5.25 15.375 6.76104 15.375 8.625C15.375 10.489 13.864 12 12 12C10.136 12 8.625 10.489 8.625 8.625C8.623 7.72928 8.97794 6.86968 9.61131 6.23631C10.2447 5.60294 11.1043 5.248 12 5.25ZM18 18.69C14.5928 21.7699 9.40715 21.7699 6 18.69V18.255C5.94089 16.1178 7.61352 14.3314 9.75 14.25H14.25C16.3757 14.3353 18.0425 16.1055 18 18.2325V18.69Z"/>
    </symbol>
    <symbol id="search_icon" viewBox="0 0 21 21">
      <path d="M20.2645 19.207L14.602 13.5145C17.414 10.1216 17.0631 5.11779 13.8051 2.15056C10.5471 -0.816669 5.53238 -0.699622 2.41638 2.41638C-0.699622 5.53238 -0.816669 10.5471 2.15056 13.8051C5.11779 17.0631 10.1216 17.414 13.5145 14.602L19.207 20.2645L20.2645 19.207ZM1.5145 8.2645C1.5145 4.53658 4.53657 1.5145 8.2645 1.5145C11.9924 1.5145 15.0145 4.53658 15.0145 8.2645C15.0145 11.9924 11.9924 15.0145 8.2645 15.0145C4.53657 15.0145 1.5145 11.9924 1.5145 8.2645Z"/>
    </symbol>
    <symbol id="vk_icon" viewBox="0 0 35 35">
      <g clip-path="url(#clip0_4016_138)">
      <rect x="3.20801" y="3.20801" width="28.5833" height="28.5833" fill="white"/>
      <path d="M1.6975 1.6975C-0.875 4.2945 -0.875 8.44725 -0.875 16.765V18.235C-0.875 26.5405 -0.875 30.6933 1.6975 33.3025C4.2945 35.875 8.44725 35.875 16.765 35.875H18.235C26.5405 35.875 30.6933 35.875 33.3025 33.3025C35.875 30.7055 35.875 26.5527 35.875 18.235V16.765C35.875 8.4595 35.875 4.30675 33.3025 1.6975C30.7055 -0.875 26.5527 -0.875 18.235 -0.875H16.765C8.4595 -0.875 4.30675 -0.875 1.6975 1.6975ZM5.3235 10.3092H9.5375C9.67225 17.3162 12.7593 20.2808 15.2093 20.8932V10.3092H19.166V16.3485C21.5793 16.0912 24.1273 13.335 24.9848 10.297H28.9293C28.6077 11.8697 27.9653 13.3591 27.0421 14.6722C26.1189 15.9854 24.9348 17.094 23.5638 17.9288C25.0938 18.69 26.4451 19.7671 27.5283 21.089C28.6116 22.4108 29.4022 23.9474 29.848 25.5972H25.4993C24.5683 22.694 22.2408 20.44 19.166 20.1338V25.5972H18.676C10.297 25.5972 5.5195 19.8643 5.3235 10.3092Z" fill="#0077FF"/>
      </g>
      <defs>
      <clipPath id="clip0_4016_138">
      <rect width="35" height="35" rx="17.5" fill="white"/>
      </clipPath>
      </defs>
    </symbol>
    <symbol id="tg_icon" viewBox="0 0 35 35">
      <g clip-path="url(#clip0_4016_141)">
      <path d="M17.5 0C12.8598 0 8.40547 1.84488 5.12695 5.12559C1.84505 8.40759 0.000909097 12.8586 0 17.5C0 22.1394 1.8457 26.5937 5.12695 29.8744C8.40547 33.1551 12.8598 35 17.5 35C22.1402 35 26.5945 33.1551 29.873 29.8744C33.1543 26.5937 35 22.1394 35 17.5C35 12.8606 33.1543 8.40629 29.873 5.12559C26.5945 1.84488 22.1402 0 17.5 0Z" fill="#229ED9"/>
      <path d="M7.92148 17.3151C13.0238 15.0926 16.4254 13.6272 18.1262 12.9193C22.9879 10.8978 23.9969 10.5467 24.6559 10.5348C24.8008 10.5324 25.1234 10.5683 25.334 10.7385C25.509 10.882 25.5582 11.0762 25.5828 11.2125C25.6047 11.3487 25.6348 11.659 25.6102 11.9013C25.3477 14.6685 24.2074 21.3835 23.6277 24.483C23.3844 25.7944 22.9004 26.234 22.4328 26.277C21.4156 26.3705 20.6445 25.6054 19.6602 24.9604C18.1207 23.9506 17.2512 23.3222 15.7555 22.337C14.0273 21.1984 15.1484 20.5725 16.1328 19.5499C16.3898 19.2822 20.8687 15.2093 20.9535 14.8399C20.9644 14.7937 20.9754 14.6214 20.8715 14.5307C20.7703 14.4396 20.6199 14.4708 20.5105 14.4954C20.3547 14.5304 17.8965 16.1568 13.1277 19.3743C12.4305 19.8539 11.7988 20.0877 11.2301 20.0754C10.6066 20.062 9.40351 19.7221 8.50937 19.4317C7.41562 19.0755 6.54335 18.8871 6.61992 18.2819C6.6582 17.9669 7.09296 17.6446 7.92148 17.3151Z" fill="white"/>
      </g>
      <defs>
      <clipPath id="clip0_4016_141">
      <rect width="35" height="35" fill="white"/>
      </clipPath>
      </defs>
    </symbol>
    <symbol id="yt_icon" viewBox="0 0 35 35">
      <g clip-path="url(#clip0_4016_144)">
      <path d="M34.227 5.45903C34.0263 4.40389 33.6347 3.44195 33.0912 2.669C32.5478 1.89605 31.8714 1.33906 31.1295 1.0535C28.4135 0 17.4823 0 17.4823 0C17.4823 0 6.5505 0.0318888 3.83444 1.08539C3.09254 1.37097 2.41618 1.92799 1.87272 2.70097C1.32927 3.47395 0.937674 4.43593 0.73694 5.49111C-0.0846026 12.3546 -0.403294 22.813 0.759499 29.4019C0.960253 30.4571 1.35186 31.419 1.89531 32.192C2.43877 32.9649 3.11511 33.5219 3.857 33.8075C6.57305 34.861 17.5045 34.861 17.5045 34.861C17.5045 34.861 28.4359 34.861 31.1518 33.8075C31.8937 33.5219 32.5701 32.965 33.1136 32.192C33.6571 31.4191 34.0487 30.4571 34.2494 29.4019C35.116 22.5287 35.383 12.0767 34.227 5.45903Z" fill="#FF0000"/>
      <path d="M14.0029 24.9005L23.0712 17.4304L14.0029 9.96021V24.9005Z" fill="white"/>
      </g>
      <defs>
      <clipPath id="clip0_4016_144">
      <rect width="35" height="35" rx="17.5" fill="white"/>
      </clipPath>
      </defs>
    </symbol>
    <symbol id="google_share_icon" viewBox="0 0 16 16">
      <path d="M14.6606 8.12463C14.6606 7.57837 14.6152 7.17974 14.517 6.76636H8.13306V9.2319H11.8803C11.8048 9.84463 11.3968 10.7674 10.4902 11.3874L10.4775 11.47L12.496 12.9979L12.6358 13.0115C13.9201 11.8525 14.6606 10.1473 14.6606 8.12463Z"/>
      <path d="M8.13306 14.6208C9.96889 14.6208 11.5101 14.0302 12.6358 13.0115L10.4902 11.3875C9.91603 11.7787 9.1454 12.0518 8.13306 12.0518C6.33498 12.0518 4.80889 10.8929 4.26488 9.29102L4.18514 9.29763L2.08629 10.8848L2.05884 10.9593C3.17696 13.1296 5.47368 14.6208 8.13306 14.6208Z"/>
      <path d="M4.26468 9.29105C4.12113 8.87767 4.03806 8.43472 4.03806 7.97706C4.03806 7.51935 4.12113 7.07645 4.25712 6.66306L4.25332 6.57502L2.12817 4.9624L2.05863 4.99472C1.5978 5.89533 1.33337 6.90668 1.33337 7.97706C1.33337 9.04744 1.5978 10.0587 2.05863 10.9594L4.26468 9.29105Z"/>
      <path d="M8.13306 3.90216C9.40983 3.90216 10.2711 4.44104 10.7622 4.89137L12.6811 3.06063C11.5026 1.99025 9.96889 1.33325 8.13306 1.33325C5.47368 1.33325 3.17696 2.8244 2.05884 4.99468L4.25733 6.66302C4.80889 5.06114 6.33498 3.90216 8.13306 3.90216Z"/>
    </symbol>
    <symbol id="vk_share_icon" viewBox="0 0 16 16">
      <path d="M15.1,4.4c0.1-0.3,0-0.6-0.5-0.6H13c-0.4,0-0.6,0.2-0.7,0.4c0,0-0.8,1.9-2,3.1C9.9,7.8,9.7,7.9,9.5,7.9c-0.1,0-0.3-0.1-0.3-0.4v-3c0-0.4-0.1-0.6-0.5-0.6H6.2C6,3.9,5.8,4,5.8,4.2c0,0.4,0.6,0.5,0.7,1.5v2.2c0,0.5-0.1,0.6-0.3,0.6c-0.6,0-1.9-1.9-2.7-4.1C3.3,4,3.1,3.9,2.7,3.9H1.1c-0.5,0-0.6,0.2-0.6,0.4c0,0.4,0.6,2.4,2.6,5.1c1.4,1.8,3.3,2.8,5,2.8c1,0,1.2-0.2,1.2-0.6v-1.4c0-0.4,0.1-0.5,0.4-0.5c0.2,0,0.7,0.1,1.6,1c1.1,1,1.3,1.5,1.9,1.5h1.6c0.5,0,0.7-0.2,0.6-0.6c-0.1-0.4-0.7-1-1.4-1.8c-0.4-0.4-1-0.9-1.1-1.1c-0.2-0.3-0.2-0.4,0-0.7C12.9,7.9,14.9,5.3,15.1,4.4z"/>
    </symbol>
    <symbol id="ya_share_icon" viewBox="0 0 16 16">
      <path d="M8.7,9.6L6.3,15H4.6l2.6-5.7C5.9,8.6,5.1,7.5,5.1,5.4C5.1,2.5,7,1,9.2,1h2.3v14H9.9V9.6H8.7z M9.9,2.3H9.1c-1.2,0-2.4,0.8-2.4,3.1c0,2.3,1.1,3,2.4,3h0.8V2.3z"/>
    </symbol>
    <symbol id="like_icon" viewBox="0 0 18 18">
      <path d="M14.625 6.18752H11.25V3.37502C11.368 2.25044 10.5521 1.24311 9.4275 1.12502C9.2855 1.10815 9.142 1.10815 9 1.12502H8.11688C7.73016 1.13562 7.39946 1.40619 7.3125 1.78315V1.85065L6.75 5.4169L4.75875 8.43752H1.125V16.3125H11.8125C15.9975 16.3125 16.875 13.8656 16.875 11.8125V8.43752C16.993 7.31294 16.1771 6.30561 15.0525 6.18752C14.9105 6.17065 14.767 6.17065 14.625 6.18752ZM4.5 15.1875H2.25V9.56252H4.5V15.1875ZM15.75 11.8125C15.75 14.1131 14.5012 15.1875 11.8125 15.1875H5.625V9.16877L7.875 5.83315L8.28562 2.81252L8.36438 2.25002H9C9.81 2.25002 10.125 2.56502 10.125 3.37502V7.31252H14.625C15.435 7.31252 15.75 7.62752 15.75 8.43752V11.8125Z"/>
    </symbol>
    <symbol id="filled_like_icon" viewBox="0 0 18 18">
      <path d="M14.625 6.18752H11.25V3.37502C11.368 2.25044 10.5521 1.24311 9.4275 1.12502C9.2855 1.10815 9.142 1.10815 9 1.12502H8.11688C7.73016 1.13562 7.39946 1.40619 7.3125 1.78315V1.85065L6.75 5.4169L4.75875 8.43752H1.125V16.3125H11.8125C15.9975 16.3125 16.875 13.8656 16.875 11.8125V8.43752C16.993 7.31294 16.1771 6.30561 15.0525 6.18752C14.9105 6.17065 14.767 6.17065 14.625 6.18752ZM4.5 15.1875H2.25V9.56252H4.5V15.1875Z"/>
    </symbol>
    <symbol id="dislike_icon" viewBox="0 0 18 18">
      <path d="M15.0525 11.8125C16.1771 11.6944 16.993 10.6871 16.875 9.5625V6.1875C16.875 4.13437 15.9975 1.6875 11.8125 1.6875H1.125V9.5625H4.75875L6.75 12.5831L7.3125 16.1494V16.2169C7.39946 16.5938 7.73016 16.8644 8.11688 16.875H9C9.142 16.8919 9.2855 16.8919 9.4275 16.875C10.5521 16.7569 11.368 15.7496 11.25 14.625V11.8125H14.625C14.767 11.8294 14.9105 11.8294 15.0525 11.8125ZM4.5 8.4375H2.25V2.8125H4.5V8.4375ZM15.75 9.5625C15.75 10.3725 15.435 10.6875 14.625 10.6875H10.125V14.625C10.125 15.435 9.81 15.75 9 15.75H8.36438L8.28562 15.1875L7.875 12.1669L5.625 8.83125V2.8125H11.8125C14.5012 2.8125 15.75 3.88687 15.75 6.1875V9.5625Z"/>
    </symbol>
    <symbol id="filled_dislike_icon" viewBox="0 0 18 18">
      <path d="M15.0525 11.8125C16.1771 11.6944 16.993 10.6871 16.875 9.5625V6.1875C16.875 4.13437 15.9975 1.6875 11.8125 1.6875H1.125V9.5625H4.75875L6.75 12.5831L7.3125 16.1494V16.2169C7.39946 16.5938 7.73016 16.8644 8.11688 16.875H9C9.142 16.8919 9.2855 16.8919 9.4275 16.875C10.5521 16.7569 11.368 15.7496 11.25 14.625V11.8125H14.625C14.767 11.8294 14.9105 11.8294 15.0525 11.8125ZM4.5 8.4375H2.25V2.8125H4.5V8.4375Z"/>
    </symbol>
</svg>
