<?xml version="1.0" encoding="utf-8"?>
<!-- Generator: Adobe Illustrator 19.2.1, SVG Export Plug-In . SVG Version: 6.00 Build 0)  -->
<svg version="1.1" id="Слой_1" xmlns="http://www.w3.org/2000/svg" xmlns:xlink="http://www.w3.org/1999/xlink" x="0px" y="0px"
	 viewBox="0 0 30 30" style="enable-background:new 0 0 30 30;" xml:space="preserve">
<style type="text/css">
	.st0{fill:#F3C547;}
</style>
<path d="M5.2,10.2L5.2,10.2c-1,0-1.7,0.7-1.7,1.6V19c0,0.9,0.7,1.6,1.6,1.6h0.1c0.9,0,1.6-0.7,1.6-1.6v-7.1c0-0.4-0.2-0.8-0.5-1.2C6,10.4,5.6,10.2,5.2,10.2z M7.6,21.7c0,0.8,0.7,1.5,1.5,1.5h1.6v3.9c0,0.9,0.7,1.6,1.6,1.6h0.1c0.9,0,1.6-0.7,1.6-1.6v-3.9h2.2v3.9c0,0.9,0.7,1.6,1.6,1.6h0.1c0.9,0,1.6-0.7,1.6-1.6v-3.9H21c0.8,0,1.5-0.7,1.5-1.5V10.5H7.6V21.7z M18.7,3.7l1.3-2c0,0,0-0.1,0-0.1c0,0,0-0.1,0-0.1c0,0,0-0.1,0-0.1c0,0,0-0.1-0.1-0.1c0,0-0.1,0-0.1,0c0,0-0.1,0-0.1,0c0,0-0.1,0-0.1,0c0,0-0.1,0-0.1,0.1l-1.3,2c-1-0.4-2.1-0.6-3.2-0.6c-1.1,0-2.2,0.2-3.2,0.6l-1.3-2c0,0,0-0.1-0.1-0.1c0,0-0.1,0-0.1,0s-0.1,0-0.1,0c0,0-0.1,0-0.1,0c0,0-0.1,0-0.1,0.1c0,0,0,0.1,0,0.1c0,0,0,0.1,0,0.1c0,0,0,0.1,0,0.1l1.3,2C9,4.8,7.5,6.9,7.5,9.4c0,0.2,0,0.3,0,0.4h15c0-0.1,0-0.3,0-0.4C22.5,6.9,21,4.8,18.7,3.7z M11.5,7.2c-0.2,0-0.4-0.1-0.5-0.2c-0.1-0.1-0.2-0.3-0.2-0.5c0-0.2,0.1-0.4,0.2-0.5c0.1-0.1,0.3-0.2,0.5-0.2c0.2,0,0.4,0.1,0.5,0.2c0.1,0.1,0.2,0.3,0.2,0.5c0,0.2-0.1,0.4-0.2,0.5S11.7,7.2,11.5,7.2z M18.5,7.2c-0.1,0-0.2,0-0.3-0.1C18.1,7.1,18,7,18,7c-0.1-0.1-0.2-0.3-0.2-0.5c0-0.2,0.1-0.4,0.2-0.5c0.1-0.1,0.3-0.2,0.5-0.2c0.2,0,0.4,0.1,0.5,0.2c0.1,0.1,0.2,0.3,0.2,0.5c0,0.2-0.1,0.4-0.2,0.5C18.8,7.1,18.7,7.2,18.5,7.2z M24.9,10.2L24.9,10.2c-1,0-1.7,0.7-1.7,1.6V19c0,0.9,0.7,1.6,1.6,1.6h0.1c0.9,0,1.6-0.7,1.6-1.6v-7.1C26.5,11,25.8,10.2,24.9,10.2z"/>
</svg>
