<?xml version="1.0" encoding="utf-8"?>
<!-- Generator: Adobe Illustrator 19.2.1, SVG Export Plug-In . SVG Version: 6.00 Build 0)  -->
<svg version="1.1" id="Слой_1" xmlns="http://www.w3.org/2000/svg" xmlns:xlink="http://www.w3.org/1999/xlink" x="0px" y="0px"
	 viewBox="0 0 24 24" style="enable-background:new 0 0 24 24;" xml:space="preserve">
<path d="M19,22.8H5c-1.5,0-2.8-1.2-2.8-2.8V6c0-1.5,1.2-2.8,2.8-2.8h2.3V2c0-0.4,0.3-0.8,0.8-0.8S8.8,1.6,8.8,2v1.3h6.5V2c0-0.4,0.3-0.8,0.8-0.8s0.8,0.3,0.8,0.8v1.3H19c1.5,0,2.8,1.2,2.8,2.8v14C21.8,21.5,20.5,22.8,19,22.8z M3.8,10.8V20c0,0.7,0.6,1.3,1.3,1.3h14c0.7,0,1.3-0.6,1.3-1.3v-9.3H3.8z M3.8,9.3h16.5V6c0-0.7-0.6-1.3-1.3-1.3h-2.3V6c0,0.4-0.3,0.8-0.8,0.8S15.3,6.4,15.3,6V4.8H8.8V6c0,0.4-0.3,0.8-0.8,0.8S7.3,6.4,7.3,6V4.8H5C4.3,4.8,3.8,5.3,3.8,6V9.3z M16,18.8c-0.4,0-0.8-0.3-0.8-0.8s0.3-0.8,0.7-0.8h0c0.4,0,0.8,0.3,0.8,0.8S16.4,18.8,16,18.8z M12,18.8c-0.4,0-0.8-0.3-0.8-0.8s0.3-0.8,0.7-0.8h0c0.4,0,0.8,0.3,0.8,0.8S12.4,18.8,12,18.8z M8,18.8c-0.4,0-0.8-0.3-0.8-0.8s0.3-0.8,0.7-0.8h0c0.4,0,0.8,0.3,0.8,0.8S8.4,18.8,8,18.8z M16,14.8c-0.4,0-0.8-0.3-0.8-0.8s0.3-0.8,0.7-0.8h0c0.4,0,0.8,0.3,0.8,0.8S16.4,14.8,16,14.8z M12,14.8c-0.4,0-0.8-0.3-0.8-0.8s0.3-0.8,0.7-0.8h0c0.4,0,0.8,0.3,0.8,0.8S12.4,14.8,12,14.8z M8,14.8c-0.4,0-0.8-0.3-0.8-0.8s0.3-0.8,0.7-0.8h0c0.4,0,0.8,0.3,0.8,0.8S8.4,14.8,8,14.8z"/>
</svg>
