<?xml version="1.0" encoding="utf-8"?>
<!-- Generator: Adobe Illustrator 19.2.1, SVG Export Plug-In . SVG Version: 6.00 Build 0)  -->
<svg version="1.1" id="Слой_1" xmlns="http://www.w3.org/2000/svg" xmlns:xlink="http://www.w3.org/1999/xlink" x="0px" y="0px"
	 viewBox="0 0 20 20" style="enable-background:new 0 0 20 20;" xml:space="preserve">
<path d="M10,19.1c-1.3,0-2.6-0.3-3.8-0.9c-0.1,0-0.3-0.1-0.5,0L2.9,19c-0.3,0.1-0.6,0.1-0.8,0c-0.3-0.1-0.5-0.2-0.7-0.4C1.2,18.5,1.1,18.2,1,18c-0.1-0.3-0.1-0.5,0-0.8l0.9-2.8c0-0.1,0-0.3-0.1-0.4C0.9,12,0.7,9.8,1.2,7.7C1.7,5.7,3,3.9,4.7,2.6c1.7-1.2,3.9-1.8,6-1.7c2.1,0.2,4.1,1.1,5.7,2.6C17.9,5,18.9,7,19,9.2c0.2,2.1-0.4,4.3-1.6,6c-1.2,1.8-3,3-5.1,3.6C11.6,19,10.8,19.1,10,19.1z M10,2.4c-1.6,0-3.1,0.5-4.4,1.4c-1.5,1-2.5,2.6-2.9,4.3c-0.4,1.7-0.3,3.6,0.5,5.2c0,0,0,0,0,0c0.2,0.5,0.2,0.9,0.1,1.4l-0.9,2.8l0.3,0.7l-0.2-0.7l2.8-0.8c0.5-0.1,1-0.1,1.4,0.1c1.7,0.8,3.5,0.9,5.2,0.5c1.7-0.5,3.2-1.5,4.3-3c1-1.5,1.5-3.2,1.3-5s-1-3.4-2.2-4.7c-1.3-1.3-2.9-2-4.7-2.2C10.4,2.4,10.2,2.4,10,2.4z"/>
</svg>
