<svg width="20" height="20" viewBox="0 0 20 20" fill="none" xmlns="http://www.w3.org/2000/svg">
<path d="M10 1.875C6.55375 1.875 3.75 4.67875 3.75 8.125C3.75 11.5712 6.55375 14.375 10 14.375C13.4462 14.375 16.25 11.5712 16.25 8.125C16.25 4.67875 13.4462 1.875 10 1.875ZM10 3.125C12.7569 3.125 15 5.36813 15 8.125C15 10.8819 12.7569 13.125 10 13.125C7.24312 13.125 5 10.8819 5 8.125C5 5.36813 7.24312 3.125 10 3.125ZM9.375 4.375V5.11875C8.92434 5.2826 8.55118 5.60894 8.32875 6.03375C8.13503 6.40775 8.07673 6.83727 8.16375 7.24937C8.24066 7.60792 8.41898 7.9368 8.6775 8.19687C8.84812 8.3675 9.05125 8.50563 9.275 8.60125C9.49875 8.69688 9.74375 8.75 10 8.75C10.0887 8.75 10.1725 8.76688 10.2475 8.7975C10.3217 8.8277 10.3892 8.87246 10.4459 8.92914C10.5025 8.98581 10.5473 9.05326 10.5775 9.1275C10.6081 9.2025 10.625 9.28625 10.625 9.375C10.6277 9.49812 10.5931 9.61917 10.5257 9.72225C10.4584 9.82532 10.3614 9.90559 10.2475 9.9525C10.1725 9.98312 10.0887 10 10 10C9.91063 10 9.8275 9.98312 9.7525 9.9525C9.67832 9.9222 9.61096 9.87736 9.55437 9.82063C9.49645 9.76193 9.45076 9.69231 9.41997 9.61581C9.38918 9.53931 9.37389 9.45746 9.375 9.375H8.125C8.12507 9.86129 8.31764 10.3278 8.66063 10.6725C8.86134 10.8772 9.10547 11.0342 9.375 11.1319V11.875H10.625V11.1312C10.9401 11.0183 11.2196 10.8236 11.4349 10.5672C11.6501 10.3108 11.7934 10.0018 11.85 9.67188C11.9272 9.20319 11.8201 8.72281 11.5513 8.33125C11.4156 8.13158 11.2434 7.95939 11.0437 7.82375C10.8414 7.68641 10.6142 7.58963 10.375 7.53875C10.2517 7.51301 10.126 7.50003 10 7.5C9.91063 7.5 9.8275 7.48312 9.7525 7.4525C9.67826 7.4223 9.61081 7.37754 9.55414 7.32086C9.49746 7.26419 9.4527 7.19674 9.4225 7.1225C9.39073 7.04387 9.3746 6.9598 9.375 6.875C9.375 6.78562 9.39188 6.7025 9.4225 6.6275C9.4527 6.55326 9.49746 6.48581 9.55414 6.42914C9.61081 6.37246 9.67826 6.3277 9.7525 6.2975C9.8275 6.26688 9.91125 6.25 10 6.25C10.3562 6.25 10.625 6.51875 10.625 6.875H11.875C11.8752 6.6788 11.8439 6.48384 11.7825 6.2975C11.6905 6.02669 11.5387 5.7801 11.3383 5.57603C11.1379 5.37196 10.8941 5.21566 10.625 5.11875V4.375H9.375ZM1.25 13.125V18.125H2.5V14.375H5.8625C5.33253 14.0206 4.84953 13.6006 4.425 13.125H1.25ZM15.575 13.125C15.1505 13.6006 14.6675 14.0206 14.1375 14.375H17.5V18.125H18.75V13.125H15.575ZM3.75 15.625V16.875H16.25V15.625H3.75Z" fill="black"/>
</svg>
