<?xml version="1.0" encoding="utf-8"?>
<!-- Generator: Adobe Illustrator 19.2.1, SVG Export Plug-In . SVG Version: 6.00 Build 0)  -->
<svg version="1.1" id="Слой_1" xmlns="http://www.w3.org/2000/svg" xmlns:xlink="http://www.w3.org/1999/xlink" x="0px" y="0px"
	 viewBox="0 0 20 20" style="enable-background:new 0 0 20 20;" xml:space="preserve">
<style type="text/css">
	.st0{fill:#DC7C44;}
</style>
<g>
	<path d="M10,11.1c-0.1,0-0.3,0-0.4-0.1L5.2,7.9C4.9,7.7,4.8,7.3,5,7C5.2,6.7,5.7,6.6,6,6.8l4,2.8l4-2.8C14.3,6.6,14.8,6.7,15,7c0.2,0.3,0.1,0.7-0.2,0.9L10.4,11C10.3,11.1,10.1,11.1,10,11.1z"/>
	<path d="M17.1,16.8H2.9c-0.6,0-1.3-0.3-1.7-0.7c-0.5-0.5-0.7-1.1-0.7-1.7V5.6c0-0.6,0.3-1.3,0.7-1.7s1.1-0.7,1.7-0.7h14.1c0.6,0,1.3,0.3,1.7,0.7c0.5,0.5,0.7,1.1,0.7,1.7v8.8c0,0.6-0.3,1.3-0.7,1.7C18.3,16.6,17.7,16.8,17.1,16.8z M2.9,4.5c-0.3,0-0.6,0.1-0.8,0.3C1.9,5,1.8,5.3,1.8,5.6v8.8c0,0.3,0.1,0.6,0.3,0.8c0.2,0.2,0.5,0.3,0.8,0.3h14.1c0.3,0,0.6-0.1,0.8-0.3c0.2-0.2,0.3-0.5,0.3-0.8V5.6c0-0.3-0.1-0.6-0.3-0.8c-0.2-0.2-0.5-0.3-0.8-0.3H2.9z"/>
</g>
</svg>
