<svg width="20" height="20" viewBox="0 0 20 20" fill="none" xmlns="http://www.w3.org/2000/svg">
<path d="M15.1053 18.8889C14.8598 18.8887 14.6199 18.8152 14.4164 18.6778L10.272 15.9C10.2516 15.8859 10.2273 15.8784 10.2025 15.8784C10.1777 15.8784 10.1535 15.8859 10.1331 15.9L5.98865 18.6778C5.78053 18.8168 5.53507 18.8891 5.28486 18.8853C5.03464 18.8814 4.79151 18.8016 4.58776 18.6563C4.38401 18.511 4.22926 18.3072 4.14409 18.0719C4.05891 17.8366 4.04732 17.5809 4.11087 17.3389L5.47198 12.5389C5.47842 12.5148 5.47764 12.4893 5.46974 12.4656C5.46184 12.4419 5.44717 12.421 5.42754 12.4056L1.50532 9.32224C1.29884 9.16842 1.14568 8.95384 1.06731 8.70858C0.988938 8.46332 0.989293 8.19968 1.06832 7.95463C1.14735 7.70959 1.30109 7.49542 1.50798 7.34215C1.71487 7.18889 1.96454 7.10422 2.22198 7.10002L7.22198 6.91113C7.24657 6.90943 7.27013 6.90066 7.28985 6.88588C7.30956 6.87109 7.32458 6.85092 7.33309 6.82779L9.05531 2.14446C9.14212 1.90704 9.2998 1.70203 9.50698 1.55718C9.71416 1.41234 9.96085 1.33466 10.2136 1.33466C10.4664 1.33466 10.7131 1.41234 10.9203 1.55718C11.1275 1.70203 11.2852 1.90704 11.372 2.14446L13.0942 6.82779C13.1027 6.85092 13.1177 6.87109 13.1374 6.88588C13.1572 6.90066 13.1807 6.90943 13.2053 6.91113L18.2053 7.10002C18.4628 7.10422 18.7124 7.18889 18.9193 7.34215C19.1262 7.49542 19.2799 7.70959 19.359 7.95463C19.438 8.19968 19.4384 8.46332 19.36 8.70858C19.2816 8.95384 19.1285 9.16842 18.922 9.32224L14.9998 12.4056C14.9795 12.4205 14.9644 12.4413 14.9565 12.4652C14.9485 12.4891 14.9481 12.5148 14.9553 12.5389L16.3164 17.3389C16.3642 17.523 16.3689 17.7157 16.3303 17.9019C16.2916 18.0881 16.2106 18.263 16.0935 18.4129C15.9764 18.5627 15.8263 18.6836 15.6549 18.7662C15.4836 18.8487 15.2955 18.8907 15.1053 18.8889ZM10.2053 14.7667C10.4513 14.7742 10.6894 14.8555 10.8886 15L15.0331 17.7778C15.0541 17.7938 15.0797 17.8025 15.1061 17.8027C15.1325 17.8029 15.1582 17.7946 15.1795 17.779C15.2007 17.7633 15.2163 17.7412 15.224 17.716C15.2317 17.6908 15.231 17.6637 15.222 17.6389L13.8609 12.8389C13.7939 12.6034 13.7988 12.3533 13.8751 12.1207C13.9513 11.8881 14.0953 11.6835 14.2886 11.5333L18.2109 8.45002C18.2323 8.43499 18.2483 8.41349 18.2566 8.38869C18.2648 8.36389 18.2649 8.33709 18.2569 8.31222C18.2488 8.28736 18.2329 8.26574 18.2117 8.25054C18.1904 8.23535 18.1648 8.22737 18.1386 8.22779L13.1386 8.03891C12.8938 8.02936 12.6574 7.94712 12.4595 7.80266C12.2616 7.6582 12.1112 7.45807 12.0275 7.22779L10.3053 2.54446C10.2976 2.5196 10.282 2.49786 10.2611 2.48243C10.2401 2.46699 10.2147 2.45867 10.1886 2.45867C10.1626 2.45867 10.1372 2.46699 10.1162 2.48243C10.0953 2.49786 10.0797 2.5196 10.072 2.54446L8.36643 7.22224C8.28273 7.45251 8.13235 7.65264 7.93446 7.7971C7.73657 7.94156 7.50014 8.02381 7.25532 8.03335L2.25532 8.22224C2.22917 8.22182 2.20358 8.22979 2.18231 8.24499C2.16103 8.26018 2.14519 8.2818 2.13711 8.30667C2.12902 8.33153 2.12913 8.35834 2.13741 8.38314C2.14568 8.40794 2.1617 8.42943 2.18309 8.44446L6.11087 11.5333C6.30362 11.684 6.4472 11.8886 6.52338 12.121C6.59955 12.3535 6.60487 12.6034 6.53865 12.8389L5.18309 17.6389C5.175 17.6629 5.17496 17.689 5.18298 17.713C5.191 17.7371 5.20664 17.7579 5.22754 17.7722C5.24766 17.7895 5.27328 17.7989 5.29976 17.7989C5.32624 17.7989 5.35186 17.7895 5.37198 17.7722L9.51643 14.9945C9.71897 14.8601 9.9567 14.7886 10.1998 14.7889L10.2053 14.7667Z" fill="black"/>
</svg>
