<svg width="20" height="20" viewBox="0 0 20 20" fill="none" xmlns="http://www.w3.org/2000/svg">
<path d="M2.09976 9.59648C6.39553 7.76205 9.25939 6.55256 10.6913 5.96824C14.7845 4.29969 15.634 4.0099 16.1888 4.00009C16.3108 3.99817 16.5825 4.02773 16.7597 4.16823C16.9071 4.28672 16.9485 4.44696 16.9692 4.55947C16.9876 4.67186 17.013 4.92802 16.9922 5.12799C16.7712 7.412 15.8113 12.9546 15.3232 15.5128C15.1183 16.5952 14.7108 16.9581 14.3172 16.9936C13.4608 17.0707 12.8116 16.4393 11.9828 15.9068C10.6867 15.0734 9.95463 14.5547 8.69536 13.7416C7.24042 12.8018 8.18429 12.2852 9.01306 11.4411C9.22946 11.2201 13.0003 7.85842 13.0717 7.55351C13.0809 7.51536 13.0901 7.37318 13.0027 7.29825C12.9175 7.22309 12.7909 7.24882 12.6988 7.26913C12.5675 7.29802 10.4979 8.64044 6.48301 11.2962C5.89597 11.692 5.36418 11.885 4.88534 11.8748C4.36045 11.8638 3.34751 11.5833 2.59472 11.3436C1.67386 11.0495 0.939483 10.894 1.00394 10.3945C1.03617 10.1345 1.40221 9.86844 2.09976 9.59648Z"/>
</svg>
