<svg width="35" height="35" viewBox="0 0 35 35" fill="none" xmlns="http://www.w3.org/2000/svg">
<g clip-path="url(#clip0_4016_138)">
<rect x="3.20801" y="3.20801" width="28.5833" height="28.5833" fill="white"/>
<path d="M1.6975 1.6975C-0.875 4.2945 -0.875 8.44725 -0.875 16.765V18.235C-0.875 26.5405 -0.875 30.6933 1.6975 33.3025C4.2945 35.875 8.44725 35.875 16.765 35.875H18.235C26.5405 35.875 30.6933 35.875 33.3025 33.3025C35.875 30.7055 35.875 26.5527 35.875 18.235V16.765C35.875 8.4595 35.875 4.30675 33.3025 1.6975C30.7055 -0.875 26.5527 -0.875 18.235 -0.875H16.765C8.4595 -0.875 4.30675 -0.875 1.6975 1.6975ZM5.3235 10.3092H9.5375C9.67225 17.3162 12.7593 20.2808 15.2093 20.8932V10.3092H19.166V16.3485C21.5793 16.0912 24.1273 13.335 24.9848 10.297H28.9293C28.6077 11.8697 27.9653 13.3591 27.0421 14.6722C26.1189 15.9854 24.9348 17.094 23.5638 17.9288C25.0938 18.69 26.4451 19.7671 27.5283 21.089C28.6116 22.4108 29.4022 23.9474 29.848 25.5972H25.4993C24.5683 22.694 22.2408 20.44 19.166 20.1338V25.5972H18.676C10.297 25.5972 5.5195 19.8643 5.3235 10.3092Z" fill="#0077FF"/>
</g>
<defs>
<clipPath id="clip0_4016_138">
<rect width="35" height="35" rx="17.5" fill="white"/>
</clipPath>
</defs>
</svg>
