<svg xmlns="http://www.w3.org/2000/svg" version="1.1" xmlns:xlink="http://www.w3.org/1999/xlink" width="1000" height="1000"><g clip-path="url(#SvgjsClipPath1117)"><rect width="1000" height="1000" fill="#ffffff"></rect><g transform="matrix(15.625,0,0,15.625,0,0)"><svg xmlns="http://www.w3.org/2000/svg" version="1.1" xmlns:xlink="http://www.w3.org/1999/xlink" width="64" height="64"><svg version="1.1" id="Слой_1" xmlns="http://www.w3.org/2000/svg" xmlns:xlink="http://www.w3.org/1999/xlink" x="0px" y="0px" viewBox="0 0 64 64" style="enable-background:new 0 0 64 64;" xml:space="preserve">
<style type="text/css">
	.st0{fill:#0D0F0F;}
</style>
<g>
	<path class="st0" d="M35.6,56.1h-7.2c-1.3,0-2.3-1-2.3-2.3v-2.3c0-1.3,1-2.3,2.3-2.3h7.2c1.3,0,2.3,1,2.3,2.3v2.3
		C37.9,55.1,36.8,56.1,35.6,56.1z M28.4,54.3h7.1c0.3,0,0.5-0.2,0.5-0.6v-2.2c0-0.3-0.2-0.6-0.5-0.6h-7.1c-0.3,0-0.5,0.2-0.5,0.6
		v2.2C27.9,54.1,28.1,54.3,28.4,54.3z"></path>
	<path class="st0" d="M32,7.9c0,0-15.7-0.4-15.7,15.4c0,10.4,9.9,21.4,11.5,23.1c0.2,0.2,0.5,0.4,0.8,0.4c0.4,0,0.7-0.3,0.7-0.6
		c0-0.3-0.1-0.4-0.3-0.7c-1.2-1.7-8.4-12.5-8-22C21.3,13.8,32,14,32,14s10.7-0.2,11.1,9.4c0.4,9.5-6.8,20.3-8,22
		c-0.2,0.3-0.3,0.5-0.3,0.7c0,0.3,0.3,0.6,0.7,0.6c0.3,0,0.5-0.1,0.8-0.4c1.6-1.7,11.5-12.7,11.5-23.1C47.7,7.5,32,7.9,32,7.9
		L32,7.9z"></path>
</g>
</svg></svg></g></g><defs><clipPath id="SvgjsClipPath1117"><rect width="1000" height="1000" x="0" y="0" rx="200" ry="200"></rect></clipPath></defs></svg>