<svg width="70" height="70" viewBox="0 0 70 70" fill="none" xmlns="http://www.w3.org/2000/svg">
<path d="M37.1875 19.6875V31.459L47.1461 26.4797C47.665 26.2201 48.2658 26.1772 48.8162 26.3605C49.3667 26.5439 49.8218 26.9384 50.0815 27.4572C50.3411 27.9761 50.3839 28.5769 50.2006 29.1274C50.0173 29.6779 49.6228 30.133 49.1039 30.3926L35.9789 36.9551C35.6455 37.1219 35.275 37.2008 34.9025 37.1842C34.53 37.1676 34.168 37.056 33.8508 36.8601C33.5335 36.6643 33.2716 36.3906 33.0899 36.065C32.9082 35.7394 32.8127 35.3728 32.8125 35V19.6875C32.8125 19.1074 33.043 18.551 33.4532 18.1407C33.8635 17.7305 34.4199 17.5 35 17.5C35.5802 17.5 36.1366 17.7305 36.5468 18.1407C36.957 18.551 37.1875 19.1074 37.1875 19.6875ZM35 59.0625C30.2409 59.0625 25.5887 57.6513 21.6316 55.0073C17.6745 52.3632 14.5904 48.6052 12.7692 44.2083C10.9479 39.8115 10.4714 34.9733 11.3999 30.3057C12.3283 25.638 14.6201 21.3505 17.9853 17.9853C21.3505 14.6201 25.638 12.3283 30.3057 11.3999C34.9733 10.4714 39.8115 10.9479 44.2083 12.7692C48.6052 14.5904 52.3632 17.6745 55.0073 21.6316C57.6513 25.5887 59.0625 30.2409 59.0625 35C59.0625 35.5802 59.293 36.1366 59.7032 36.5468C60.1134 36.957 60.6699 37.1875 61.25 37.1875C61.8302 37.1875 62.3866 36.957 62.7968 36.5468C63.207 36.1366 63.4375 35.5802 63.4375 35C63.4375 29.3756 61.7697 23.8775 58.6449 19.201C55.5202 14.5245 51.0788 10.8796 45.8826 8.72719C40.6863 6.57482 34.9685 6.01166 29.4521 7.10893C23.9358 8.2062 18.8687 10.9146 14.8917 14.8917C10.9146 18.8687 8.2062 23.9358 7.10893 29.4521C6.01166 34.9685 6.57482 40.6863 8.72719 45.8826C10.8796 51.0788 14.5245 55.5202 19.201 58.6449C23.8775 61.7697 29.3756 63.4375 35 63.4375C35.5802 63.4375 36.1366 63.207 36.5468 62.7968C36.957 62.3866 37.1875 61.8302 37.1875 61.25C37.1875 60.6699 36.957 60.1134 36.5468 59.7032C36.1366 59.293 35.5802 59.0625 35 59.0625ZM63.3637 60.6867C63.4438 60.9663 63.4674 61.2591 63.4331 61.5479C63.3988 61.8367 63.3072 62.1157 63.1637 62.3687C63.0203 62.6217 62.8278 62.8435 62.5976 63.0213C62.3674 63.199 62.104 63.329 61.8229 63.4037C61.5419 63.4784 61.2487 63.4964 60.9606 63.4564C60.6725 63.4165 60.3953 63.3195 60.1451 63.1712C59.895 63.0229 59.6769 62.8261 59.5037 62.5925C59.3305 62.3589 59.2056 62.093 59.1363 61.8106C58.3625 58.9039 55.6336 56.875 52.5 56.875C49.3664 56.875 46.6375 58.9039 45.8637 61.8106C45.7401 62.2769 45.4658 62.6892 45.0835 62.9835C44.7012 63.2777 44.2324 63.4373 43.75 63.4375C43.5599 63.4369 43.3706 63.4121 43.1867 63.3637C42.6262 63.2143 42.1479 62.8483 41.8571 62.3463C41.5664 61.8443 41.487 61.2473 41.6363 60.6867C42.3459 58.052 44.0146 55.7777 46.3149 54.3102C45.0902 53.0868 44.2559 51.5278 43.9175 49.8302C43.5791 48.1326 43.7518 46.3727 44.4138 44.7733C45.0758 43.1739 46.1973 41.8068 47.6364 40.8449C49.0755 39.883 50.7676 39.3696 52.4986 39.3696C54.2296 39.3696 55.9217 39.883 57.3609 40.8449C58.8 41.8068 59.9215 43.1739 60.5835 44.7733C61.2455 46.3727 61.4182 48.1326 61.0798 49.8302C60.7414 51.5278 59.9071 53.0868 58.6824 54.3102C60.9837 55.7772 62.6535 58.0516 63.3637 60.6867ZM48.125 48.125C48.125 48.9903 48.3816 49.8362 48.8623 50.5556C49.3431 51.2751 50.0263 51.8359 50.8258 52.167C51.6252 52.4981 52.5049 52.5848 53.3535 52.4159C54.2022 52.2471 54.9818 51.8305 55.5936 51.2186C56.2055 50.6068 56.6221 49.8272 56.7909 48.9785C56.9598 48.1299 56.8731 47.2502 56.542 46.4508C56.2109 45.6513 55.6501 44.9681 54.9306 44.4873C54.2112 44.0066 53.3653 43.75 52.5 43.75C51.3397 43.75 50.2269 44.2109 49.4064 45.0314C48.5859 45.8519 48.125 46.9647 48.125 48.125Z" fill="#FD7717"/>
</svg>
