<svg width="1517" height="241" viewBox="0 0 1517 241" fill="none" xmlns="http://www.w3.org/2000/svg">
<path d="M926.116 39.3609C925.555 37.4617 927.321 35.695 929.22 36.2545L971.556 48.7242C972.649 49.0461 972.998 50.4207 972.192 51.2252L966.609 56.7955C964.061 59.3382 964.064 63.4683 966.617 66.0064L972.068 71.4264C973.442 72.7931 973.445 75.0172 972.073 76.3863L969.199 79.2545L966.306 82.1402C964.938 83.5053 962.722 83.5037 961.357 82.1363L955.895 76.6666C953.359 74.127 949.245 74.1229 946.705 76.6578L941.094 82.2564C940.289 83.0596 938.918 82.7101 938.596 81.6197L926.116 39.3609Z" stroke="#E6E6E6" stroke-width="5"/>
<path d="M913.774 50.6493C914.028 50.3955 914.44 50.3956 914.694 50.6493C914.949 50.9037 914.949 51.3167 914.694 51.5711L910.233 56.0262C909.979 56.2801 909.566 56.2801 909.312 56.0262C909.057 55.7718 909.057 55.3588 909.312 55.1043L913.774 50.6493ZM902.375 37.1034H908.695C909.053 37.1034 909.344 37.3944 909.344 37.7528C909.344 38.111 909.053 38.4012 908.695 38.4012H902.375C902.016 38.4012 901.725 38.111 901.725 37.7528C901.725 37.3944 902.016 37.1034 902.375 37.1034ZM909.313 19.4764C909.567 19.223 909.979 19.2229 910.233 19.4764L914.695 23.9315C914.95 24.1859 914.949 24.5989 914.695 24.8534C914.441 25.1072 914.028 25.1073 913.774 24.8534L909.313 20.3983C909.058 20.1438 909.058 19.7309 909.313 19.4764ZM945.003 19.4764C945.258 19.2226 945.67 19.2226 945.924 19.4764C946.179 19.7308 946.179 20.1438 945.924 20.3983L941.462 24.8534C941.208 25.1072 940.797 25.1072 940.542 24.8534C940.288 24.5989 940.288 24.186 940.542 23.9315L945.003 19.4764ZM927.618 11.912C927.979 11.912 928.272 12.2049 928.272 12.5663V18.8534C928.272 19.2147 927.979 19.5076 927.618 19.5077C927.256 19.5077 926.963 19.2148 926.962 18.8534V12.5663C926.963 12.2049 927.256 11.912 927.618 11.912Z" stroke="#E6E6E6" stroke-width="5"/>
<path d="M136.784 156.045L136.731 155.982L136.675 155.918L117.671 134.526L117.599 134.448L117.527 134.369C106.594 122.8 89.1719 119.984 75.1561 127.521L36.2434 148.447C22.2276 155.983 15.0091 172.05 18.6887 187.52L18.713 187.624L18.7404 187.726L26.2096 215.321L26.2313 215.4L26.2548 215.479C29.5858 226.709 40.799 233.598 52.3368 231.508L52.7416 231.433C55.1057 231.006 57.3852 230.21 59.5031 229.071C66.6109 225.249 71.1945 217.903 71.5148 209.855L72.5071 199.971L72.5311 199.724L72.5394 199.474C72.5496 199.08 72.7701 198.719 73.1149 198.533L96.835 185.778C97.1801 185.592 97.6037 185.607 97.9399 185.815L98.1528 185.945L98.3731 186.061L107.196 190.667C114.112 194.824 122.783 195.042 129.893 191.219C132.011 190.08 133.93 188.618 135.595 186.874L135.871 186.587C143.962 178.124 144.353 164.993 136.784 156.045ZM130.865 181.82L130.589 182.109C129.404 183.351 128.058 184.364 126.608 185.143C121.681 187.793 115.57 187.728 110.597 184.658L101.574 179.947C99.1341 178.44 96.0731 178.346 93.5507 179.702L69.8307 192.457C67.3085 193.814 65.7049 196.416 65.6257 199.278L64.6122 209.386C64.4493 215.218 61.1463 220.346 56.2188 222.995C54.7696 223.775 53.181 224.339 51.4904 224.645L51.0947 224.717C43.0561 226.174 35.2048 221.347 32.8855 213.527L25.4163 185.931C22.4529 173.474 28.2412 160.592 39.5268 154.523L78.4395 133.598C89.725 127.529 103.695 129.786 112.499 139.103L131.503 160.495C136.776 166.727 136.504 175.922 130.865 181.82Z" fill="#E6E6E6"/>
<path d="M43.8954 167.369L36.5985 171.293L41.1211 179.662L32.7399 184.169L36.6763 191.453L45.0575 186.946L49.5817 195.318L56.8787 191.394L52.3544 183.022L60.7356 178.515L56.7992 171.231L48.418 175.738L43.8954 167.369Z" fill="#E6E6E6"/>
<path d="M93.242 150.416C95.7804 149.051 96.7262 145.894 95.358 143.362C93.9879 140.827 90.8241 139.88 88.2857 141.245C85.7506 142.608 84.8048 145.765 86.1749 148.3C87.5429 150.832 90.7069 151.779 93.242 150.416Z" fill="#E6E6E6"/>
<path d="M84.0511 155.354C81.516 156.717 80.5694 159.877 81.9367 162.407C83.3068 164.943 86.4732 165.891 89.0084 164.527C91.5453 163.163 92.4901 160.004 91.12 157.469C89.7527 154.939 86.588 153.99 84.0511 155.354Z" fill="#E6E6E6"/>
<path d="M98.191 159.58C95.6559 160.943 94.7101 164.1 96.0802 166.635C97.4484 169.167 100.612 170.114 103.147 168.751C105.686 167.386 106.632 164.229 105.263 161.697C103.893 159.162 100.729 158.215 98.191 159.58Z" fill="#E6E6E6"/>
<path d="M102.426 145.47C99.8904 146.834 98.9454 149.992 100.313 152.522C101.683 155.058 104.848 156.007 107.383 154.643C109.919 153.279 110.866 150.12 109.496 147.584C108.129 145.054 104.962 144.106 102.426 145.47Z" fill="#E6E6E6"/>
<path d="M1057.12 123.909L1017.35 139.76C1012.96 141.511 1010.82 146.486 1012.57 150.868L1040.37 220.314C1042.12 224.695 1047.12 226.827 1051.5 225.081L1091.27 209.229C1095.66 207.478 1097.8 202.492 1096.05 198.121L1068.25 128.675C1066.5 124.294 1061.51 122.158 1057.12 123.909ZM1092.08 199.704C1092.95 201.89 1091.89 204.388 1089.68 205.265L1049.92 221.117C1047.72 221.99 1045.22 220.927 1044.34 218.731L1016.54 149.285C1015.67 147.099 1016.73 144.601 1018.93 143.724L1058.7 127.872C1060.89 126.999 1063.4 128.062 1064.28 130.258L1092.08 199.704Z" fill="#E6E6E6"/>
<path d="M1058.31 132.635L1022.52 146.903C1021.42 147.342 1020.88 148.586 1021.32 149.684L1034.03 181.432C1034.47 182.53 1035.72 183.064 1036.82 182.625L1072.61 168.356C1073.71 167.918 1074.25 166.674 1073.81 165.576L1061.1 133.828C1060.65 132.734 1059.4 132.2 1058.31 132.635ZM1069.03 165.176L1037.22 177.858L1026.1 150.084L1057.91 137.402L1069.03 165.176ZM1054.61 188.192C1054.17 187.094 1052.92 186.56 1051.82 186.999L1048.84 188.189L1047.64 185.209C1047.2 184.111 1045.96 183.577 1044.86 184.015C1043.76 184.454 1043.22 185.698 1043.66 186.796L1044.85 189.776L1041.87 190.967C1040.77 191.405 1040.23 192.649 1040.67 193.747C1041.11 194.845 1042.36 195.379 1043.46 194.94L1046.45 193.75L1047.64 196.73C1048.08 197.828 1049.32 198.362 1050.42 197.923C1051.53 197.485 1052.06 196.241 1051.62 195.143L1050.43 192.163L1053.41 190.972C1054.51 190.534 1055.05 189.29 1054.61 188.192ZM1069.23 184.594C1067.86 185.141 1067.19 186.692 1067.74 188.062C1068.29 189.432 1069.85 190.098 1071.22 189.551C1072.59 189.003 1073.26 187.452 1072.71 186.082C1072.17 184.723 1070.61 184.047 1069.23 184.594ZM1072.1 175.399C1070.73 175.946 1070.06 177.497 1070.61 178.867C1071.16 180.237 1072.71 180.903 1074.09 180.356C1075.46 179.808 1076.13 178.257 1075.58 176.887C1075.04 175.513 1073.48 174.852 1072.1 175.399ZM1064.9 201.793C1064.36 201.56 1063.73 201.811 1063.5 202.352L1061.11 207.913C1060.87 208.455 1061.13 209.082 1061.67 209.315C1061.95 209.434 1062.24 209.428 1062.49 209.328C1062.74 209.227 1062.96 209.029 1063.07 208.755L1065.46 203.194C1065.7 202.652 1065.45 202.025 1064.9 201.793ZM1069.46 199.976L1067.07 205.537C1066.84 206.078 1067.09 206.705 1067.63 206.938C1067.91 207.057 1068.2 207.051 1068.45 206.951C1068.7 206.851 1068.93 206.652 1069.04 206.378L1071.43 200.817C1071.53 200.558 1071.54 200.267 1071.43 200.007C1071.32 199.747 1071.12 199.539 1070.86 199.428C1070.6 199.318 1070.31 199.313 1070.05 199.415C1069.79 199.518 1069.58 199.719 1069.46 199.976Z" fill="#E6E6E6"/>
<path d="M1033.81 160.81C1034.06 160.71 1034.28 160.512 1034.39 160.238L1039.17 149.13C1039.28 148.871 1039.28 148.58 1039.17 148.32C1039.07 148.06 1038.86 147.852 1038.6 147.742C1038.34 147.631 1038.05 147.626 1037.79 147.729C1037.53 147.831 1037.32 148.032 1037.2 148.289L1032.43 159.396C1032.19 159.938 1032.45 160.565 1032.99 160.798C1033.26 160.921 1033.56 160.911 1033.81 160.81Z" fill="#E6E6E6"/>
<path d="M495.668 77.3655L537.395 88.7739L507.566 118.874L495.668 77.3655Z" stroke="#E6E6E6" stroke-width="7" stroke-linejoin="round"/>
<path d="M1476.01 94.0782C1496.62 94.0782 1513.32 77.408 1513.32 56.8442C1513.32 36.2804 1496.62 19.6102 1476.01 19.6102C1455.4 19.6102 1438.7 36.2804 1438.7 56.8442C1438.7 77.408 1455.4 94.0782 1476.01 94.0782Z" stroke="#E6E6E6" stroke-width="7" stroke-linejoin="round"/>
<path d="M1408.86 174.495L1363.64 156.588L1345.7 201.704L1390.91 219.61L1408.86 174.495Z" stroke="#E6E6E6" stroke-width="7" stroke-linejoin="round"/>
<path d="M562.801 174.112L583.681 225.537" stroke="#E6E6E6" stroke-width="7" stroke-linecap="round" stroke-linejoin="round"/>
<path d="M599.008 189.407L547.474 210.243" stroke="#E6E6E6" stroke-width="7" stroke-linecap="round" stroke-linejoin="round"/>
<path d="M132.927 8.9243L102.278 15.4886C92.0256 17.6843 85.4924 27.7902 87.7036 38.0324C89.9148 48.2746 100.041 54.8123 110.293 52.6166L140.943 46.0523C151.195 43.8566 157.728 33.7507 155.517 23.5085C153.306 13.2663 143.179 6.72858 132.927 8.9243ZM140.131 42.2915L109.481 48.8558C101.312 50.6055 93.2301 45.3879 91.4681 37.2261C89.706 29.0644 94.92 20.9991 103.09 19.2494L133.739 12.6851C141.909 10.9354 149.991 16.153 151.753 24.3148C153.515 32.4765 148.301 40.5418 140.131 42.2915Z" fill="#E6E6E6"/>
<path d="M129.65 17.4986L108.803 21.9631C107.762 22.186 107.102 23.206 107.327 24.246L111.279 42.552C111.504 43.5919 112.526 44.2518 113.567 44.0289L134.401 39.5673C135.442 39.3444 136.102 38.3243 135.877 37.2844L131.925 18.9784C131.716 17.9489 130.678 17.2786 129.65 17.4986ZM131.721 36.2076L131.708 36.2104L114.651 39.8632L111.513 25.3304L128.583 21.6748L131.721 36.2076Z" fill="#E6E6E6"/>
<path d="M104.11 32.5601L101.921 33.0288L101.449 30.8423C101.224 29.8024 100.202 29.1426 99.1611 29.3655C98.1201 29.5884 97.4607 30.6084 97.6852 31.6483L98.1574 33.8348L95.982 34.3006C94.941 34.5236 94.2815 35.5435 94.5061 36.5835C94.7306 37.6234 95.7528 38.2832 96.7937 38.0603L98.9825 37.5916L99.4546 39.7781C99.6791 40.818 100.701 41.4778 101.742 41.2549C102.783 41.032 103.443 40.012 103.218 38.9721L102.746 36.7856L104.921 36.3198C105.962 36.0969 106.622 35.0769 106.397 34.037C106.173 32.9971 105.151 32.3372 104.11 32.5601Z" fill="#E6E6E6"/>
<path d="M139.683 19.6001L137.628 20.0404C136.587 20.2634 135.927 21.2836 136.152 22.3237C136.376 23.3638 137.398 24.0238 138.44 23.8009L140.495 23.3606C141.536 23.1376 142.196 22.1174 141.971 21.0773C141.747 20.0372 140.725 19.3772 139.683 19.6001Z" fill="#E6E6E6"/>
<path d="M141.877 29.7806L139.821 30.2208C138.78 30.4438 138.12 31.464 138.345 32.5041C138.569 33.5442 139.592 34.2043 140.633 33.9813L142.689 33.541C143.73 33.3181 144.389 32.2979 144.165 31.2577C143.94 30.2176 142.918 29.5576 141.877 29.7806Z" fill="#E6E6E6"/>
<path d="M652.87 31.8142C654.706 30.9093 655.459 28.6907 654.552 26.8588C653.645 25.0269 651.422 24.2754 649.586 25.1803C647.75 26.0851 646.997 28.3038 647.904 30.1357C648.811 31.9676 651.034 32.7191 652.87 31.8142Z" fill="#E6E6E6"/>
<path d="M623.872 28.7243C626.164 27.5943 627.105 24.8238 625.972 22.5362C624.84 20.2486 622.064 19.3102 619.771 20.4402C617.479 21.5702 616.538 24.3407 617.67 26.6283C618.803 28.9159 621.579 29.8543 623.872 28.7243Z" fill="#E6E6E6"/>
<path d="M641.792 37.2747C643.628 36.3698 644.381 34.1511 643.474 32.3192C642.567 30.4873 640.344 29.7358 638.508 30.6407C636.672 31.5456 635.919 33.7642 636.826 35.5961C637.733 37.4281 639.956 38.1796 641.792 37.2747Z" fill="#E6E6E6"/>
<path d="M641.962 66.0419C649.064 62.5416 654.376 56.4913 656.919 49.0095C656.999 48.776 656.98 48.5198 656.869 48.3002C656.758 48.0807 656.561 47.912 656.327 47.8356L629.579 39.1684L638.937 12.7041C639.02 12.4715 639.004 12.2152 638.896 11.9924C638.788 11.7695 638.595 11.6008 638.362 11.522C630.862 8.98995 622.819 9.52295 615.718 13.0233C608.616 16.5236 603.304 22.5739 600.761 30.0557C598.216 37.5367 598.746 45.5573 602.251 52.6386C605.756 59.7199 611.818 65.0136 619.316 67.544C626.817 70.0753 634.861 69.5423 641.962 66.0419ZM602.515 30.6484C604.9 23.6336 609.878 17.9627 616.538 14.6801C622.915 11.5366 630.102 10.9457 636.875 12.9867L627.519 39.4461C627.435 39.6812 627.451 39.9391 627.561 40.1628C627.672 40.3865 627.869 40.5552 628.106 40.6323L654.85 49.2995C652.357 55.9056 647.52 61.2416 641.142 64.3851C634.482 67.6677 626.944 68.166 619.912 65.7932C612.88 63.4204 607.198 58.4591 603.911 51.8202C600.625 45.1812 600.13 37.6633 602.515 30.6484Z" fill="#E6E6E6" stroke="#E6E6E6" stroke-width="3"/>
</svg>
