<svg width="30" height="30" viewBox="0 0 30 30" fill="none" xmlns="http://www.w3.org/2000/svg">
<path d="M22.3213 6.70645C18.6331 5.93612 18.6111 8.5838 15.0048 8.5838C11.8847 8.5838 11.7677 5.96612 7.68821 6.70645C1.00823 7.91419 -0.0187404 22.6111 3.52501 23.3814C5.49247 23.8088 6.4837 21.5272 9.08497 19.8896C9.47111 20.175 9.91973 20.3643 10.3936 20.4418C10.8675 20.5192 11.3531 20.4826 11.81 20.3349C12.2669 20.1873 12.6821 19.9328 13.021 19.5927C13.36 19.2525 13.6129 18.8365 13.759 18.379C14.1729 18.3432 14.5881 18.3254 15.0035 18.3257C15.441 18.3257 15.8496 18.3445 16.2414 18.3783C16.3878 18.8358 16.6412 19.2519 16.9806 19.5919C17.3199 19.9319 17.7355 20.1861 18.1927 20.3334C18.6499 20.4807 19.1357 20.5169 19.6097 20.4389C20.0837 20.361 20.5323 20.1712 20.9183 19.8852C23.5228 21.5229 24.5141 23.8069 26.4821 23.3789C30.0253 22.6111 28.972 8.09501 22.3213 6.70645ZM8.64083 14.2207H7.10895V12.6631H5.5506V11.1313H7.10884V9.57309H8.64071V11.1306H10.1983V12.6625H8.64071V14.22L8.64083 14.2207ZM10.8805 19.4716C10.4825 19.4716 10.0936 19.3536 9.76274 19.1325C9.43189 18.9114 9.17404 18.5972 9.02177 18.2296C8.86951 17.8619 8.82967 17.4574 8.90731 17.0672C8.98494 16.6769 9.17656 16.3184 9.45793 16.0371C9.7393 15.7557 10.0978 15.5641 10.488 15.4865C10.8783 15.4088 11.2828 15.4487 11.6504 15.601C12.0181 15.7532 12.3323 16.0111 12.5533 16.342C12.7744 16.6728 12.8924 17.0618 12.8924 17.4597C12.8925 17.9933 12.6807 18.505 12.3036 18.8825C11.9264 19.2599 11.4147 19.472 10.8812 19.4722L10.8805 19.4716ZM19.1189 19.4716C18.721 19.4712 18.3322 19.3529 18.0015 19.1316C17.6709 18.9103 17.4133 18.5959 17.2614 18.2282C17.1094 17.8605 17.0698 17.456 17.1477 17.0658C17.2256 16.6757 17.4174 16.3174 17.6989 16.0362C17.9804 15.7551 18.339 15.5637 18.7292 15.4863C19.1195 15.4089 19.5239 15.4489 19.8914 15.6013C20.259 15.7537 20.573 16.0117 20.7939 16.3426C21.0148 16.6735 21.1327 17.0625 21.1325 17.4603C21.1325 17.7247 21.0804 17.9865 20.9792 18.2307C20.878 18.4749 20.7296 18.6967 20.5426 18.8836C20.3556 19.0704 20.1336 19.2186 19.8893 19.3196C19.645 19.4205 19.3832 19.4724 19.1188 19.4722L19.1189 19.4716ZM20.5067 12.9115C20.3059 12.9116 20.1096 12.8521 19.9427 12.7405C19.7757 12.629 19.6456 12.4705 19.5688 12.285C19.4919 12.0995 19.4718 11.8954 19.511 11.6985C19.5501 11.5016 19.6468 11.3207 19.7887 11.1788C19.9307 11.0368 20.1116 10.9401 20.3085 10.901C20.5054 10.8618 20.7095 10.8819 20.895 10.9588C21.0805 11.0356 21.239 11.1658 21.3505 11.3327C21.462 11.4997 21.5215 11.6959 21.5215 11.8967C21.5215 12.1659 21.4146 12.4241 21.2242 12.6144C21.0338 12.8048 20.7757 12.9117 20.5065 12.9117L20.5067 12.9115ZM22.705 15.11C22.5042 15.11 22.308 15.0505 22.141 14.9389C21.9741 14.8274 21.844 14.6689 21.7672 14.4834C21.6903 14.298 21.6702 14.0939 21.7094 13.897C21.7485 13.7001 21.8452 13.5192 21.9871 13.3773C22.1291 13.2353 22.3099 13.1386 22.5068 13.0994C22.7037 13.0603 22.9078 13.0804 23.0933 13.1572C23.2788 13.234 23.4373 13.3641 23.5488 13.531C23.6604 13.6979 23.7199 13.8941 23.7199 14.0949C23.72 14.2284 23.6937 14.3607 23.6426 14.4841C23.5915 14.6075 23.5165 14.7196 23.422 14.8139C23.3275 14.9083 23.2153 14.983 23.0918 15.0339C22.9683 15.0848 22.836 15.1109 22.7024 15.1106L22.705 15.11ZM22.705 10.7126C22.5042 10.7126 22.308 10.6531 22.141 10.5416C21.9741 10.4301 21.844 10.2715 21.7672 10.0861C21.6903 9.90061 21.6702 9.69652 21.7094 9.49962C21.7485 9.30272 21.8452 9.12186 21.9872 8.9799C22.1291 8.83794 22.31 8.74126 22.5069 8.70209C22.7038 8.66292 22.9079 8.68302 23.0933 8.75984C23.2788 8.83667 23.4373 8.96676 23.5489 9.13368C23.6604 9.3006 23.7199 9.49685 23.7199 9.6976C23.72 9.83116 23.6937 9.96341 23.6426 10.0868C23.5915 10.2102 23.5165 10.3222 23.422 10.4166C23.3275 10.5109 23.2152 10.5857 23.0918 10.6366C22.9683 10.6875 22.836 10.7135 22.7024 10.7132L22.705 10.7126ZM24.9033 12.9109C24.7025 12.9109 24.5063 12.8514 24.3394 12.7399C24.1725 12.6284 24.0424 12.4698 23.9655 12.2844C23.8887 12.0989 23.8686 11.8948 23.9078 11.6979C23.9469 11.501 24.0436 11.3202 24.1856 11.1782C24.3275 11.0362 24.5084 10.9396 24.7053 10.9004C24.9022 10.8612 25.1063 10.8813 25.2917 10.9582C25.4772 11.035 25.6357 11.1651 25.7472 11.332C25.8588 11.4989 25.9183 11.6952 25.9183 11.8959C25.9184 12.0295 25.8921 12.1618 25.841 12.2852C25.7899 12.4085 25.7149 12.5206 25.6203 12.615C25.5258 12.7093 25.4136 12.7841 25.2901 12.835C25.1666 12.8859 25.0343 12.9119 24.9007 12.9116L24.9033 12.9109Z" fill="#FFC931"/>
</svg>
