<svg width="12" height="30" viewBox="0 0 12 30" fill="none" xmlns="http://www.w3.org/2000/svg">
<path d="M6 1.46484C4.38768 1.46484 3.06053 2.63566 2.81754 4.17732C2.94055 4.16626 3.06399 4.16053 3.1875 4.16016C4.26305 4.16016 5.24725 4.56129 6 5.2207C6.75293 4.56141 7.73701 4.16016 8.8125 4.16016C8.9373 4.16016 9.06035 4.16678 9.18246 4.17732C8.93947 2.63572 7.61232 1.46484 6 1.46484ZM3.1875 5.21484C1.40145 5.21484 -0.0351562 6.65145 -0.0351562 8.4375C-0.0351562 9.33264 0.325781 10.1399 0.910547 10.7227H5.20107C4.78025 10.0608 4.53516 9.27715 4.53516 8.4375C4.53516 7.53322 4.81898 6.69363 5.30098 6.00152C4.73602 5.51133 3.99803 5.21484 3.1875 5.21484ZM8.8125 5.21484C7.02645 5.21484 5.58984 6.65145 5.58984 8.4375C5.58984 9.33264 5.95078 10.1399 6.53555 10.7227H11.0895C11.6742 10.1399 12.0352 9.33264 12.0352 8.4375C12.0352 6.65145 10.5986 5.21484 8.8125 5.21484ZM3.36844 11.7773L6 12.7343L8.63156 11.7773H3.36844ZM1.18201 12.1046L1.82625 14.252L4.45676 13.2955L1.18201 12.1046ZM10.818 12.1046L7.54318 13.2954L10.1737 14.252L10.818 12.1046ZM6 13.8566L2.72109 15.049L6 16.5062L9.27891 15.049L6 13.8566ZM2.36397 16.0444L2.91398 17.8778L4.70156 17.0832L2.36397 16.0444ZM9.63603 16.0444L7.29844 17.0832L9.08602 17.8778L9.63603 16.0444ZM6 17.6604L3.48539 18.7781L6 20.0353L8.51461 18.778L6 17.6604ZM3.54709 19.9881L3.87932 21.0957L4.82068 20.625L3.54709 19.9881ZM8.45291 19.9881L7.17932 20.625L8.12068 21.0957L8.45291 19.9881ZM6 21.2147L4.18693 22.1213L4.45436 23.0126L6.00006 23.7855L7.54576 23.0126L7.81313 22.1213L6 21.2146V21.2147ZM6 24.9647L5.16516 25.3821L6 28.1647L6.83484 25.382L6 24.9646V24.9647Z" fill="#FFC931"/>
</svg>
