<svg width="30" height="26" viewBox="0 0 30 26" fill="none" xmlns="http://www.w3.org/2000/svg">
<path d="M27.9796 6.662C27.9801 6.90498 27.9201 7.14426 27.8051 7.35828C27.69 7.57231 27.5236 7.75436 27.3207 7.88804C27.1178 8.02172 26.8848 8.10283 26.6428 8.12406C26.4007 8.14529 26.1572 8.10597 25.9341 8.00966L22.2843 16.814H7.69914L4.05226 8.01376C3.72269 8.15208 3.35392 8.16514 3.01539 8.05047C2.67686 7.93579 2.39194 7.70131 2.21428 7.39116C2.03662 7.08102 1.97849 6.71662 2.05083 6.36659C2.12316 6.01657 2.32098 5.70507 2.60703 5.49075C2.89307 5.27644 3.2476 5.1741 3.60386 5.20302C3.96011 5.23193 4.2935 5.3901 4.54124 5.64774C4.78898 5.90537 4.93397 6.2447 4.94892 6.60181C4.96386 6.95892 4.84773 7.30917 4.62238 7.58661L9.72004 11.7585L10.9458 4.35223C10.6007 4.29099 10.2891 4.10807 10.0674 3.83665C9.84563 3.56524 9.72857 3.22333 9.73741 2.87298C9.74625 2.52263 9.88041 2.18706 10.1155 1.92717C10.3507 1.66729 10.6712 1.50031 11.0189 1.45655C11.3666 1.41279 11.7185 1.49514 12.0107 1.68867C12.3029 1.88219 12.516 2.17406 12.6113 2.51129C12.7067 2.84853 12.678 3.20878 12.5305 3.52667C12.3829 3.84456 12.1263 4.099 11.8071 4.24384L14.9894 11.0993L18.178 4.22626C17.8609 4.07666 17.6079 3.81824 17.465 3.49794C17.3222 3.17765 17.299 2.81674 17.3997 2.48081C17.5004 2.14488 17.7183 1.85622 18.0137 1.66728C18.3092 1.47835 18.6626 1.40168 19.0098 1.45121C19.357 1.50074 19.6748 1.67318 19.9057 1.93719C20.1365 2.20121 20.265 2.53928 20.2677 2.88996C20.2704 3.24065 20.1473 3.58067 19.9206 3.84825C19.6939 4.11583 19.3787 4.2932 19.0323 4.34813L20.2587 11.7556L25.3716 7.57782C25.2252 7.39513 25.1248 7.18003 25.0786 6.95053C25.0325 6.72102 25.0421 6.48381 25.1065 6.25875C25.1709 6.0337 25.2883 5.82736 25.4489 5.65703C25.6095 5.4867 25.8086 5.35734 26.0294 5.27978C26.2503 5.20222 26.4865 5.17872 26.7184 5.21126C26.9502 5.24379 27.1708 5.33141 27.3618 5.46678C27.5528 5.60214 27.7086 5.78131 27.8161 5.98926C27.9235 6.19722 27.9796 6.42791 27.9796 6.662ZM23.7808 20.7977H6.20265V24.3134H23.7808V20.7977ZM22.1548 17.7509H7.84504V19.8602H22.1548V17.7509Z" fill="#FFC931"/>
</svg>
