<svg width="40" height="30" viewBox="0 0 40 30" fill="none" xmlns="http://www.w3.org/2000/svg">
<path d="M27.8106 17.8319C27.8105 18.2155 27.9241 18.5905 28.1371 18.9094C28.35 19.2284 28.6528 19.4771 29.0071 19.624C29.3614 19.7708 29.7513 19.8093 30.1275 19.7346C30.5037 19.6599 30.8493 19.4753 31.1206 19.2041C31.3918 18.933 31.5766 18.5875 31.6515 18.2113C31.7263 17.8351 31.688 17.4452 31.5412 17.0908C31.3945 16.7365 31.146 16.4336 30.8271 16.2205C30.5082 16.0074 30.1332 15.8937 29.7497 15.8937C29.2357 15.8941 28.7428 16.0984 28.3793 16.4618C28.0158 16.8252 27.8113 17.3179 27.8106 17.8319ZM8.04502 15.8937C8.42834 15.8938 8.80301 16.0076 9.12166 16.2207C9.4403 16.4338 9.68862 16.7365 9.8352 17.0907C9.98178 17.4449 10.0201 17.8346 9.94518 18.2106C9.8703 18.5865 9.68564 18.9318 9.41453 19.2028C9.14343 19.4738 8.79806 19.6583 8.42209 19.733C8.04612 19.8078 7.65644 19.7693 7.30231 19.6226C6.94818 19.4759 6.64551 19.2274 6.43256 18.9087C6.21962 18.59 6.10596 18.2153 6.10596 17.8319C6.10658 17.3181 6.31099 16.8254 6.67435 16.462C7.03771 16.0987 7.53036 15.8943 8.04424 15.8937H8.04502ZM2.05518 10.3062H7.30908L6.2458 14.1562L13.4333 10.228H17.9145L18.013 12.9374L20.513 14.0905L21.4302 12.9624H22.6505L22.8974 14.2124C33.6442 13.1968 37.945 16.4913 37.945 16.4913C37.945 16.4913 37.3575 16.8819 35.9192 17.1468C35.6161 17.4054 35.6333 18.2749 35.6333 18.2749H37.5239V19.5249H33.4614V17.378C33.3177 17.3835 33.1138 17.4101 32.9099 17.4147C32.8495 16.9575 32.6907 16.5189 32.4444 16.129C32.1981 15.7391 31.8701 15.4073 31.4832 15.1565C31.0962 14.9057 30.6594 14.7418 30.2029 14.6761C29.7465 14.6104 29.2812 14.6446 28.8392 14.7762C28.3972 14.9078 27.989 15.1337 27.6428 15.4383C27.2966 15.743 27.0206 16.1191 26.8338 16.5408C26.6471 16.9624 26.554 17.4196 26.5611 17.8807C26.5681 18.3418 26.6751 18.7959 26.8747 19.2116H10.9185C11.1254 18.78 11.2324 18.3074 11.2317 17.8287C11.231 17.3501 11.1226 16.8777 10.9144 16.4467C10.7062 16.0157 10.4037 15.6371 10.0292 15.339C9.65473 15.0409 9.21794 14.8309 8.75124 14.7247C8.28454 14.6184 7.79991 14.6186 7.33329 14.7252C6.86667 14.8318 6.43004 15.0421 6.0558 15.3405C5.68156 15.6389 5.3793 16.0178 5.17146 16.4489C4.96361 16.8801 4.85551 17.3525 4.85518 17.8312C4.85518 17.928 4.85986 18.0233 4.86846 18.1179H2.05596L2.05518 10.3062Z" fill="#FFC931"/>
</svg>
