<svg width="30" height="30" viewBox="0 0 30 30" fill="none" xmlns="http://www.w3.org/2000/svg">
<path d="M19.1426 3.55127C18.9434 3.55127 18.7383 3.5958 18.5156 3.69189C18.082 3.88232 17.6367 4.2708 17.3262 4.81689C17.0215 5.36357 16.9219 5.94717 16.9863 6.42178C17.0508 6.89053 17.2617 7.23037 17.5898 7.41787C17.9121 7.59951 18.3164 7.60537 18.75 7.41201C19.1895 7.22451 19.6348 6.83193 19.9395 6.28701C20.25 5.7415 20.3496 5.15732 20.2852 4.68564C20.2207 4.21221 20.0039 3.87646 19.6816 3.69248C19.5176 3.60107 19.3359 3.55303 19.1426 3.55186V3.55127ZM15.9141 5.97646C14.0977 6.98428 11.9824 7.88662 9.04687 8.53115C8.23828 8.70693 7.74023 10.5819 8.34961 11.2499H7.47656V12.3046H9.19922C9.45117 12.6327 9.70312 12.9608 9.9375 13.3007L8.4082 16.3593C7.83398 16.1425 7.21289 16.0194 6.5625 16.0194C3.68848 16.0194 1.34766 18.3632 1.34766 21.2343C1.34766 24.1054 3.68848 26.4491 6.5625 26.4491C9.25781 26.4491 11.4844 24.3866 11.748 21.7616H12.6738C12.5742 21.4042 12.5859 21.0409 12.6738 20.7069H11.748C11.584 19.0839 10.6699 17.6718 9.35742 16.8339L10.623 14.3026C10.9805 14.8593 11.3145 15.4276 11.6133 16.0019C11.3672 16.2597 11.0918 16.5175 10.7754 16.7812C11.1152 17.2851 11.4551 17.7772 11.9941 18.0995C12.123 17.9823 12.252 17.8534 12.3867 17.7187C12.6738 18.4687 12.8965 19.2245 13.043 20.0038C13.4004 19.5761 13.9336 19.3007 14.5312 19.3007C15.0762 19.3007 15.5742 19.5351 15.9258 19.9042L20.6133 14.5429C20.7188 15.2577 20.8711 15.9374 21.0527 16.5995C19.377 17.4667 18.2227 19.2245 18.2227 21.2343C18.2227 24.1054 20.5664 26.4491 23.4375 26.4491C26.3086 26.4491 28.6523 24.1054 28.6523 21.2343C28.6523 18.3632 26.3086 16.0194 23.4375 16.0194C22.957 16.0194 22.4883 16.0839 22.043 16.2128C21.8086 15.3397 21.6387 14.4433 21.5566 13.4706C21.832 13.1366 22.0488 12.7147 22.1777 12.2753L22.1836 12.2636C22.6699 12.3339 23.2969 12.6386 23.4199 13.0604L24.4395 12.8026C23.8301 11.2792 22.1719 10.9862 20.8008 11.2733C18.9023 10.8866 17.5078 10.4296 17.3379 8.46084C17.25 8.42568 17.1562 8.38467 17.0684 8.33193C16.4238 7.96865 16.043 7.29482 15.9434 6.5624C15.9141 6.36904 15.9082 6.17568 15.9141 5.97646ZM15.8379 9.59756C17.3203 12.3104 19.0488 12.4218 20.8008 12.6327C20.6602 12.8202 20.4902 13.0077 20.3145 13.2069H15.8672C16.0195 12.9433 16.1191 12.7382 16.1484 12.621C16.2129 12.3163 15.5273 11.8358 14.7305 11.3554C14.0449 11.6718 13.1836 11.9354 12.2461 12.0409C12.7676 12.3749 13.248 12.7616 13.6875 13.2069H12.8145C12.6328 12.8261 12.4395 12.4394 12.2461 12.0409C12.0996 11.7421 11.9531 11.4374 11.8066 11.121C12.9668 10.9628 14.5605 10.6405 15.8379 9.59756ZM15.1934 14.2616H19.4648L15.0059 19.3534C14.8242 18.0644 14.4785 16.9394 14.0273 15.8378C14.4551 15.2987 14.8535 14.7479 15.1934 14.2616ZM6.5625 17.0741C7.04297 17.0741 7.50586 17.1562 7.93359 17.3085L5.70938 21.7616H10.6875C10.4297 23.8124 8.68359 25.3944 6.5625 25.3944C4.25859 25.3944 2.40234 23.537 2.40234 21.2343C2.40234 18.9315 4.25859 17.0741 6.5625 17.0741ZM23.4375 17.0741C25.7402 17.0741 27.5977 18.9315 27.5977 21.2343C27.5977 23.537 25.7402 25.3944 23.4375 25.3944C21.1348 25.3944 19.2773 23.537 19.2773 21.2343C19.2773 19.6874 20.1152 18.3397 21.3633 17.6249C21.791 18.8905 22.3359 20.1269 22.957 21.4569L23.918 21.0116C23.291 19.664 22.752 18.4511 22.3477 17.2206C22.6934 17.1269 23.0566 17.0741 23.4375 17.0741ZM8.88281 17.7772C9.85547 18.4335 10.5352 19.4882 10.6875 20.7069H7.41797L8.88281 17.7772ZM14.5312 20.3554C14.0391 20.3554 13.6523 20.7421 13.6523 21.2343C13.6523 21.7265 14.0391 22.1132 14.5312 22.1132C15.0234 22.1132 15.4102 21.7265 15.4102 21.2343C15.4102 20.7421 15.0234 20.3554 14.5312 20.3554Z" fill="#FFC931"/>
</svg>
