<svg width="37" height="37" viewBox="0 0 37 37" fill="none" xmlns="http://www.w3.org/2000/svg">
<g clip-path="url(#clip0_138_1408)">
<path d="M27.5742 0H9.17578C4.10814 0 0 4.10814 0 9.17578V27.5742C0 32.6419 4.10814 36.75 9.17578 36.75H27.5742C32.6419 36.75 36.75 32.6419 36.75 27.5742V9.17578C36.75 4.10814 32.6419 0 27.5742 0Z" fill="url(#paint0_linear_138_1408)"/>
<path d="M27.5742 0H9.17578C4.10814 0 0 4.10814 0 9.17578V27.5742C0 32.6419 4.10814 36.75 9.17578 36.75H27.5742C32.6419 36.75 36.75 32.6419 36.75 27.5742V9.17578C36.75 4.10814 32.6419 0 27.5742 0Z" fill="url(#paint1_radial_138_1408)"/>
<path fill-rule="evenodd" clip-rule="evenodd" d="M18.2149 27.9429C16.2521 27.9429 15.34 27.6551 13.7545 26.504C12.7517 27.799 9.57594 28.8111 9.43743 27.0796C9.43743 25.7798 9.1509 24.6815 8.82616 23.4824C8.43935 22.0051 8 20.36 8 17.9763C8 12.2831 12.6514 8 18.1623 8C23.6781 8 27.9999 12.4941 27.9999 18.029C28.0184 23.4783 23.6406 27.9139 18.2149 27.9429ZM18.2961 12.921C15.6122 12.7819 13.5205 14.6476 13.0573 17.5734C12.6752 19.9955 13.3534 22.9452 13.9312 23.0987C14.2082 23.1658 14.9054 22.5999 15.34 22.1634C16.0586 22.662 16.8954 22.9614 17.766 23.0315C20.5469 23.1659 22.9231 21.0396 23.1098 18.2497C23.2185 15.4538 21.0773 13.0858 18.2961 12.9258V12.921Z" fill="white"/>
</g>
<defs>
<linearGradient id="paint0_linear_138_1408" x1="4.33088" y1="27.9497" x2="36.75" y2="18.375" gradientUnits="userSpaceOnUse">
<stop stop-color="#44CCFF"/>
<stop offset="0.662" stop-color="#5533EE"/>
<stop offset="1" stop-color="#9933DD"/>
</linearGradient>
<radialGradient id="paint1_radial_138_1408" cx="0" cy="0" r="1" gradientUnits="userSpaceOnUse" gradientTransform="translate(-0.874312 -16.1401) rotate(51.356) scale(44.5968 18.375)">
<stop stop-color="#0000FF"/>
<stop offset="1" stop-opacity="0"/>
</radialGradient>
<clipPath id="clip0_138_1408">
<rect width="36.75" height="36.75" rx="18.375" fill="white"/>
</clipPath>
</defs>
</svg>
