<svg aria-hidden="true" style="width: 0px; height: 0px; overflow: hidden; position: absolute;" xmlns="http://www.w3.org/2000/svg">
    <symbol id="bell_icon" viewBox="0 0 30 30">
      <path d="M15.0001 2.5C12.6795 2.5 10.4539 3.42187 8.81291 5.06282C7.17197 6.70376 6.2501 8.92936 6.2501 11.25V15.66C6.25028 15.8539 6.20534 16.0452 6.11885 16.2188L3.9726 20.51C3.86775 20.7197 3.81825 20.9526 3.82878 21.1868C3.83931 21.421 3.90954 21.6485 4.03278 21.8479C4.15602 22.0473 4.32819 22.2119 4.53293 22.326C4.73767 22.4401 4.96819 22.5 5.2026 22.5H24.7976C25.032 22.5 25.2625 22.4401 25.4673 22.326C25.672 22.2119 25.8442 22.0473 25.9674 21.8479C26.0907 21.6485 26.1609 21.421 26.1714 21.1868C26.1819 20.9526 26.1324 20.7197 26.0276 20.51L23.8826 16.2188C23.7957 16.0453 23.7503 15.854 23.7501 15.66V11.25C23.7501 8.92936 22.8282 6.70376 21.1873 5.06282C19.5463 3.42187 17.3207 2.5 15.0001 2.5ZM15.0001 26.25C14.2243 26.2502 13.4676 26.0099 12.834 25.5622C12.2005 25.1145 11.7214 24.4813 11.4626 23.75H18.5376C18.2788 24.4813 17.7997 25.1145 17.1662 25.5622C16.5326 26.0099 15.7759 26.2502 15.0001 26.25Z"/>
    </symbol>
    <symbol id="user_icon" viewBox="0 0 24 24">
      <path d="M12 1.5C6.20101 1.5 1.5 6.20101 1.5 12C1.5 17.799 6.20101 22.5 12 22.5C17.799 22.5 22.5 17.799 22.5 12C22.5 9.21523 21.3938 6.54451 19.4246 4.57538C17.4555 2.60625 14.7848 1.5 12 1.5ZM12 5.25C13.864 5.25 15.375 6.76104 15.375 8.625C15.375 10.489 13.864 12 12 12C10.136 12 8.625 10.489 8.625 8.625C8.623 7.72928 8.97794 6.86968 9.61131 6.23631C10.2447 5.60294 11.1043 5.248 12 5.25ZM18 18.69C14.5928 21.7699 9.40715 21.7699 6 18.69V18.255C5.94089 16.1178 7.61352 14.3314 9.75 14.25H14.25C16.3757 14.3353 18.0425 16.1055 18 18.2325V18.69Z"/>
    </symbol>
    <symbol id="search_icon" viewBox="0 0 21 21">
      <path d="M20.2645 19.207L14.602 13.5145C17.414 10.1216 17.0631 5.11779 13.8051 2.15056C10.5471 -0.816669 5.53238 -0.699622 2.41638 2.41638C-0.699622 5.53238 -0.816669 10.5471 2.15056 13.8051C5.11779 17.0631 10.1216 17.414 13.5145 14.602L19.207 20.2645L20.2645 19.207ZM1.5145 8.2645C1.5145 4.53658 4.53657 1.5145 8.2645 1.5145C11.9924 1.5145 15.0145 4.53658 15.0145 8.2645C15.0145 11.9924 11.9924 15.0145 8.2645 15.0145C4.53657 15.0145 1.5145 11.9924 1.5145 8.2645Z"/>
    </symbol>
    <symbol id="vk_icon" viewBox="0 0 35 35">
      <g clip-path="url(#clip0_4016_138)">
        <rect x="3.20801" y="3.20801" width="28.5833" height="28.5833" fill="white"/>
        <path d="M1.6975 1.6975C-0.875 4.2945 -0.875 8.44725 -0.875 16.765V18.235C-0.875 26.5405 -0.875 30.6933 1.6975 33.3025C4.2945 35.875 8.44725 35.875 16.765 35.875H18.235C26.5405 35.875 30.6933 35.875 33.3025 33.3025C35.875 30.7055 35.875 26.5527 35.875 18.235V16.765C35.875 8.4595 35.875 4.30675 33.3025 1.6975C30.7055 -0.875 26.5527 -0.875 18.235 -0.875H16.765C8.4595 -0.875 4.30675 -0.875 1.6975 1.6975ZM5.3235 10.3092H9.5375C9.67225 17.3162 12.7593 20.2808 15.2093 20.8932V10.3092H19.166V16.3485C21.5793 16.0912 24.1273 13.335 24.9848 10.297H28.9293C28.6077 11.8697 27.9653 13.3591 27.0421 14.6722C26.1189 15.9854 24.9348 17.094 23.5638 17.9288C25.0938 18.69 26.4451 19.7671 27.5283 21.089C28.6116 22.4108 29.4022 23.9474 29.848 25.5972H25.4993C24.5683 22.694 22.2408 20.44 19.166 20.1338V25.5972H18.676C10.297 25.5972 5.5195 19.8643 5.3235 10.3092Z" fill="#0077FF"/>
      </g>
      <defs><clipPath id="clip0_4016_138"><rect width="35" height="35" rx="17.5" fill="white"/></clipPath></defs>
    </symbol>
    <symbol id="tg_icon" viewBox="0 0 35 35">
      <g clip-path="url(#clip0_4016_141)">
        <path d="M17.5 0C12.8598 0 8.40547 1.84488 5.12695 5.12559C1.84505 8.40759 0.000909097 12.8586 0 17.5C0 22.1394 1.8457 26.5937 5.12695 29.8744C8.40547 33.1551 12.8598 35 17.5 35C22.1402 35 26.5945 33.1551 29.873 29.8744C33.1543 26.5937 35 22.1394 35 17.5C35 12.8606 33.1543 8.40629 29.873 5.12559C26.5945 1.84488 22.1402 0 17.5 0Z" fill="#229ED9"/>
        <path d="M7.92148 17.3151C13.0238 15.0926 16.4254 13.6272 18.1262 12.9193C22.9879 10.8978 23.9969 10.5467 24.6559 10.5348C24.8008 10.5324 25.1234 10.5683 25.334 10.7385C25.509 10.882 25.5582 11.0762 25.5828 11.2125C25.6047 11.3487 25.6348 11.659 25.6102 11.9013C25.3477 14.6685 24.2074 21.3835 23.6277 24.483C23.3844 25.7944 22.9004 26.234 22.4328 26.277C21.4156 26.3705 20.6445 25.6054 19.6602 24.9604C18.1207 23.9506 17.2512 23.3222 15.7555 22.337C14.0273 21.1984 15.1484 20.5725 16.1328 19.5499C16.3898 19.2822 20.8687 15.2093 20.9535 14.8399C20.9644 14.7937 20.9754 14.6214 20.8715 14.5307C20.7703 14.4396 20.6199 14.4708 20.5105 14.4954C20.3547 14.5304 17.8965 16.1568 13.1277 19.3743C12.4305 19.8539 11.7988 20.0877 11.2301 20.0754C10.6066 20.062 9.40351 19.7221 8.50937 19.4317C7.41562 19.0755 6.54335 18.8871 6.61992 18.2819C6.6582 17.9669 7.09296 17.6446 7.92148 17.3151Z" fill="white"/>
      </g>
      <defs><clipPath id="clip0_4016_141"><rect width="35" height="35" fill="white"/></clipPath></defs>
    </symbol>
    <symbol id="yt_icon" viewBox="0 0 35 35">
      <g clip-path="url(#clip0_4016_144)">
        <path d="M34.227 5.45903C34.0263 4.40389 33.6347 3.44195 33.0912 2.669C32.5478 1.89605 31.8714 1.33906 31.1295 1.0535C28.4135 0 17.4823 0 17.4823 0C17.4823 0 6.5505 0.0318888 3.83444 1.08539C3.09254 1.37097 2.41618 1.92799 1.87272 2.70097C1.32927 3.47395 0.937674 4.43593 0.73694 5.49111C-0.0846026 12.3546 -0.403294 22.813 0.759499 29.4019C0.960253 30.4571 1.35186 31.419 1.89531 32.192C2.43877 32.9649 3.11511 33.5219 3.857 33.8075C6.57305 34.861 17.5045 34.861 17.5045 34.861C17.5045 34.861 28.4359 34.861 31.1518 33.8075C31.8937 33.5219 32.5701 32.965 33.1136 32.192C33.6571 31.4191 34.0487 30.4571 34.2494 29.4019C35.116 22.5287 35.383 12.0767 34.227 5.45903Z" fill="#FF0000"/>
        <path d="M14.0029 24.9005L23.0712 17.4304L14.0029 9.96021V24.9005Z" fill="white"/>
      </g>
      <defs><clipPath id="clip0_4016_144"><rect width="35" height="35" rx="17.5" fill="white"/></clipPath></defs>
    </symbol>
    <symbol id="google_share_icon" viewBox="0 0 16 16">
      <path d="M14.6606 8.12463C14.6606 7.57837 14.6152 7.17974 14.517 6.76636H8.13306V9.2319H11.8803C11.8048 9.84463 11.3968 10.7674 10.4902 11.3874L10.4775 11.47L12.496 12.9979L12.6358 13.0115C13.9201 11.8525 14.6606 10.1473 14.6606 8.12463Z"/>
      <path d="M8.13306 14.6208C9.96889 14.6208 11.5101 14.0302 12.6358 13.0115L10.4902 11.3875C9.91603 11.7787 9.1454 12.0518 8.13306 12.0518C6.33498 12.0518 4.80889 10.8929 4.26488 9.29102L4.18514 9.29763L2.08629 10.8848L2.05884 10.9593C3.17696 13.1296 5.47368 14.6208 8.13306 14.6208Z"/>
      <path d="M4.26468 9.29105C4.12113 8.87767 4.03806 8.43472 4.03806 7.97706C4.03806 7.51935 4.12113 7.07645 4.25712 6.66306L4.25332 6.57502L2.12817 4.9624L2.05863 4.99472C1.5978 5.89533 1.33337 6.90668 1.33337 7.97706C1.33337 9.04744 1.5978 10.0587 2.05863 10.9594L4.26468 9.29105Z"/>
      <path d="M8.13306 3.90216C9.40983 3.90216 10.2711 4.44104 10.7622 4.89137L12.6811 3.06063C11.5026 1.99025 9.96889 1.33325 8.13306 1.33325C5.47368 1.33325 3.17696 2.8244 2.05884 4.99468L4.25733 6.66302C4.80889 5.06114 6.33498 3.90216 8.13306 3.90216Z"/>
    </symbol>
    <symbol id="vk_share_icon" viewBox="0 0 16 16">
      <path d="M15.1,4.4c0.1-0.3,0-0.6-0.5-0.6H13c-0.4,0-0.6,0.2-0.7,0.4c0,0-0.8,1.9-2,3.1C9.9,7.8,9.7,7.9,9.5,7.9c-0.1,0-0.3-0.1-0.3-0.4v-3c0-0.4-0.1-0.6-0.5-0.6H6.2C6,3.9,5.8,4,5.8,4.2c0,0.4,0.6,0.5,0.7,1.5v2.2c0,0.5-0.1,0.6-0.3,0.6c-0.6,0-1.9-1.9-2.7-4.1C3.3,4,3.1,3.9,2.7,3.9H1.1c-0.5,0-0.6,0.2-0.6,0.4c0,0.4,0.6,2.4,2.6,5.1c1.4,1.8,3.3,2.8,5,2.8c1,0,1.2-0.2,1.2-0.6v-1.4c0-0.4,0.1-0.5,0.4-0.5c0.2,0,0.7,0.1,1.6,1c1.1,1,1.3,1.5,1.9,1.5h1.6c0.5,0,0.7-0.2,0.6-0.6c-0.1-0.4-0.7-1-1.4-1.8c-0.4-0.4-1-0.9-1.1-1.1c-0.2-0.3-0.2-0.4,0-0.7C12.9,7.9,14.9,5.3,15.1,4.4z"/>
    </symbol>
    <symbol id="ya_share_icon" viewBox="0 0 16 16">
      <path d="M8.7,9.6L6.3,15H4.6l2.6-5.7C5.9,8.6,5.1,7.5,5.1,5.4C5.1,2.5,7,1,9.2,1h2.3v14H9.9V9.6H8.7z M9.9,2.3H9.1c-1.2,0-2.4,0.8-2.4,3.1c0,2.3,1.1,3,2.4,3h0.8V2.3z"/>
    </symbol>
    <symbol id="like_icon" viewBox="0 0 18 18">
      <path d="M14.625 6.18752H11.25V3.37502C11.368 2.25044 10.5521 1.24311 9.4275 1.12502C9.2855 1.10815 9.142 1.10815 9 1.12502H8.11688C7.73016 1.13562 7.39946 1.40619 7.3125 1.78315V1.85065L6.75 5.4169L4.75875 8.43752H1.125V16.3125H11.8125C15.9975 16.3125 16.875 13.8656 16.875 11.8125V8.43752C16.993 7.31294 16.1771 6.30561 15.0525 6.18752C14.9105 6.17065 14.767 6.17065 14.625 6.18752ZM4.5 15.1875H2.25V9.56252H4.5V15.1875ZM15.75 11.8125C15.75 14.1131 14.5012 15.1875 11.8125 15.1875H5.625V9.16877L7.875 5.83315L8.28562 2.81252L8.36438 2.25002H9C9.81 2.25002 10.125 2.56502 10.125 3.37502V7.31252H14.625C15.435 7.31252 15.75 7.62752 15.75 8.43752V11.8125Z"/>
    </symbol>
    <symbol id="filled_like_icon" viewBox="0 0 18 18">
      <path d="M14.625 6.18752H11.25V3.37502C11.368 2.25044 10.5521 1.24311 9.4275 1.12502C9.2855 1.10815 9.142 1.10815 9 1.12502H8.11688C7.73016 1.13562 7.39946 1.40619 7.3125 1.78315V1.85065L6.75 5.4169L4.75875 8.43752H1.125V16.3125H11.8125C15.9975 16.3125 16.875 13.8656 16.875 11.8125V8.43752C16.993 7.31294 16.1771 6.30561 15.0525 6.18752C14.9105 6.17065 14.767 6.17065 14.625 6.18752ZM4.5 15.1875H2.25V9.56252H4.5V15.1875Z"/>
    </symbol>
    <symbol id="dislike_icon" viewBox="0 0 18 18">
      <path d="M15.0525 11.8125C16.1771 11.6944 16.993 10.6871 16.875 9.5625V6.1875C16.875 4.13437 15.9975 1.6875 11.8125 1.6875H1.125V9.5625H4.75875L6.75 12.5831L7.3125 16.1494V16.2169C7.39946 16.5938 7.73016 16.8644 8.11688 16.875H9C9.142 16.8919 9.2855 16.8919 9.4275 16.875C10.5521 16.7569 11.368 15.7496 11.25 14.625V11.8125H14.625C14.767 11.8294 14.9105 11.8294 15.0525 11.8125ZM4.5 8.4375H2.25V2.8125H4.5V8.4375ZM15.75 9.5625C15.75 10.3725 15.435 10.6875 14.625 10.6875H10.125V14.625C10.125 15.435 9.81 15.75 9 15.75H8.36438L8.28562 15.1875L7.875 12.1669L5.625 8.83125V2.8125H11.8125C14.5012 2.8125 15.75 3.88687 15.75 6.1875V9.5625Z"/>
    </symbol>
    <symbol id="filled_dislike_icon" viewBox="0 0 18 18">
      <path d="M15.0525 11.8125C16.1771 11.6944 16.993 10.6871 16.875 9.5625V6.1875C16.875 4.13437 15.9975 1.6875 11.8125 1.6875H1.125V9.5625H4.75875L6.75 12.5831L7.3125 16.1494V16.2169C7.39946 16.5938 7.73016 16.8644 8.11688 16.875H9C9.142 16.8919 9.2855 16.8919 9.4275 16.875C10.5521 16.7569 11.368 15.7496 11.25 14.625V11.8125H14.625C14.767 11.8294 14.9105 11.8294 15.0525 11.8125ZM4.5 8.4375H2.25V2.8125H4.5V8.4375Z"/>
    </symbol>
    <symbol id="win_platform_icon" viewBox="0 0 22 22">
      <path d="M20.1666 0.783875L10.2666 2.46435V10.8667L20.1666 10.7617V0.783875ZM9.34992 11.812L1.83325 11.707V18.849L9.25825 20.0043L9.34992 11.812ZM1.83325 3.72471V10.8667H9.25825V2.56938L1.83325 3.72471ZM10.1749 11.812V20.1094L20.1666 21.7898V11.917L10.1749 11.812Z"/>
    </symbol>
    <symbol id="steam_icon" viewBox="0 0 20 20">
      <path d="M18.4708 8.5621C18.1036 6.83357 17.265 5.35371 15.9368 4.1771C13.8986 2.35153 11.5054 1.67831 8.79398 2.13925C7.4107 2.37579 6.18044 2.96409 5.09707 3.84352C3.61586 5.05046 2.64879 6.59097 2.21422 8.44687C2.11629 8.84109 2.06733 9.24745 2 9.64168C2.05509 9.672 2.08569 9.68413 2.11629 9.69626C3.54242 10.2846 4.96854 10.8729 6.39466 11.4612C6.44363 11.4794 6.5232 11.4733 6.56604 11.443C6.95777 11.2065 7.3801 11.0912 7.83915 11.0852C7.89424 11.0852 7.96156 11.0488 7.99217 11.0124C8.6226 10.1087 9.24691 9.205 9.8651 8.29524C9.90182 8.24066 9.91407 8.17394 9.92631 8.10723C9.97527 7.81611 9.98139 7.51286 10.0732 7.23993C10.4772 6.03906 11.3096 5.28093 12.5643 5.07472C13.868 4.86851 14.9392 5.34158 15.6736 6.42722C16.3592 7.44008 16.4143 8.53784 15.8511 9.62348C15.2819 10.7212 14.3332 11.2732 13.0846 11.3278C13.0295 11.3278 12.9622 11.3459 12.9193 11.3763C12.0196 12.0131 11.126 12.6499 10.2323 13.2928C10.1956 13.3171 10.1711 13.3777 10.165 13.4262C10.1405 13.6021 10.1405 13.778 10.1099 13.9539C9.91407 14.985 8.93475 15.7977 7.88199 15.8159C6.76191 15.8341 5.81932 15.1426 5.5194 14.057C5.4888 13.9478 5.43371 13.8993 5.33578 13.8569C4.58906 13.5536 3.84233 13.2382 3.09561 12.935C2.83854 12.8258 2.58147 12.7227 2.29991 12.6075C2.31828 12.6803 2.33052 12.7288 2.34276 12.7773C2.80793 14.2511 3.60974 15.5187 4.77268 16.5497C6.20492 17.8173 7.88199 18.5148 9.79777 18.6482C10.875 18.721 11.9339 18.5876 12.9561 18.2358C15.0004 17.5323 16.5611 16.2404 17.6078 14.3603C18.6299 12.5347 18.8993 10.5939 18.4708 8.5621Z"/>
      <path d="M16.9639 8.99899C16.97 7.86484 16.0397 6.91869 14.9073 6.91263C13.7505 6.90656 12.7957 7.82845 12.7896 8.96867C12.7835 10.1453 13.6954 11.0854 14.8461 11.0914C16.0274 11.0975 16.9578 10.1756 16.9639 8.99899ZM13.3037 8.98686C13.3037 8.12563 14.026 7.40996 14.889 7.41602C15.752 7.42209 16.4559 8.12563 16.4559 8.99293C16.4559 9.87236 15.7581 10.5698 14.8706 10.5759C14.0137 10.582 13.2976 9.85416 13.3037 8.98686Z"/>
      <path d="M8.45356 16.6674C8.21485 16.6371 7.98226 16.5279 7.7558 16.443C7.53545 16.3642 7.32123 16.2671 7.08252 16.1701C7.45588 17.0253 8.56373 17.4013 9.42675 16.9767C10.351 16.5219 10.706 15.3938 10.1918 14.5083C9.67158 13.6107 8.62494 13.4772 8.07407 13.7441C8.41683 13.8836 8.75347 14.0231 9.09011 14.1686C9.45735 14.3203 9.70218 14.5871 9.83071 14.9571C10.1429 15.8547 9.39614 16.7827 8.45356 16.6674Z"/>
    </symbol>
    <symbol id="my_icon" viewBox="0 0 20 20">
      <path d="M13.7774 8.6718C14.8656 7.44412 15.939 6.23142 17.0272 5.00374C17.7428 5.81221 18.4547 6.6132 19.1667 7.41792C16.437 10.5021 13.711 13.5788 10.974 16.6667C10.2547 15.8545 9.55014 15.0572 8.83452 14.2525C9.76777 13.2007 10.6936 12.1527 11.6306 11.0935C11.258 10.6705 10.8891 10.2551 10.5092 9.82087C9.57227 10.8764 8.64639 11.9207 7.70946 12.9799C6.77621 11.9244 5.85402 10.8839 4.92077 9.83585C3.98752 10.8876 3.06534 11.9319 2.12102 12.9949C1.41279 12.1939 0.711926 11.4004 0 10.5957C1.65624 8.72794 3.30142 6.87146 4.95397 5.00374C5.87984 6.04802 6.79834 7.0848 7.73528 8.14405C8.66853 7.09229 9.59071 6.05176 10.524 5C11.6048 6.22393 12.6819 7.43664 13.7774 8.6718Z"/>
    </symbol>
    <symbol id="star_icon" viewBox="0 0 20 20">
      <path d="M15.1053 18.8889C14.8598 18.8887 14.6199 18.8152 14.4164 18.6778L10.272 15.9C10.2516 15.8859 10.2273 15.8784 10.2025 15.8784C10.1777 15.8784 10.1535 15.8859 10.1331 15.9L5.98865 18.6778C5.78053 18.8168 5.53507 18.8891 5.28486 18.8853C5.03464 18.8814 4.79151 18.8016 4.58776 18.6563C4.38401 18.511 4.22926 18.3072 4.14409 18.0719C4.05891 17.8366 4.04732 17.5809 4.11087 17.3389L5.47198 12.5389C5.47842 12.5148 5.47764 12.4893 5.46974 12.4656C5.46184 12.4419 5.44717 12.421 5.42754 12.4056L1.50532 9.32224C1.29884 9.16842 1.14568 8.95384 1.06731 8.70858C0.988938 8.46332 0.989293 8.19968 1.06832 7.95463C1.14735 7.70959 1.30109 7.49542 1.50798 7.34215C1.71487 7.18889 1.96454 7.10422 2.22198 7.10002L7.22198 6.91113C7.24657 6.90943 7.27013 6.90066 7.28985 6.88588C7.30956 6.87109 7.32458 6.85092 7.33309 6.82779L9.05531 2.14446C9.14212 1.90704 9.2998 1.70203 9.50698 1.55718C9.71416 1.41234 9.96085 1.33466 10.2136 1.33466C10.4664 1.33466 10.7131 1.41234 10.9203 1.55718C11.1275 1.70203 11.2852 1.90704 11.372 2.14446L13.0942 6.82779C13.1027 6.85092 13.1177 6.87109 13.1374 6.88588C13.1572 6.90066 13.1807 6.90943 13.2053 6.91113L18.2053 7.10002C18.4628 7.10422 18.7124 7.18889 18.9193 7.34215C19.1262 7.49542 19.2799 7.70959 19.359 7.95463C19.438 8.19968 19.4384 8.46332 19.36 8.70858C19.2816 8.95384 19.1285 9.16842 18.922 9.32224L14.9998 12.4056C14.9795 12.4205 14.9644 12.4413 14.9565 12.4652C14.9485 12.4891 14.9481 12.5148 14.9553 12.5389L16.3164 17.3389C16.3642 17.523 16.3689 17.7157 16.3303 17.9019C16.2916 18.0881 16.2106 18.263 16.0935 18.4129C15.9764 18.5627 15.8263 18.6836 15.6549 18.7662C15.4836 18.8487 15.2955 18.8907 15.1053 18.8889ZM10.2053 14.7667C10.4513 14.7742 10.6894 14.8555 10.8886 15L15.0331 17.7778C15.0541 17.7938 15.0797 17.8025 15.1061 17.8027C15.1325 17.8029 15.1582 17.7946 15.1795 17.779C15.2007 17.7633 15.2163 17.7412 15.224 17.716C15.2317 17.6908 15.231 17.6637 15.222 17.6389L13.8609 12.8389C13.7939 12.6034 13.7988 12.3533 13.8751 12.1207C13.9513 11.8881 14.0953 11.6835 14.2886 11.5333L18.2109 8.45002C18.2323 8.43499 18.2483 8.41349 18.2566 8.38869C18.2648 8.36389 18.2649 8.33709 18.2569 8.31222C18.2488 8.28736 18.2329 8.26574 18.2117 8.25054C18.1904 8.23535 18.1648 8.22737 18.1386 8.22779L13.1386 8.03891C12.8938 8.02936 12.6574 7.94712 12.4595 7.80266C12.2616 7.6582 12.1112 7.45807 12.0275 7.22779L10.3053 2.54446C10.2976 2.5196 10.282 2.49786 10.2611 2.48243C10.2401 2.46699 10.2147 2.45867 10.1886 2.45867C10.1626 2.45867 10.1372 2.46699 10.1162 2.48243C10.0953 2.49786 10.0797 2.5196 10.072 2.54446L8.36643 7.22224C8.28273 7.45251 8.13235 7.65264 7.93446 7.7971C7.73657 7.94156 7.50014 8.02381 7.25532 8.03335L2.25532 8.22224C2.22917 8.22182 2.20358 8.22979 2.18231 8.24499C2.16103 8.26018 2.14519 8.2818 2.13711 8.30667C2.12902 8.33153 2.12913 8.35834 2.13741 8.38314C2.14568 8.40794 2.1617 8.42943 2.18309 8.44446L6.11087 11.5333C6.30362 11.684 6.4472 11.8886 6.52338 12.121C6.59955 12.3535 6.60487 12.6034 6.53865 12.8389L5.18309 17.6389C5.175 17.6629 5.17496 17.689 5.18298 17.713C5.191 17.7371 5.20664 17.7579 5.22754 17.7722C5.24766 17.7895 5.27328 17.7989 5.29976 17.7989C5.32624 17.7989 5.35186 17.7895 5.37198 17.7722L9.51643 14.9945C9.71897 14.8601 9.9567 14.7886 10.1998 14.7889L10.2053 14.7667Z"/>
    </symbol>
    <symbol id="donate_icon" viewBox="0 0 20 20">
      <path d="M10 1.875C6.55375 1.875 3.75 4.67875 3.75 8.125C3.75 11.5712 6.55375 14.375 10 14.375C13.4462 14.375 16.25 11.5712 16.25 8.125C16.25 4.67875 13.4462 1.875 10 1.875ZM10 3.125C12.7569 3.125 15 5.36813 15 8.125C15 10.8819 12.7569 13.125 10 13.125C7.24312 13.125 5 10.8819 5 8.125C5 5.36813 7.24312 3.125 10 3.125ZM9.375 4.375V5.11875C8.92434 5.2826 8.55118 5.60894 8.32875 6.03375C8.13503 6.40775 8.07673 6.83727 8.16375 7.24937C8.24066 7.60792 8.41898 7.9368 8.6775 8.19687C8.84812 8.3675 9.05125 8.50563 9.275 8.60125C9.49875 8.69688 9.74375 8.75 10 8.75C10.0887 8.75 10.1725 8.76688 10.2475 8.7975C10.3217 8.8277 10.3892 8.87246 10.4459 8.92914C10.5025 8.98581 10.5473 9.05326 10.5775 9.1275C10.6081 9.2025 10.625 9.28625 10.625 9.375C10.6277 9.49812 10.5931 9.61917 10.5257 9.72225C10.4584 9.82532 10.3614 9.90559 10.2475 9.9525C10.1725 9.98312 10.0887 10 10 10C9.91063 10 9.8275 9.98312 9.7525 9.9525C9.67832 9.9222 9.61096 9.87736 9.55437 9.82063C9.49645 9.76193 9.45076 9.69231 9.41997 9.61581C9.38918 9.53931 9.37389 9.45746 9.375 9.375H8.125C8.12507 9.86129 8.31764 10.3278 8.66063 10.6725C8.86134 10.8772 9.10547 11.0342 9.375 11.1319V11.875H10.625V11.1312C10.9401 11.0183 11.2196 10.8236 11.4349 10.5672C11.6501 10.3108 11.7934 10.0018 11.85 9.67188C11.9272 9.20319 11.8201 8.72281 11.5513 8.33125C11.4156 8.13158 11.2434 7.95939 11.0437 7.82375C10.8414 7.68641 10.6142 7.58963 10.375 7.53875C10.2517 7.51301 10.126 7.50003 10 7.5C9.91063 7.5 9.8275 7.48312 9.7525 7.4525C9.67826 7.4223 9.61081 7.37754 9.55414 7.32086C9.49746 7.26419 9.4527 7.19674 9.4225 7.1225C9.39073 7.04387 9.3746 6.9598 9.375 6.875C9.375 6.78562 9.39188 6.7025 9.4225 6.6275C9.4527 6.55326 9.49746 6.48581 9.55414 6.42914C9.61081 6.37246 9.67826 6.3277 9.7525 6.2975C9.8275 6.26688 9.91125 6.25 10 6.25C10.3562 6.25 10.625 6.51875 10.625 6.875H11.875C11.8752 6.6788 11.8439 6.48384 11.7825 6.2975C11.6905 6.02669 11.5387 5.7801 11.3383 5.57603C11.1379 5.37196 10.8941 5.21566 10.625 5.11875V4.375H9.375ZM1.25 13.125V18.125H2.5V14.375H5.8625C5.33253 14.0206 4.84953 13.6006 4.425 13.125H1.25ZM15.575 13.125C15.1505 13.6006 14.6675 14.0206 14.1375 14.375H17.5V18.125H18.75V13.125H15.575ZM3.75 15.625V16.875H16.25V15.625H3.75Z"/>
    </symbol>
    <symbol id="android_icon" viewBox="0 0 30 30">
      <path d="M5.2,10.2L5.2,10.2c-1,0-1.7,0.7-1.7,1.6V19c0,0.9,0.7,1.6,1.6,1.6h0.1c0.9,0,1.6-0.7,1.6-1.6v-7.1c0-0.4-0.2-0.8-0.5-1.2C6,10.4,5.6,10.2,5.2,10.2z M7.6,21.7c0,0.8,0.7,1.5,1.5,1.5h1.6v3.9c0,0.9,0.7,1.6,1.6,1.6h0.1c0.9,0,1.6-0.7,1.6-1.6v-3.9h2.2v3.9c0,0.9,0.7,1.6,1.6,1.6h0.1c0.9,0,1.6-0.7,1.6-1.6v-3.9H21c0.8,0,1.5-0.7,1.5-1.5V10.5H7.6V21.7z M18.7,3.7l1.3-2c0,0,0-0.1,0-0.1c0,0,0-0.1,0-0.1c0,0,0-0.1,0-0.1c0,0,0-0.1-0.1-0.1c0,0-0.1,0-0.1,0c0,0-0.1,0-0.1,0c0,0-0.1,0-0.1,0c0,0-0.1,0-0.1,0.1l-1.3,2c-1-0.4-2.1-0.6-3.2-0.6c-1.1,0-2.2,0.2-3.2,0.6l-1.3-2c0,0,0-0.1-0.1-0.1c0,0-0.1,0-0.1,0s-0.1,0-0.1,0c0,0-0.1,0-0.1,0c0,0-0.1,0-0.1,0.1c0,0,0,0.1,0,0.1c0,0,0,0.1,0,0.1c0,0,0,0.1,0,0.1l1.3,2C9,4.8,7.5,6.9,7.5,9.4c0,0.2,0,0.3,0,0.4h15c0-0.1,0-0.3,0-0.4C22.5,6.9,21,4.8,18.7,3.7z M11.5,7.2c-0.2,0-0.4-0.1-0.5-0.2c-0.1-0.1-0.2-0.3-0.2-0.5c0-0.2,0.1-0.4,0.2-0.5c0.1-0.1,0.3-0.2,0.5-0.2c0.2,0,0.4,0.1,0.5,0.2c0.1,0.1,0.2,0.3,0.2,0.5c0,0.2-0.1,0.4-0.2,0.5S11.7,7.2,11.5,7.2z M18.5,7.2c-0.1,0-0.2,0-0.3-0.1C18.1,7.1,18,7,18,7c-0.1-0.1-0.2-0.3-0.2-0.5c0-0.2,0.1-0.4,0.2-0.5c0.1-0.1,0.3-0.2,0.5-0.2c0.2,0,0.4,0.1,0.5,0.2c0.1,0.1,0.2,0.3,0.2,0.5c0,0.2-0.1,0.4-0.2,0.5C18.8,7.1,18.7,7.2,18.5,7.2z M24.9,10.2L24.9,10.2c-1,0-1.7,0.7-1.7,1.6V19c0,0.9,0.7,1.6,1.6,1.6h0.1c0.9,0,1.6-0.7,1.6-1.6v-7.1C26.5,11,25.8,10.2,24.9,10.2z"/>
    </symbol>
    <symbol id="ios_icon" viewBox="0 0 41 41">
      <path d="M2.4,29.8h3V16.2h-3V29.8z M3.9,14.4c0.9,0,1.7-0.8,1.7-1.7c0-1-0.7-1.7-1.7-1.7c-0.9,0-1.7,0.8-1.7,1.7C2.3,13.6,3,14.4,3.9,14.4z M15.5,11c-5.1,0-8.3,3.7-8.3,9.6c0,5.9,3.2,9.6,8.3,9.6c5.1,0,8.3-3.7,8.3-9.6C23.8,14.6,20.6,11,15.5,11 M15.5,13.8c3.1,0,5.1,2.6,5.1,6.7c0,4.1-2,6.7-5.1,6.7c-3.1,0-5.1-2.6-5.1-6.7C10.4,16.4,12.4,13.8,15.5,13.8 M25,24.6c0.1,3.4,2.8,5.5,6.8,5.5c4.2,0,6.9-2.2,6.9-5.7c0-2.8-1.5-4.3-5-5.2l-2-0.5c-2.1-0.5-3-1.3-3-2.5c0-1.5,1.3-2.6,3.3-2.6c2,0,3.4,1,3.5,2.8h3C38.4,13.2,35.8,11,32,11c-3.8,0-6.5,2.2-6.5,5.5c0,2.6,1.5,4.3,4.7,5.1l2.3,0.6c2.2,0.6,3.1,1.3,3.1,2.7c0,1.5-1.5,2.6-3.6,2.6c-2.1,0-3.7-1.1-3.9-2.8L25,24.6z"/>
    </symbol>
    <symbol id="macos_icon" viewBox="0 0 33 33">
      <path d="M30,23.8c-0.7,1.6-1.1,2.4-2,3.9c-1.3,2-3.2,4.5-5.5,4.6c-2,0-2.6-1.4-5.4-1.3c-2.8,0-3.4,1.4-5.5,1.3c-2.4,0-4.1-2.2-5.5-4.3c-3.7-5.7-4.1-12.3-1.8-15.8c1.6-2.5,4.2-4,6.6-4s4,1.4,6,1.4c1.9,0,3.2-1.4,6-1.4c2.1,0,4.4,1.2,6,3.2C23.8,14.2,24.6,21.8,30,23.8z M20.9,5.8c1.1-1.3,1.8-3.2,1.5-5.1c-1.7,0.1-3.6,1.2-4.8,2.6c-1.1,1.3-1.9,3.1-1.6,4.9C17.9,8.3,19.8,7.2,20.9,5.8z"/>
    </symbol>
    <symbol id="phone_icon" viewBox="0 0 20 20">
      <path d="M5.51667 8.99167C6.71667 11.35 8.65 13.275 11.0083 14.4833L12.8417 12.65C13.0667 12.425 13.4 12.35 13.6917 12.45C14.625 12.7583 15.6333 12.925 16.6667 12.925C17.125 12.925 17.5 13.3 17.5 13.7583V16.6667C17.5 17.125 17.125 17.5 16.6667 17.5C8.84167 17.5 2.5 11.1583 2.5 3.33333C2.5 2.875 2.875 2.5 3.33333 2.5H6.25C6.70833 2.5 7.08333 2.875 7.08333 3.33333C7.08333 4.375 7.25 5.375 7.55833 6.30833C7.65 6.6 7.58333 6.925 7.35 7.15833L5.51667 8.99167Z"/>
    </symbol>
    <symbol id="email_icon" viewBox="0 0 20 20">
      <path d="M10,11.1c-0.1,0-0.3,0-0.4-0.1L5.2,7.9C4.9,7.7,4.8,7.3,5,7C5.2,6.7,5.7,6.6,6,6.8l4,2.8l4-2.8C14.3,6.6,14.8,6.7,15,7c0.2,0.3,0.1,0.7-0.2,0.9L10.4,11C10.3,11.1,10.1,11.1,10,11.1z"/>
    	<path d="M17.1,16.8H2.9c-0.6,0-1.3-0.3-1.7-0.7c-0.5-0.5-0.7-1.1-0.7-1.7V5.6c0-0.6,0.3-1.3,0.7-1.7s1.1-0.7,1.7-0.7h14.1c0.6,0,1.3,0.3,1.7,0.7c0.5,0.5,0.7,1.1,0.7,1.7v8.8c0,0.6-0.3,1.3-0.7,1.7C18.3,16.6,17.7,16.8,17.1,16.8z M2.9,4.5c-0.3,0-0.6,0.1-0.8,0.3C1.9,5,1.8,5.3,1.8,5.6v8.8c0,0.3,0.1,0.6,0.3,0.8c0.2,0.2,0.5,0.3,0.8,0.3h14.1c0.3,0,0.6-0.1,0.8-0.3c0.2-0.2,0.3-0.5,0.3-0.8V5.6c0-0.3-0.1-0.6-0.3-0.8c-0.2-0.2-0.5-0.3-0.8-0.3H2.9z"/>
    </symbol>
    <symbol id="tg_2_icon" viewBox="0 0 20 20">
      <path d="M2.09976 9.59648C6.39553 7.76205 9.25939 6.55256 10.6913 5.96824C14.7845 4.29969 15.634 4.0099 16.1888 4.00009C16.3108 3.99817 16.5825 4.02773 16.7597 4.16823C16.9071 4.28672 16.9485 4.44696 16.9692 4.55947C16.9876 4.67186 17.013 4.92802 16.9922 5.12799C16.7712 7.412 15.8113 12.9546 15.3232 15.5128C15.1183 16.5952 14.7108 16.9581 14.3172 16.9936C13.4608 17.0707 12.8116 16.4393 11.9828 15.9068C10.6867 15.0734 9.95463 14.5547 8.69536 13.7416C7.24042 12.8018 8.18429 12.2852 9.01306 11.4411C9.22946 11.2201 13.0003 7.85842 13.0717 7.55351C13.0809 7.51536 13.0901 7.37318 13.0027 7.29825C12.9175 7.22309 12.7909 7.24882 12.6988 7.26913C12.5675 7.29802 10.4979 8.64044 6.48301 11.2962C5.89597 11.692 5.36418 11.885 4.88534 11.8748C4.36045 11.8638 3.34751 11.5833 2.59472 11.3436C1.67386 11.0495 0.939483 10.894 1.00394 10.3945C1.03617 10.1345 1.40221 9.86844 2.09976 9.59648Z"/>
    </symbol>
    <symbol id="wa_icon" viewBox="0 0 20 20">
      <path d="M15.8752 4.09168C15.1112 3.31995 14.2011 2.70807 13.1982 2.29172C12.1952 1.87537 11.1194 1.66289 10.0335 1.66668C5.4835 1.66668 1.77516 5.37501 1.77516 9.92501C1.77516 11.3833 2.1585 12.8 2.87516 14.05L1.7085 18.3333L6.0835 17.1833C7.29183 17.8417 8.65016 18.1917 10.0335 18.1917C14.5835 18.1917 18.2918 14.4833 18.2918 9.93334C18.2918 7.72501 17.4335 5.65001 15.8752 4.09168ZM10.0335 16.7917C8.80016 16.7917 7.59183 16.4583 6.5335 15.8333L6.2835 15.6833L3.6835 16.3667L4.37516 13.8333L4.2085 13.575C3.52328 12.4808 3.15945 11.216 3.1585 9.92501C3.1585 6.14167 6.24183 3.05834 10.0252 3.05834C11.8585 3.05834 13.5835 3.77501 14.8752 5.07501C15.5147 5.71165 16.0216 6.46889 16.3663 7.30286C16.7111 8.13683 16.8869 9.03093 16.8835 9.93334C16.9002 13.7167 13.8168 16.7917 10.0335 16.7917ZM13.8002 11.6583C13.5918 11.5583 12.5752 11.0583 12.3918 10.9833C12.2002 10.9167 12.0668 10.8833 11.9252 11.0833C11.7835 11.2917 11.3918 11.7583 11.2752 11.8917C11.1585 12.0333 11.0335 12.05 10.8252 11.9417C10.6168 11.8417 9.95016 11.6167 9.16683 10.9167C8.55016 10.3667 8.14183 9.69168 8.01683 9.48334C7.90016 9.27501 8.00016 9.16668 8.1085 9.05834C8.20016 8.96667 8.31683 8.81667 8.41683 8.70001C8.51683 8.58334 8.5585 8.49167 8.62516 8.35834C8.69183 8.21667 8.6585 8.10001 8.6085 8.00001C8.5585 7.90001 8.14183 6.88334 7.97516 6.46668C7.8085 6.06668 7.6335 6.11668 7.5085 6.10834H7.1085C6.96683 6.10834 6.75016 6.15834 6.5585 6.36668C6.37516 6.57501 5.84183 7.07501 5.84183 8.09168C5.84183 9.10834 6.5835 10.0917 6.6835 10.225C6.7835 10.3667 8.14183 12.45 10.2085 13.3417C10.7002 13.5583 11.0835 13.6833 11.3835 13.775C11.8752 13.9333 12.3252 13.9083 12.6835 13.8583C13.0835 13.8 13.9085 13.3583 14.0752 12.875C14.2502 12.3917 14.2502 11.9833 14.1918 11.8917C14.1335 11.8 14.0085 11.7583 13.8002 11.6583Z"/>
    </symbol>
    <symbol id="vk_2_icon" viewBox="0 0 20 20">
      <path d="M17.92 15.3175H16.0183C15.2992 15.3175 15.0825 14.735 13.7933 13.445C12.6667 12.3591 12.1908 12.2241 11.9058 12.2241C11.5117 12.2241 11.4042 12.3325 11.4042 12.875V14.585C11.4042 15.0475 11.2542 15.3183 10.0458 15.3183C8.87358 15.2395 7.7368 14.8834 6.72914 14.2792C5.72148 13.6751 4.87177 12.8402 4.25 11.8433C2.77366 10.0058 1.74642 7.84919 1.25 5.54495C1.25 5.25995 1.35833 5.00162 1.90167 5.00162H3.80167C4.29 5.00162 4.46583 5.21912 4.6575 5.72162C5.58 8.43662 7.15417 10.7983 7.79333 10.7983C8.03833 10.7983 8.145 10.69 8.145 10.0791V7.28245C8.06417 6.00662 7.38667 5.89912 7.38667 5.43745C7.39524 5.31565 7.45095 5.20199 7.54198 5.12061C7.63301 5.03923 7.75217 4.99655 7.87417 5.00162H10.8608C11.2692 5.00162 11.4042 5.20495 11.4042 5.69329V9.46829C11.4042 9.87579 11.5792 10.0108 11.7025 10.0108C11.9475 10.0108 12.1358 9.87579 12.585 9.42745C13.5478 8.25327 14.3344 6.94509 14.92 5.54412C14.9799 5.37591 15.0933 5.23193 15.2427 5.13413C15.3921 5.03634 15.5694 4.99009 15.7475 5.00245H17.6483C18.2183 5.00245 18.3392 5.28745 18.2183 5.69412C17.527 7.2428 16.6715 8.71287 15.6667 10.0791C15.4617 10.3916 15.38 10.5541 15.6667 10.9208C15.855 11.2058 16.5217 11.7625 16.9692 12.2916C17.6208 12.9416 18.1617 13.6933 18.5708 14.5166C18.7342 15.0466 18.4625 15.3175 17.92 15.3175Z"/>
    </symbol>
    <symbol id="play_icon" viewBox="0 0 100 100">
      <path d="M39.5833 64.9333V35.0667C39.5839 34.693 39.685 34.3264 39.876 34.0052C40.067 33.684 40.3409 33.4201 40.669 33.2412C40.997 33.0623 41.3672 32.9749 41.7406 32.9881C42.1141 33.0014 42.4771 33.1149 42.7916 33.3167L66.0249 48.2459C66.3191 48.4343 66.5612 48.6938 66.7288 49.0003C66.8965 49.3069 66.9843 49.6506 66.9843 50C66.9843 50.3494 66.8965 50.6932 66.7288 50.9997C66.5612 51.3062 66.3191 51.5657 66.0249 51.7542L42.7916 66.6875C42.4771 66.8893 42.1141 67.0028 41.7406 67.0161C41.3672 67.0294 40.997 66.9419 40.669 66.763C40.3409 66.5841 40.067 66.3202 39.876 65.999C39.685 65.6778 39.5839 65.3112 39.5833 64.9375V64.9333Z"/>
      <path d="M4.16675 50C4.16675 24.6875 24.6876 4.16666 50.0001 4.16666C75.3126 4.16666 95.8334 24.6875 95.8334 50C95.8334 75.3125 75.3126 95.8333 50.0001 95.8333C24.6876 95.8333 4.16675 75.3125 4.16675 50ZM50.0001 10.4167C39.5019 10.4167 29.4338 14.587 22.0104 22.0103C14.5871 29.4337 10.4167 39.5018 10.4167 50C10.4167 60.4981 14.5871 70.5663 22.0104 77.9896C29.4338 85.4129 39.5019 89.5833 50.0001 89.5833C60.4982 89.5833 70.5664 85.4129 77.9897 77.9896C85.413 70.5663 89.5834 60.4981 89.5834 50C89.5834 39.5018 85.413 29.4337 77.9897 22.0103C70.5664 14.587 60.4982 10.4167 50.0001 10.4167Z"/>
    </symbol>
    <symbol id="arrow_left" viewBox="0 0 24 24">
      <path d="M14,18c-0.3,0-0.5-0.1-0.7-0.3l-5-5c-0.4-0.4-0.4-1,0-1.4l5-5c0.4-0.4,1-0.4,1.4,0s0.4,1,0,1.4L10.4,12l4.3,4.3c0.4,0.4,0.4,1,0,1.4C14.5,17.9,14.3,18,14,18z"/>
    </symbol>
    <symbol id="arrow_right" viewBox="0 0 24 24">
      <path d="M10,18c-0.3,0-0.5-0.1-0.7-0.3c-0.4-0.4-0.4-1,0-1.4l4.3-4.3L9.3,7.7c-0.4-0.4-0.4-1,0-1.4s1-0.4,1.4,0l5,5c0.4,0.4,0.4,1,0,1.4l-5,5C10.5,17.9,10.3,18,10,18z"/>
    </symbol>
</svg>
